<?xml version="1.0" encoding="utf-8" standalone="no"?>
<!DOCTYPE svg PUBLIC "-//W3C//DTD SVG 1.1//EN"
  "http://www.w3.org/Graphics/SVG/1.1/DTD/svg11.dtd">
<!-- Created with matplotlib (http://matplotlib.org/) -->
<svg height="280pt" version="1.1" viewBox="0 0 398 280" width="398pt" xmlns="http://www.w3.org/2000/svg" xmlns:xlink="http://www.w3.org/1999/xlink">
 <defs>
  <style type="text/css">
*{stroke-linecap:butt;stroke-linejoin:round;}
  </style>
 </defs>
 <g id="figure_1">
  <g id="patch_1">
   <path d="
M0 280.157
L398.723 280.157
L398.723 0
L0 0
L0 280.157" style="fill:none;"/>
  </g>
  <g id="axes_1">
   <g id="patch_2">
    <path d="
M46.7515 237.485
L381.551 237.485
L381.551 14.2845
L46.7515 14.2845
L46.7515 237.485" style="fill:none;"/>
   </g>
   <g id="line2d_1">
    <path clip-path="url(#p6d93b3719f)" d="
M47.6042 104.042
L48.9378 103.805
L50.2712 103.446
L51.6046 102.858
L52.9378 102.585
L55.604 103.142
L56.9369 103.488
L58.2697 103.47
L59.6024 102.97
L60.935 102.622
L62.2675 102.642
L63.5998 102.052
L64.9321 101.609
L66.2643 101.656
L68.9283 102.384
L70.2601 103.188
L71.5918 103.751
L72.9234 104.042
L74.255 103.764
L75.5864 103.115
L78.2488 103.271
L79.5799 102.892
L80.9109 102.385
L82.2417 101.396
L83.5725 99.8405
L84.9031 97.652
L86.2337 96.0687
L87.5641 96.3238
L88.8944 98.647
L91.5547 105.035
L92.8847 107.424
L94.2146 108.09
L95.5444 107.618
L96.874 106.539
L100.862 102.736
L102.192 102.389
L103.521 102.394
L104.85 101.756
L106.179 101.554
L107.508 101.609
L108.836 101.151
L110.165 101.227
L112.822 101.768
L114.15 101.833
L115.478 101.515
L116.806 101.486
L118.134 101.188
L119.462 101.137
L122.117 102.178
L123.445 102.297
L124.772 102.009
L127.427 101.782
L128.754 101.263
L130.081 101.056
L131.407 101.151
L132.734 100.529
L134.061 99.7783
L135.387 100.318
L136.714 101.024
L138.04 100.495
L139.366 100.441
L140.692 100.833
L142.018 100.551
L143.344 100.026
L144.67 99.9833
L145.996 100.168
L147.321 100.058
L148.647 100.288
L149.972 100.711
L151.297 100.703
L153.947 99.8907
L155.272 99.84
L156.597 100.025
L157.922 100.078
L159.246 99.3759
L160.571 98.362
L161.895 96.5686
L163.219 94.0356
L164.544 92.645
L165.868 95.0876
L168.515 105.347
L169.839 109.058
L171.163 110.398
L172.486 110.253
L173.81 109.382
L175.133 107.823
L176.456 106.881
L177.779 106.528
L179.102 107.119
L180.425 108.701
L181.748 110.002
L183.07 112.257
L184.393 115.326
L185.715 119.205
L187.038 124.335
L188.36 128.208
L189.682 129.937
L191.004 130.43
L192.326 126.835
L193.647 117.603
L198.933 68.5976
L200.255 61.3277
L201.576 63.3542
L202.897 75.7549
L204.218 96.5356
L206.859 146.677
L208.18 164.972
L209.5 177.8
L210.821 187.246
L212.141 193.596
L213.461 197.5
L214.781 196.221
L216.101 191.012
L217.421 184.573
L218.74 175.49
L221.379 153.959
L222.699 145.303
L224.018 138.215
L225.337 132.491
L227.975 125.212
L229.294 122.754
L231.932 119.26
L233.25 117.84
L234.568 116.861
L237.205 115.203
L238.523 114.803
L242.477 113.918
L245.112 112.503
L246.429 111.702
L247.747 111.289
L250.381 111.783
L251.698 111.742
L255.648 112.085
L258.281 113.209
L259.598 113.25
L262.23 112.951
L267.493 110.573
L268.809 110.675
L270.125 110.271
L271.44 109.988
L272.755 110.415
L274.07 110.483
L275.385 109.881
L276.7 109.779
L278.015 110.308
L279.33 110.224
L281.959 109.454
L283.273 108.994
L287.216 108.767
L288.53 108.281
L289.844 107.352
L291.158 106.735
L292.471 106.54
L293.785 107.358
L295.098 108.583
L296.411 109.335
L297.725 108.9
L299.038 108.016
L300.351 106.716
L301.664 104.274
L302.976 101.498
L304.289 99.0121
L305.602 98.2713
L306.914 99.3147
L308.226 101.374
L309.539 104.924
L310.851 109.407
L312.163 113.205
L313.475 115.302
L314.787 115.601
L316.098 114.376
L320.033 106.456
L321.344 105.44
L322.655 106.128
L323.966 107.354
L325.277 108.409
L326.588 108.545
L327.899 107.893
L329.209 105.614
L331.83 97.8547
L333.14 95.4771
L334.451 96.5418
L335.761 101.497
L337.071 108.146
L338.38 113.636
L339.69 116.045
L341 115.249
L342.309 113.325
L344.928 109.068
L346.237 107.526
L347.546 106.81
L348.855 106.645
L350.164 106.229
L351.473 105.591
L352.782 105.457
L354.09 105.572
L355.399 105.42
L358.015 104.595
L359.323 104.235
L361.939 103.064
L363.247 102.817
L365.862 103.204
L368.477 105.743
L369.784 107.056
L371.092 107.96
L373.705 108.308
L375.012 107.958
L376.319 107.197
L377.626 106.575
L380.239 105.541
L381.545 104.973
L381.545 104.973" style="fill:none;stroke:#0000ff;stroke-linecap:square;"/>
   </g>
   <g id="line2d_2">
    <path clip-path="url(#p6d93b3719f)" d="
M47.6042 104.053
L48.9378 103.817
L50.2712 103.457
L51.6046 102.87
L52.9378 102.597
L55.604 103.156
L56.9369 103.502
L58.2697 103.484
L59.6024 102.985
L60.935 102.638
L62.2675 102.659
L63.5998 102.068
L64.9321 101.626
L66.2643 101.675
L68.9283 102.406
L70.2601 103.212
L71.5918 103.775
L72.9234 104.067
L74.255 103.789
L75.5864 103.142
L78.2488 103.299
L79.5799 102.921
L80.9109 102.414
L82.2417 101.423
L83.5725 99.8673
L84.9031 97.6793
L86.2337 96.1007
L87.5641 96.3631
L88.8944 98.6936
L91.5547 105.09
L92.8847 107.481
L94.2146 108.147
L95.5444 107.677
L96.874 106.598
L100.862 102.801
L102.192 102.46
L103.521 102.466
L104.85 101.831
L106.179 101.634
L107.508 101.693
L108.836 101.239
L110.165 101.323
L112.822 101.876
L114.15 101.945
L115.478 101.635
L116.806 101.614
L118.134 101.323
L119.462 101.283
L122.117 102.345
L123.445 102.473
L124.772 102.196
L127.427 101.996
L128.754 101.49
L130.081 101.302
L131.407 101.412
L134.061 100.081
L135.387 100.653
L136.714 101.379
L138.04 100.875
L139.366 100.86
L140.692 101.287
L142.018 101.039
L143.344 100.558
L144.67 100.57
L145.996 100.81
L147.321 100.762
L148.647 101.07
L149.972 101.57
L151.297 101.648
L153.947 101.056
L155.272 101.145
L156.597 101.488
L157.922 101.704
L159.246 101.192
L160.571 100.396
L161.895 98.8491
L163.219 96.6422
L164.544 95.7608
L165.868 98.9114
L168.515 110.939
L169.839 115.771
L171.163 118.484
L172.486 120.128
L175.133 123.043
L176.456 126.554
L179.102 137.51
L180.425 140.864
L181.748 142.319
L183.07 143.494
L184.393 143.559
L187.038 141.836
L188.36 138.469
L189.682 132.596
L191.004 125.28
L192.326 116.148
L193.647 105.039
L194.969 92.0687
L196.291 77.9614
L198.933 47.9333
L200.255 39.2296
L201.576 39.6905
L202.897 49.2454
L204.218 66.3582
L206.859 110.55
L208.18 128.482
L210.821 159.89
L212.141 171.927
L213.461 179.916
L214.781 181.642
L216.101 178.949
L217.421 174.465
L218.74 166.873
L221.379 147.801
L222.699 140.072
L224.018 133.71
L225.337 128.589
L227.975 122.189
L229.294 120.085
L231.932 117.113
L233.25 115.908
L234.568 115.113
L237.205 113.755
L239.841 113.321
L242.477 112.882
L245.112 111.614
L246.429 110.878
L247.747 110.529
L249.064 110.885
L250.381 111.119
L251.698 111.122
L255.648 111.577
L258.281 112.757
L259.598 112.821
L262.23 112.565
L267.493 110.261
L268.809 110.378
L270.125 109.986
L271.44 109.72
L272.755 110.16
L274.07 110.237
L275.385 109.645
L276.7 109.556
L278.015 110.095
L279.33 110.017
L281.959 109.263
L283.273 108.812
L287.216 108.604
L288.53 108.122
L289.844 107.199
L291.158 106.59
L292.471 106.402
L293.785 107.228
L295.098 108.455
L296.411 109.209
L297.725 108.775
L299.038 107.895
L300.351 106.596
L301.664 104.155
L302.976 101.383
L304.289 98.9031
L305.602 98.1709
L306.914 99.2207
L308.226 101.286
L309.539 104.843
L310.851 109.329
L312.163 113.128
L313.475 115.224
L314.787 115.522
L316.098 114.297
L320.033 106.382
L321.344 105.371
L322.655 106.063
L323.966 107.29
L325.277 108.345
L326.588 108.481
L327.899 107.829
L329.209 105.548
L331.83 97.7917
L333.14 95.4205
L334.451 96.4929
L335.761 101.454
L337.071 108.104
L338.38 113.593
L339.69 115.998
L341 115.201
L342.309 113.278
L344.928 109.023
L346.237 107.482
L347.546 106.767
L348.855 106.604
L350.164 106.188
L351.473 105.551
L352.782 105.419
L354.09 105.534
L355.399 105.382
L358.015 104.558
L359.323 104.198
L361.939 103.029
L363.247 102.784
L365.862 103.173
L368.477 105.714
L369.784 107.028
L371.092 107.931
L373.705 108.28
L375.012 107.931
L376.319 107.17
L377.626 106.548
L380.239 105.515
L381.545 104.948
L381.545 104.948" style="fill:none;stroke:#008000;stroke-linecap:square;"/>
   </g>
   <g id="line2d_3">
    <path clip-path="url(#p6d93b3719f)" d="
M47.6042 104.258
L48.9378 104.025
L50.2712 103.67
L51.6046 103.085
L52.9378 102.817
L55.604 103.384
L56.9369 103.735
L58.2697 103.722
L59.6024 103.227
L60.935 102.884
L62.2675 102.91
L63.5998 102.324
L64.9321 101.887
L66.2643 101.94
L68.9283 102.684
L70.2601 103.495
L71.5918 104.066
L72.9234 104.365
L74.255 104.093
L75.5864 103.452
L78.2488 103.623
L79.5799 103.252
L80.9109 102.752
L82.2417 101.77
L83.5725 100.22
L84.9031 98.0376
L86.2337 96.4636
L87.5641 96.7328
L88.8944 99.0739
L91.5547 105.5
L92.8847 107.906
L94.2146 108.586
L95.5444 108.127
L96.874 107.059
L100.862 103.293
L102.192 102.964
L103.521 102.985
L104.85 102.364
L106.179 102.182
L107.508 102.256
L108.836 101.819
L110.165 101.92
L112.822 102.511
L114.15 102.602
L115.478 102.312
L116.806 102.313
L118.134 102.044
L119.462 102.028
L122.117 103.146
L123.445 103.303
L124.772 103.056
L127.427 102.92
L128.754 102.448
L130.081 102.295
L131.407 102.445
L134.061 101.195
L135.387 101.813
L136.714 102.595
L138.04 102.144
L139.366 102.183
L140.692 102.673
L142.018 102.491
L143.344 102.076
L144.67 102.161
L145.996 102.482
L147.321 102.521
L148.647 102.922
L149.972 103.528
L151.297 103.718
L153.947 103.369
L155.272 103.597
L157.922 104.49
L159.246 104.165
L160.571 103.568
L161.895 102.233
L163.219 100.241
L164.544 99.5875
L165.868 103.042
L168.515 116.013
L169.839 121.418
L171.163 124.733
L175.133 131.465
L176.456 135.937
L179.102 149.505
L180.425 154.69
L183.07 162.465
L185.715 170.305
L187.038 175.002
L188.36 177.739
L189.682 178.011
L191.004 176.686
L192.326 170.892
L193.647 159.041
L194.969 144.039
L196.291 127.5
L198.933 92.4444
L200.255 81.5025
L201.576 81.263
L202.897 92.1906
L204.218 112.084
L206.859 161.245
L208.18 178.855
L209.5 191.038
L210.821 199.737
L212.141 205.194
L213.461 208.096
L214.781 205.714
L216.101 199.464
L217.421 192.058
L218.74 182.058
L221.379 159.061
L222.699 149.864
L224.018 142.317
L225.337 136.221
L227.975 128.357
L229.294 125.673
L231.932 121.794
L233.25 120.213
L234.568 119.091
L237.205 117.184
L238.523 116.679
L242.477 115.52
L246.429 113.079
L247.747 112.606
L250.381 112.993
L251.698 112.903
L255.648 113.118
L258.281 114.17
L259.598 114.175
L262.23 113.809
L267.493 111.313
L268.809 111.391
L270.125 110.962
L271.44 110.659
L272.755 111.066
L274.07 111.114
L275.385 110.492
L276.7 110.373
L278.015 110.885
L279.33 110.784
L281.959 109.981
L283.273 109.507
L287.216 109.238
L288.53 108.738
L289.844 107.796
L291.158 107.167
L292.471 106.962
L293.785 107.773
L295.098 108.989
L296.411 109.732
L297.725 109.286
L299.038 108.391
L300.351 107.079
L301.664 104.623
L302.976 101.835
L304.289 99.3388
L305.602 98.592
L306.914 99.6315
L308.226 101.689
L309.539 105.24
L310.851 109.723
L312.163 113.52
L313.475 115.612
L314.787 115.904
L316.098 114.671
L320.033 106.723
L321.344 105.702
L322.655 106.387
L323.966 107.61
L325.277 108.661
L326.588 108.791
L327.899 108.133
L329.209 105.846
L331.83 98.0706
L333.14 95.6892
L334.451 96.7543
L335.761 101.713
L337.071 108.365
L338.38 113.857
L339.69 116.262
L341 115.462
L342.309 113.532
L344.928 109.265
L346.237 107.719
L347.546 106.999
L348.855 106.832
L350.164 106.413
L351.473 105.771
L352.782 105.635
L354.09 105.747
L355.399 105.593
L358.015 104.762
L359.323 104.399
L361.939 103.223
L363.247 102.975
L365.862 103.359
L368.477 105.896
L369.784 107.209
L371.092 108.111
L373.705 108.456
L375.012 108.104
L376.319 107.341
L377.626 106.717
L380.239 105.679
L381.545 105.11
L381.545 105.11" style="fill:none;stroke:#ff0000;stroke-linecap:square;"/>
   </g>
   <g id="patch_3">
    <path d="
M46.7515 14.2845
L381.551 14.2845" style="fill:none;stroke:#000000;stroke-linecap:square;stroke-linejoin:miter;"/>
   </g>
   <g id="patch_4">
    <path d="
M381.551 237.485
L381.551 14.2845" style="fill:none;stroke:#000000;stroke-linecap:square;stroke-linejoin:miter;"/>
   </g>
   <g id="patch_5">
    <path d="
M46.7515 237.485
L381.551 237.485" style="fill:none;stroke:#000000;stroke-linecap:square;stroke-linejoin:miter;"/>
   </g>
   <g id="patch_6">
    <path d="
M46.7515 237.485
L46.7515 14.2845" style="fill:none;stroke:#000000;stroke-linecap:square;stroke-linejoin:miter;"/>
   </g>
   <g id="matplotlib.axis_1">
    <g id="xtick_1">
     <g id="line2d_4">
      <defs>
       <path d="
M0 0
L0 -7" id="m21d9c6f116" style="stroke:#000000;stroke-width:0.5;"/>
      </defs>
      <g>
       <use style="stroke:#000000;stroke-width:0.5;" x="46.7514963418" xlink:href="#m21d9c6f116" y="237.484532247"/>
      </g>
     </g>
     <g id="line2d_5">
      <defs>
       <path d="
M0 0
L0 7" id="m949ece7675" style="stroke:#000000;stroke-width:0.5;"/>
      </defs>
      <g>
       <use style="stroke:#000000;stroke-width:0.5;" x="46.7514963418" xlink:href="#m949ece7675" y="14.2845322472"/>
      </g>
     </g>
     <g id="text_1">
      <!-- $0.0$ -->
      <defs>
       <path d="
M42 31.6406
C42 37.75 41.9062 48.125 37.7031 56.1094
C34 63.1094 28.0938 65.5938 22.9062 65.5938
C18.0938 65.5938 12 63.4062 8.20312 56.2031
C4.20312 48.7188 3.79688 39.4375 3.79688 31.6406
C3.79688 25.9531 3.90625 17.2812 7 9.67188
C11.2969 -0.609375 19 -2 22.9062 -2
C27.5 -2 34.5 -0.109375 38.5938 9.375
C41.5938 16.2812 42 24.3594 42 31.6406
M22.9062 -0.40625
C16.5 -0.40625 12.7031 5.07812 11.2969 12.6875
C10.2031 18.5625 10.2031 27.1562 10.2031 32.75
C10.2031 40.4375 10.2031 46.8281 11.5 52.9219
C13.4062 61.3906 19 64 22.9062 64
C27 64 32.2969 61.2969 34.2031 53.125
C35.5 47.4375 35.5938 40.7344 35.5938 32.75
C35.5938 26.25 35.5938 18.2656 34.4062 12.375
C32.2969 1.48438 26.4062 -0.40625 22.9062 -0.40625" id="CMR17-48"/>
       <path d="
M18.4062 4.79688
C18.4062 7.6875 16 9.67188 13.5938 9.67188
C10.7031 9.67188 8.70312 7.28125 8.70312 4.89062
C8.70312 2 11.0938 0 13.5 0
C16.4062 0 18.4062 2.39062 18.4062 4.79688" id="CMMI12-58"/>
      </defs>
      <g transform="translate(36.7797351728 252.554120534)scale(0.16 -0.16)">
       <use transform="scale(0.996264009963)" xlink:href="#CMR17-48"/>
       <use transform="translate(45.6904771171 0.0)scale(0.996264009963)" xlink:href="#CMMI12-58"/>
       <use transform="translate(72.7876542069 0.0)scale(0.996264009963)" xlink:href="#CMR17-48"/>
      </g>
     </g>
    </g>
    <g id="xtick_2">
     <g id="line2d_6">
      <g>
       <use style="stroke:#000000;stroke-width:0.5;" x="88.6014963418" xlink:href="#m21d9c6f116" y="237.484532247"/>
      </g>
     </g>
     <g id="line2d_7">
      <g>
       <use style="stroke:#000000;stroke-width:0.5;" x="88.6014963418" xlink:href="#m949ece7675" y="14.2845322472"/>
      </g>
     </g>
     <g id="text_2">
      <!-- $0.5$ -->
      <defs>
       <path d="
M11.4062 57.6875
C12.4062 57.2812 16.5 56 20.7031 56
C30 56 35.0938 61.0156 38 63.9219
C38 64.7344 38 65.25 37.4062 65.25
C37.2969 65.25 37.0938 65.25 36.2969 64.8281
C32.7969 63.3125 28.7031 62.0781 23.7031 62.0781
C20.7031 62.0781 16.2031 62.5 11.2969 64.7344
C10.2031 65.25 10 65.25 9.90625 65.25
C9.40625 65.25 9.29688 65.1406 9.29688 63.1562
L9.29688 34.2812
C9.29688 32.5 9.29688 32 10.2969 32
C10.7969 32 11 32.2031 11.5 32.9062
C14.7031 37.4844 19.0938 39.4062 24.0938 39.4062
C27.5938 39.4062 35.0938 37.2188 35.0938 20.1406
C35.0938 16.9531 35.0938 11.1719 32.0938 6.57812
C29.5938 2.48438 25.7031 0.390625 21.4062 0.390625
C14.7969 0.390625 8.09375 5 6.29688 12.7188
C6.70312 12.6094 7.5 12.4219 7.90625 12.4219
C9.20312 12.4219 11.7031 13.125 11.7031 16.2188
C11.7031 18.9062 9.79688 20 7.90625 20
C5.59375 20 4.09375 18.5938 4.09375 15.7969
C4.09375 7.09375 11 -2 21.5938 -2
C31.9062 -2 41.7031 6.875 41.7031 19.75
C41.7031 31.7188 33.9062 41 24.2031 41
C19.0938 41 14.7969 39.0938 11.4062 35.4531
z
" id="CMR17-53"/>
      </defs>
      <g transform="translate(78.6297351728 252.554120534)scale(0.16 -0.16)">
       <use transform="scale(0.996264009963)" xlink:href="#CMR17-48"/>
       <use transform="translate(45.6904771171 0.0)scale(0.996264009963)" xlink:href="#CMMI12-58"/>
       <use transform="translate(72.7876542069 0.0)scale(0.996264009963)" xlink:href="#CMR17-53"/>
      </g>
     </g>
    </g>
    <g id="xtick_3">
     <g id="line2d_8">
      <g>
       <use style="stroke:#000000;stroke-width:0.5;" x="130.451496342" xlink:href="#m21d9c6f116" y="237.484532247"/>
      </g>
     </g>
     <g id="line2d_9">
      <g>
       <use style="stroke:#000000;stroke-width:0.5;" x="130.451496342" xlink:href="#m949ece7675" y="14.2845322472"/>
      </g>
     </g>
     <g id="text_3">
      <!-- $1.0$ -->
      <defs>
       <path d="
M26.5938 63.3125
C26.5938 65.4062 26.5 65.5 25.0938 65.5
C21.2031 61.1875 15.2969 59.7969 9.70312 59.7969
C9.40625 59.7969 8.90625 59.7969 8.79688 59.6094
C8.70312 59.3906 8.70312 59.1719 8.70312 57
C11.7969 57 17 57.5938 21 59.9844
L21 7.20312
C21 3.6875 20.7969 2.5 12.2031 2.5
L9.20312 2.5
L9.20312 0
C14 0 19 0 23.7969 0
C28.5938 0 33.5938 0 38.4062 0
L38.4062 2.5
L35.4062 2.5
C26.7969 2.5 26.5938 3.59375 26.5938 7.15625
z
" id="CMR17-49"/>
      </defs>
      <g transform="translate(120.479735173 252.554120534)scale(0.16 -0.16)">
       <use transform="scale(0.996264009963)" xlink:href="#CMR17-49"/>
       <use transform="translate(45.6904771171 0.0)scale(0.996264009963)" xlink:href="#CMMI12-58"/>
       <use transform="translate(72.7876542069 0.0)scale(0.996264009963)" xlink:href="#CMR17-48"/>
      </g>
     </g>
    </g>
    <g id="xtick_4">
     <g id="line2d_10">
      <g>
       <use style="stroke:#000000;stroke-width:0.5;" x="172.301496342" xlink:href="#m21d9c6f116" y="237.484532247"/>
      </g>
     </g>
     <g id="line2d_11">
      <g>
       <use style="stroke:#000000;stroke-width:0.5;" x="172.301496342" xlink:href="#m949ece7675" y="14.2845322472"/>
      </g>
     </g>
     <g id="text_4">
      <!-- $1.5$ -->
      <g transform="translate(162.329735173 252.554120534)scale(0.16 -0.16)">
       <use transform="scale(0.996264009963)" xlink:href="#CMR17-49"/>
       <use transform="translate(45.6904771171 0.0)scale(0.996264009963)" xlink:href="#CMMI12-58"/>
       <use transform="translate(72.7876542069 0.0)scale(0.996264009963)" xlink:href="#CMR17-53"/>
      </g>
     </g>
    </g>
    <g id="xtick_5">
     <g id="line2d_12">
      <g>
       <use style="stroke:#000000;stroke-width:0.5;" x="214.151496342" xlink:href="#m21d9c6f116" y="237.484532247"/>
      </g>
     </g>
     <g id="line2d_13">
      <g>
       <use style="stroke:#000000;stroke-width:0.5;" x="214.151496342" xlink:href="#m949ece7675" y="14.2845322472"/>
      </g>
     </g>
     <g id="text_5">
      <!-- $2.0$ -->
      <defs>
       <path d="
M41.7031 15.4531
L39.9062 15.4531
C38.9062 8.375 38.0938 7.17188 37.7031 6.5625
C37.2031 5.76562 30 5.76562 28.5938 5.76562
L9.40625 5.76562
C13 9.67188 20 16.75 28.5 24.9531
C34.5938 30.7344 41.7031 37.5312 41.7031 47.4219
C41.7031 59.2188 32.2969 66 21.7969 66
C10.7969 66 4.09375 56.3125 4.09375 47.3438
C4.09375 43.4375 7 42.9375 8.20312 42.9375
C9.20312 42.9375 12.2031 43.5469 12.2031 47.0312
C12.2031 50.1094 9.59375 51 8.20312 51
C7.59375 51 7 50.9062 6.59375 50.7031
C8.5 59.2188 14.2969 63.4062 20.4062 63.4062
C29.0938 63.4062 34.7969 56.5156 34.7969 47.4219
C34.7969 38.7344 29.7031 31.25 24 24.75
L4.09375 2.28125
L4.09375 0
L39.2969 0
z
" id="CMR17-50"/>
      </defs>
      <g transform="translate(204.179735173 252.554120534)scale(0.16 -0.16)">
       <use transform="scale(0.996264009963)" xlink:href="#CMR17-50"/>
       <use transform="translate(45.6904771171 0.0)scale(0.996264009963)" xlink:href="#CMMI12-58"/>
       <use transform="translate(72.7876542069 0.0)scale(0.996264009963)" xlink:href="#CMR17-48"/>
      </g>
     </g>
    </g>
    <g id="xtick_6">
     <g id="line2d_14">
      <g>
       <use style="stroke:#000000;stroke-width:0.5;" x="256.001496342" xlink:href="#m21d9c6f116" y="237.484532247"/>
      </g>
     </g>
     <g id="line2d_15">
      <g>
       <use style="stroke:#000000;stroke-width:0.5;" x="256.001496342" xlink:href="#m949ece7675" y="14.2845322472"/>
      </g>
     </g>
     <g id="text_6">
      <!-- $2.5$ -->
      <g transform="translate(246.029735173 252.554120534)scale(0.16 -0.16)">
       <use transform="scale(0.996264009963)" xlink:href="#CMR17-50"/>
       <use transform="translate(45.6904771171 0.0)scale(0.996264009963)" xlink:href="#CMMI12-58"/>
       <use transform="translate(72.7876542069 0.0)scale(0.996264009963)" xlink:href="#CMR17-53"/>
      </g>
     </g>
    </g>
    <g id="xtick_7">
     <g id="line2d_16">
      <g>
       <use style="stroke:#000000;stroke-width:0.5;" x="297.851496342" xlink:href="#m21d9c6f116" y="237.484532247"/>
      </g>
     </g>
     <g id="line2d_17">
      <g>
       <use style="stroke:#000000;stroke-width:0.5;" x="297.851496342" xlink:href="#m949ece7675" y="14.2845322472"/>
      </g>
     </g>
     <g id="text_7">
      <!-- $3.0$ -->
      <defs>
       <path d="
M22.0938 33.7031
C31 33.7031 34.9062 25.9688 34.9062 17.0312
C34.9062 5 28.5 0.390625 22.7031 0.390625
C17.4062 0.390625 8.79688 3.03125 6.09375 10.8281
C6.59375 10.625 7.09375 10.625 7.59375 10.625
C10 10.625 11.7969 12.2188 11.7969 14.8125
C11.7969 17.7031 9.59375 19 7.59375 19
C5.90625 19 3.29688 18.2031 3.29688 14.4688
C3.29688 5.23438 12.2969 -2 22.9062 -2
C34 -2 42.5 6.71875 42.5 16.9531
C42.5 26.6719 34.5 33.6875 25 34.7969
C32.5938 36.375 39.9062 43.0625 39.9062 52.0156
C39.9062 59.6875 32 65.2969 23 65.2969
C13.9062 65.2969 5.90625 59.8281 5.90625 52.0156
C5.90625 48.5938 8.5 48 9.79688 48
C11.9062 48 13.7031 49.2969 13.7031 51.8906
C13.7031 54.4688 11.9062 55.7656 9.79688 55.7656
C9.40625 55.7656 8.90625 55.7656 8.5 55.5625
C11.4062 61.8594 19.2969 63 22.7969 63
C26.2969 63 32.9062 61.3281 32.9062 51.875
C32.9062 49.1094 32.5 44.1875 29.0938 39.8438
C26.0938 36 22.7031 36 19.4062 35.5938
C18.9062 35.5938 16.5938 35.5938 16.2031 35.5938
C15.5 35.4844 15.0938 35.3906 15.0938 34.5938
C15.0938 33.8125 15.2031 33.7031 17.2031 33.7031
z
" id="CMR17-51"/>
      </defs>
      <g transform="translate(287.879735173 252.554120534)scale(0.16 -0.16)">
       <use transform="scale(0.996264009963)" xlink:href="#CMR17-51"/>
       <use transform="translate(45.6904771171 0.0)scale(0.996264009963)" xlink:href="#CMMI12-58"/>
       <use transform="translate(72.7876542069 0.0)scale(0.996264009963)" xlink:href="#CMR17-48"/>
      </g>
     </g>
    </g>
    <g id="xtick_8">
     <g id="line2d_18">
      <g>
       <use style="stroke:#000000;stroke-width:0.5;" x="339.701496342" xlink:href="#m21d9c6f116" y="237.484532247"/>
      </g>
     </g>
     <g id="line2d_19">
      <g>
       <use style="stroke:#000000;stroke-width:0.5;" x="339.701496342" xlink:href="#m949ece7675" y="14.2845322472"/>
      </g>
     </g>
     <g id="text_8">
      <!-- $3.5$ -->
      <g transform="translate(329.729735173 252.554120534)scale(0.16 -0.16)">
       <use transform="scale(0.996264009963)" xlink:href="#CMR17-51"/>
       <use transform="translate(45.6904771171 0.0)scale(0.996264009963)" xlink:href="#CMMI12-58"/>
       <use transform="translate(72.7876542069 0.0)scale(0.996264009963)" xlink:href="#CMR17-53"/>
      </g>
     </g>
    </g>
    <g id="xtick_9">
     <g id="line2d_20">
      <g>
       <use style="stroke:#000000;stroke-width:0.5;" x="381.551496342" xlink:href="#m21d9c6f116" y="237.484532247"/>
      </g>
     </g>
     <g id="line2d_21">
      <g>
       <use style="stroke:#000000;stroke-width:0.5;" x="381.551496342" xlink:href="#m949ece7675" y="14.2845322472"/>
      </g>
     </g>
     <g id="text_9">
      <!-- $4.0$ -->
      <defs>
       <path d="
M33.5938 64.3281
C33.5938 66.4062 33.5 66.5 31.7031 66.5
L2 19.5938
L2 17
L27.7969 17
L27.7969 7.14062
C27.7969 3.5 27.5938 2.5 20.5938 2.5
L18.7031 2.5
L18.7031 0
C21.9062 0 27.2969 0 30.7031 0
C34.0938 0 39.5 0 42.7031 0
L42.7031 2.5
L40.7969 2.5
C33.7969 2.5 33.5938 3.5 33.5938 7.14062
L33.5938 17
L43.7969 17
L43.7969 19.5938
L33.5938 19.5938
z

M28.0938 57.7656
L28.0938 19.5938
L4 19.5938
z
" id="CMR17-52"/>
      </defs>
      <g transform="translate(371.579735173 252.554120534)scale(0.16 -0.16)">
       <use transform="scale(0.996264009963)" xlink:href="#CMR17-52"/>
       <use transform="translate(45.6904771171 0.0)scale(0.996264009963)" xlink:href="#CMMI12-58"/>
       <use transform="translate(72.7876542069 0.0)scale(0.996264009963)" xlink:href="#CMR17-48"/>
      </g>
     </g>
    </g>
    <g id="text_10">
     <!-- $+5.888{\times}10^{3}$ -->
     <defs>
      <path d="
M37.7031 23.5156
L64.2031 23.5156
C65.5938 23.5156 67.2969 23.5156 67.2969 25.2031
C67.2969 27 65.7031 27 64.2031 27
L37.7031 27
L37.7031 53.3281
C37.7031 54.7188 37.7031 56.4219 36 56.4219
C34.2031 56.4219 34.2031 54.8281 34.2031 53.3281
L34.2031 27
L7.70312 27
C6.29688 27 4.59375 27 4.59375 25.3125
C4.59375 23.5156 6.20312 23.5156 7.70312 23.5156
L34.2031 23.5156
L34.2031 -2.90625
C34.2031 -4.29688 34.2031 -6 35.9062 -6
C37.7031 -6 37.7031 -4.40625 37.7031 -2.90625
z
" id="CMR17-43"/>
      <path d="
M38.9062 27.8906
L18.9062 47.7969
C17.7031 49 17.5 49.1875 16.7031 49.1875
C15.7031 49.1875 14.7031 48.2969 14.7031 47.1875
C14.7031 46.5 14.9062 46.2969 16 45.1875
L36 25.0938
L16 5
C14.9062 3.89062 14.7031 3.6875 14.7031 3
C14.7031 1.89062 15.7031 1 16.7031 1
C17.5 1 17.7031 1.1875 18.9062 2.39062
L38.7969 22.2969
L59.5 1.59375
C59.7031 1.5 60.4062 1 61 1
C62.2031 1 63 1.89062 63 3
C63 3.1875 63 3.59375 62.7031 4.09375
C62.5938 4.29688 46.7031 20 41.7031 25.0938
L60 43.3906
C60.5 44 62 45.2969 62.5 45.8906
C62.5938 46.0938 63 46.5 63 47.1875
C63 48.2969 62.2031 49.1875 61 49.1875
C60.2031 49.1875 59.7969 48.7969 58.7031 47.6875
z
" id="CMSY10-2"/>
      <path d="
M27.2031 35.375
C33.5 38.5625 39.9062 43.3281 39.9062 50.9844
C39.9062 60.0312 31.0938 65.2969 23 65.2969
C13.9062 65.2969 5.90625 58.7344 5.90625 49.6875
C5.90625 47.2031 6.5 42.9219 10.4062 39.1406
C11.4062 38.1562 15.5938 35.1719 18.2969 33.2812
C13.7969 30.9844 3.29688 25.5312 3.29688 14.5938
C3.29688 4.35938 13.0938 -2 22.7969 -2
C33.5 -2 42.5 5.65625 42.5 15.7969
C42.5 24.8438 36.4062 29.0312 32.4062 31.7031
z

M14.0938 44.125
C13.2969 44.625 9.29688 47.7031 9.29688 52.375
C9.29688 58.4375 15.5938 63 22.7969 63
C30.7031 63 36.5 57.4531 36.5 50.9844
C36.5 41.7344 26.0938 36.4688 25.5938 36.4688
C25.5 36.4688 25.4062 36.4688 24.5938 37.0781
z

M32.5 23.7344
C34 22.6406 38.7969 19.375 38.7969 13.2969
C38.7969 5.95312 31.4062 0.390625 23 0.390625
C13.9062 0.390625 7 6.84375 7 14.6875
C7 22.5469 13.0938 29.0938 20 32.1875
z
" id="CMR17-56"/>
     </defs>
     <g transform="translate(300.275425285 269.857842417)scale(0.16 -0.16)">
      <use transform="scale(0.996264009963)" xlink:href="#CMR17-43"/>
      <use transform="translate(71.7147884155 0.0)scale(0.996264009963)" xlink:href="#CMR17-53"/>
      <use transform="translate(117.405265533 0.0)scale(0.996264009963)" xlink:href="#CMMI12-58"/>
      <use transform="translate(144.502442622 0.0)scale(0.996264009963)" xlink:href="#CMR17-56"/>
      <use transform="translate(190.192919739 0.0)scale(0.996264009963)" xlink:href="#CMR17-56"/>
      <use transform="translate(235.883396857 0.0)scale(0.996264009963)" xlink:href="#CMR17-56"/>
      <use transform="translate(281.573873974 0.0)scale(0.996264009963)" xlink:href="#CMSY10-2"/>
      <use transform="translate(359.061341624 0.0)scale(0.996264009963)" xlink:href="#CMR17-49"/>
      <use transform="translate(404.751818741 0.0)scale(0.996264009963)" xlink:href="#CMR17-48"/>
      <use transform="translate(450.442295858 36.1536389419)scale(0.697381766617)" xlink:href="#CMR17-51"/>
     </g>
    </g>
   </g>
   <g id="matplotlib.axis_2">
    <g id="ytick_1">
     <g id="line2d_22">
      <defs>
       <path d="
M0 0
L4 0" id="m728421d6d4" style="stroke:#000000;stroke-width:0.5;"/>
      </defs>
      <g>
       <use style="stroke:#000000;stroke-width:0.5;" x="46.7514963418" xlink:href="#m728421d6d4" y="237.484532247"/>
      </g>
     </g>
     <g id="line2d_23">
      <defs>
       <path d="
M0 0
L-4 0" id="mcb0005524f" style="stroke:#000000;stroke-width:0.5;"/>
      </defs>
      <g>
       <use style="stroke:#000000;stroke-width:0.5;" x="381.551496342" xlink:href="#mcb0005524f" y="237.484532247"/>
      </g>
     </g>
     <g id="text_11">
      <!-- $0.985$ -->
      <defs>
       <path d="
M35.2031 29.125
C35.2031 7.25 26.0938 0.484375 18.5938 0.484375
C16.2969 0.484375 10.7031 0.484375 8.40625 4.59375
C11 4.1875 12.9062 5.57812 12.9062 8.09375
C12.9062 10.8125 10.7031 11.7031 9.29688 11.7031
C8.40625 11.7031 5.70312 11.2969 5.70312 7.90625
C5.70312 1.10938 11.5938 -2 18.7969 -2
C30.2969 -2 42 10.5312 42 32.3906
C42 59.6406 30.7969 65.2969 23.2031 65.2969
C13.2969 65.2969 3.79688 56.6875 3.79688 43.4062
C3.79688 31.1094 11.9062 22 22.0938 22
C30.5 22 34.2031 29.7344 35.2031 33
z

M22.2969 23.5938
C19.5938 23.5938 15.7969 24.0938 12.7031 30.0312
C10.5938 33.8906 10.5938 38.4531 10.5938 43.2969
C10.5938 49.1562 10.5938 53.2031 13.4062 57.5625
C14.7969 59.6406 17.4062 63 23.2031 63
C35 63 35 45.0781 35 41.125
C35 34.0938 31.7969 23.5938 22.2969 23.5938" id="CMR17-57"/>
      </defs>
      <g transform="translate(7.2 241.469588287)scale(0.16 -0.16)">
       <use transform="scale(0.996264009963)" xlink:href="#CMR17-48"/>
       <use transform="translate(45.6904771171 0.0)scale(0.996264009963)" xlink:href="#CMMI12-58"/>
       <use transform="translate(72.7876542069 0.0)scale(0.996264009963)" xlink:href="#CMR17-57"/>
       <use transform="translate(118.478131324 0.0)scale(0.996264009963)" xlink:href="#CMR17-56"/>
       <use transform="translate(164.168608441 0.0)scale(0.996264009963)" xlink:href="#CMR17-53"/>
      </g>
     </g>
    </g>
    <g id="ytick_2">
     <g id="line2d_24">
      <g>
       <use style="stroke:#000000;stroke-width:0.5;" x="46.7514963418" xlink:href="#m728421d6d4" y="192.844532247"/>
      </g>
     </g>
     <g id="line2d_25">
      <g>
       <use style="stroke:#000000;stroke-width:0.5;" x="381.551496342" xlink:href="#mcb0005524f" y="192.844532247"/>
      </g>
     </g>
     <g id="text_12">
      <!-- $0.990$ -->
      <g transform="translate(7.2 196.829588287)scale(0.16 -0.16)">
       <use transform="scale(0.996264009963)" xlink:href="#CMR17-48"/>
       <use transform="translate(45.6904771171 0.0)scale(0.996264009963)" xlink:href="#CMMI12-58"/>
       <use transform="translate(72.7876542069 0.0)scale(0.996264009963)" xlink:href="#CMR17-57"/>
       <use transform="translate(118.478131324 0.0)scale(0.996264009963)" xlink:href="#CMR17-57"/>
       <use transform="translate(164.168608441 0.0)scale(0.996264009963)" xlink:href="#CMR17-48"/>
      </g>
     </g>
    </g>
    <g id="ytick_3">
     <g id="line2d_26">
      <g>
       <use style="stroke:#000000;stroke-width:0.5;" x="46.7514963418" xlink:href="#m728421d6d4" y="148.204532247"/>
      </g>
     </g>
     <g id="line2d_27">
      <g>
       <use style="stroke:#000000;stroke-width:0.5;" x="381.551496342" xlink:href="#mcb0005524f" y="148.204532247"/>
      </g>
     </g>
     <g id="text_13">
      <!-- $0.995$ -->
      <g transform="translate(7.2 152.189588287)scale(0.16 -0.16)">
       <use transform="scale(0.996264009963)" xlink:href="#CMR17-48"/>
       <use transform="translate(45.6904771171 0.0)scale(0.996264009963)" xlink:href="#CMMI12-58"/>
       <use transform="translate(72.7876542069 0.0)scale(0.996264009963)" xlink:href="#CMR17-57"/>
       <use transform="translate(118.478131324 0.0)scale(0.996264009963)" xlink:href="#CMR17-57"/>
       <use transform="translate(164.168608441 0.0)scale(0.996264009963)" xlink:href="#CMR17-53"/>
      </g>
     </g>
    </g>
    <g id="ytick_4">
     <g id="line2d_28">
      <g>
       <use style="stroke:#000000;stroke-width:0.5;" x="46.7514963418" xlink:href="#m728421d6d4" y="103.564532247"/>
      </g>
     </g>
     <g id="line2d_29">
      <g>
       <use style="stroke:#000000;stroke-width:0.5;" x="381.551496342" xlink:href="#mcb0005524f" y="103.564532247"/>
      </g>
     </g>
     <g id="text_14">
      <!-- $1.000$ -->
      <g transform="translate(7.2 107.549588287)scale(0.16 -0.16)">
       <use transform="scale(0.996264009963)" xlink:href="#CMR17-49"/>
       <use transform="translate(45.6904771171 0.0)scale(0.996264009963)" xlink:href="#CMMI12-58"/>
       <use transform="translate(72.7876542069 0.0)scale(0.996264009963)" xlink:href="#CMR17-48"/>
       <use transform="translate(118.478131324 0.0)scale(0.996264009963)" xlink:href="#CMR17-48"/>
       <use transform="translate(164.168608441 0.0)scale(0.996264009963)" xlink:href="#CMR17-48"/>
      </g>
     </g>
    </g>
    <g id="ytick_5">
     <g id="line2d_30">
      <g>
       <use style="stroke:#000000;stroke-width:0.5;" x="46.7514963418" xlink:href="#m728421d6d4" y="58.9245322472"/>
      </g>
     </g>
     <g id="line2d_31">
      <g>
       <use style="stroke:#000000;stroke-width:0.5;" x="381.551496342" xlink:href="#mcb0005524f" y="58.9245322472"/>
      </g>
     </g>
     <g id="text_15">
      <!-- $1.005$ -->
      <g transform="translate(7.2 62.9095882871)scale(0.16 -0.16)">
       <use transform="scale(0.996264009963)" xlink:href="#CMR17-49"/>
       <use transform="translate(45.6904771171 0.0)scale(0.996264009963)" xlink:href="#CMMI12-58"/>
       <use transform="translate(72.7876542069 0.0)scale(0.996264009963)" xlink:href="#CMR17-48"/>
       <use transform="translate(118.478131324 0.0)scale(0.996264009963)" xlink:href="#CMR17-48"/>
       <use transform="translate(164.168608441 0.0)scale(0.996264009963)" xlink:href="#CMR17-53"/>
      </g>
     </g>
    </g>
    <g id="ytick_6">
     <g id="line2d_32">
      <g>
       <use style="stroke:#000000;stroke-width:0.5;" x="46.7514963418" xlink:href="#m728421d6d4" y="14.2845322472"/>
      </g>
     </g>
     <g id="line2d_33">
      <g>
       <use style="stroke:#000000;stroke-width:0.5;" x="381.551496342" xlink:href="#mcb0005524f" y="14.2845322472"/>
      </g>
     </g>
     <g id="text_16">
      <!-- $1.010$ -->
      <g transform="translate(7.2 18.2695882871)scale(0.16 -0.16)">
       <use transform="scale(0.996264009963)" xlink:href="#CMR17-49"/>
       <use transform="translate(45.6904771171 0.0)scale(0.996264009963)" xlink:href="#CMMI12-58"/>
       <use transform="translate(72.7876542069 0.0)scale(0.996264009963)" xlink:href="#CMR17-48"/>
       <use transform="translate(118.478131324 0.0)scale(0.996264009963)" xlink:href="#CMR17-49"/>
       <use transform="translate(164.168608441 0.0)scale(0.996264009963)" xlink:href="#CMR17-48"/>
      </g>
     </g>
    </g>
   </g>
   <g id="legend_1">
    <g id="patch_7">
     <path d="
M248.317 93.983
L373.551 93.983
L373.551 22.2845
L248.317 22.2845
L248.317 93.983" style="fill:none;stroke:#000000;stroke-linejoin:miter;"/>
    </g>
    <g id="line2d_34">
     <path d="
M259.517 34.2845
L281.917 34.2845" style="fill:none;stroke:#0000ff;stroke-linecap:square;"/>
    </g>
    <g id="line2d_35"/>
    <g id="text_17">
     <!-- left limb -->
     <defs>
      <path d="
M15.5 61.0781
C15.5 63.2656 13.7031 65.1562 11.4062 65.1562
C9.20312 65.1562 7.29688 63.375 7.29688 61.0781
C7.29688 58.8906 9.09375 57 11.4062 57
C13.5938 57 15.5 58.7969 15.5 61.0781
M3.79688 42.2812
L3.79688 39.7031
C9.40625 39.7031 10.2031 39.0938 10.2031 34.3281
L10.2031 6.67188
C10.2031 2.875 9.79688 2.39062 3.40625 2.39062
L3.40625 -0.203125
C5.79688 0 10.0938 0 12.5938 0
C15 0 19.0938 0 21.4062 -0.203125
L21.4062 2.39062
C15.5 2.39062 15.2969 2.98438 15.2969 6.5625
L15.2969 43.375
z
" id="CMR17-105"/>
      <path d="
M15 68.6875
L3.09375 67.5938
L3.09375 65
C9 65 9.90625 64.4062 9.90625 59.6406
L9.90625 -0.203125
L11.7031 -0.203125
L14.5938 6.89062
C17.5 2.20312 21.7969 -1 27.5938 -1
C37.5938 -1 47.7031 7.8125 47.7031 21.4062
C47.7031 34.1875 38.7031 43.5938 28.5938 43.5938
C22.4062 43.5938 18 40.2969 15 36.4062
z

M15.2031 31.3125
C15.2031 33.0938 15.2031 33.4062 16.5938 35.5
C20.5 41.5156 26.0938 42 28 42
C31 42 41.2969 40.3906 41.2969 21.5
C41.2969 1.6875 29.5 0.59375 27.0938 0.59375
C24 0.59375 19.5 1.78125 16.2969 7.59375
C15.2031 9.5 15.2031 9.70312 15.2031 11.4844
z
" id="CMR17-98"/>
      <path d="
M15.0938 40
L29.0938 40
L29.0938 42.5781
L15.0938 42.5781
L15.0938 61
L13.2969 61
C13.0938 50.7031 9.59375 41.6875 1.09375 41.6875
L1.09375 40
L9.79688 40
L9.79688 12.0469
C9.79688 10.1562 9.79688 -1 21.4062 -1
C27.2969 -1 30.7031 4.78125 30.7031 12.1406
L30.7031 17.8125
L28.9062 17.8125
L28.9062 12.2344
C28.9062 5.375 26.2031 0.796875 22 0.796875
C19.0938 0.796875 15.0938 2.78125 15.0938 11.8438
z
" id="CMR17-116"/>
      <path d="
M38.0938 23
C38.5 23.4062 38.5 23.6094 38.5 24.625
C38.5 34.9688 33.0938 44 21.7031 44
C11.0938 44 2.70312 33.8906 2.70312 21.6094
C2.70312 8.60938 12.2031 -1 22.7969 -1
C34 -1 38.4062 9.46875 38.4062 11.5469
C38.4062 12.25 37.7969 12.25 37.5938 12.25
C36.9062 12.25 36.7969 12.0469 36.4062 10.875
C34.2031 4.14062 28.7031 0.796875 23.5 0.796875
C19.2031 0.796875 14.9062 3.17188 12.2031 7.5
C9.09375 12.5469 9.09375 18.375 9.09375 23
z

M9.20312 24.5
C9.90625 39.1406 17.5938 42.4062 21.5938 42.4062
C28.4062 42.4062 33 35.8906 33.0938 24.5
z
" id="CMR17-101"/>
      <path d="
M15.2969 40
L26.7031 40
L26.7031 42.5781
L15.0938 42.5781
L15.0938 54.5938
C15.0938 62.8438 19.2969 68 23.5938 68
C24.9062 68 26.4062 67.6094 27.4062 66.9062
C26.5938 66.7031 24.5 66.0156 24.5 63.5312
C24.5 60.9531 26.5 60.1562 27.9062 60.1562
C29.2969 60.1562 31.2969 60.9531 31.2969 63.5469
C31.2969 67.3125 27.7031 69.5938 23.7031 69.5938
C18 69.5938 10.2031 64.9375 10.2031 54.3906
L10.2031 42.5781
L2.20312 42.5781
L2.20312 40
L10.2031 40
L10.2031 6.67188
C10.2031 2.875 9.79688 2.39062 3.40625 2.39062
L3.40625 -0.203125
C5.79688 0 10.4062 0 13 0
C15.9062 0 21 0 23.7031 -0.203125
L23.7031 2.39062
C16.5 2.39062 15.2969 2.39062 15.2969 6.85938
z
" id="CMR17-102"/>
      <path d="
M67.5938 30.2031
C67.5938 35.1875 66.7031 43.5938 54.7969 43.5938
C48 43.5938 43.2969 39 41.5 33.5938
L41.4062 33.5938
C40.2031 41.7969 34.2969 43.5938 28.7031 43.5938
C20.7969 43.5938 16.7031 37.5625 15.2031 33.5938
L15.0938 33.5938
L15.0938 43.5938
L3.29688 42.5
L3.29688 39.9062
C9.20312 39.9062 10.0938 39.2969 10.0938 34.5
L10.0938 6.6875
C10.0938 2.875 9.70312 2.39062 3.29688 2.39062
L3.29688 -0.203125
C5.70312 0 10.0938 0 12.7031 0
C15.2969 0 19.7969 0 22.2031 -0.203125
L22.2031 2.39062
C15.7969 2.39062 15.4062 2.78125 15.4062 6.6875
L15.4062 25.9062
C15.4062 35.1094 21 42 28 42
C35.4062 42 36.2031 35.4062 36.2031 30.5938
L36.2031 6.6875
C36.2031 2.875 35.7969 2.39062 29.4062 2.39062
L29.4062 -0.203125
C31.7969 0 36.2031 0 38.7969 0
C41.4062 0 45.9062 0 48.2969 -0.203125
L48.2969 2.39062
C41.9062 2.39062 41.5 2.78125 41.5 6.6875
L41.5 25.9062
C41.5 35.1094 47.0938 42 54.0938 42
C61.5 42 62.2969 35.4062 62.2969 30.5938
L62.2969 6.6875
C62.2969 2.875 61.9062 2.39062 55.5 2.39062
L55.5 -0.203125
C57.9062 0 62.2969 0 64.9062 0
C67.5 0 72 0 74.4062 -0.203125
L74.4062 2.39062
C68 2.39062 67.5938 2.78125 67.5938 6.6875
z
" id="CMR17-109"/>
      <path d="
M15.2969 68.6875
L3.40625 67.5938
L3.40625 65
C9.29688 65 10.2031 64.4062 10.2031 59.6406
L10.2031 6.65625
C10.2031 2.875 9.79688 2.39062 3.40625 2.39062
L3.40625 -0.203125
C5.79688 0 10.2031 0 12.7031 0
C15.2969 0 19.7031 0 22.0938 -0.203125
L22.0938 2.39062
C15.7031 2.39062 15.2969 2.78125 15.2969 6.65625
z
" id="CMR17-108"/>
     </defs>
     <g transform="translate(299.516942326 39.8845322472)scale(0.16 -0.16)">
      <use transform="scale(0.996264009963)" xlink:href="#CMR17-108"/>
      <use transform="translate(24.8710584819 0.0)scale(0.996264009963)" xlink:href="#CMR17-101"/>
      <use transform="translate(65.3567189446 0.0)scale(0.996264009963)" xlink:href="#CMR17-102"/>
      <use transform="translate(92.830231359 0.0)scale(0.996264009963)" xlink:href="#CMR17-116"/>
      <use transform="translate(158.186965505 0.0)scale(0.996264009963)" xlink:href="#CMR17-108"/>
      <use transform="translate(183.058023987 0.0)scale(0.996264009963)" xlink:href="#CMR17-105"/>
      <use transform="translate(207.929082469 0.0)scale(0.996264009963)" xlink:href="#CMR17-109"/>
      <use transform="translate(282.246218405 0.0)scale(0.996264009963)" xlink:href="#CMR17-98"/>
     </g>
    </g>
    <g id="line2d_36">
     <path d="
M259.517 56.584
L281.917 56.584" style="fill:none;stroke:#008000;stroke-linecap:square;"/>
    </g>
    <g id="line2d_37"/>
    <g id="text_18">
     <!-- right limb -->
     <defs>
      <path d="
M41.5 30.2031
C41.5 35.2969 40.5 43.5938 28.7031 43.5938
C20.5 43.5938 16.5 37 15.2969 33.7031
L15.2031 33.7031
L15.2031 68.6875
L3.29688 67.5938
L3.29688 65
C9.20312 65 10.0938 64.4062 10.0938 59.6406
L10.0938 6.65625
C10.0938 2.875 9.70312 2.39062 3.29688 2.39062
L3.29688 -0.203125
C5.70312 0 10.0938 0 12.7031 0
C15.2969 0 19.7969 0 22.2031 -0.203125
L22.2031 2.39062
C15.7969 2.39062 15.4062 2.78125 15.4062 6.6875
L15.4062 25.9062
C15.4062 35.1094 21 42 28 42
C35.4062 42 36.2031 35.4062 36.2031 30.5938
L36.2031 6.6875
C36.2031 2.875 35.7969 2.39062 29.4062 2.39062
L29.4062 -0.203125
C31.7969 0 36.2031 0 38.7969 0
C41.4062 0 45.9062 0 48.2969 -0.203125
L48.2969 2.39062
C41.9062 2.39062 41.5 2.78125 41.5 6.6875
z
" id="CMR17-104"/>
      <path d="
M15 23.3906
C15 33 19.0938 42 26.5938 42
C27.2969 42 28 41.9062 28.7031 41.5938
C28.7031 41.5938 26.5 40.8906 26.5 38.3125
C26.5 35.9062 28.4062 34.9062 29.9062 34.9062
C31.0938 34.9062 33.2969 35.6094 33.2969 38.4062
C33.2969 41.6094 30.0938 43.5938 26.7031 43.5938
C19.0938 43.5938 15.7969 36.2031 14.7969 32.7031
L14.7031 32.7031
L14.7031 43.5938
L3.09375 42.5
L3.09375 39.9062
C9 39.9062 9.90625 39.2969 9.90625 34.5
L9.90625 6.6875
C9.90625 2.875 9.5 2.39062 3.09375 2.39062
L3.09375 -0.203125
C5.5 0 10.0938 0 12.7031 0
C15.5938 0 20.7031 0 23.4062 -0.203125
L23.4062 2.39062
C16.2031 2.39062 15 2.39062 15 6.875
z
" id="CMR17-114"/>
      <path d="
M11.0938 18.1875
C13 16.6875 16.2969 15 20.2969 15
C28.2031 15 35 21.2031 35 29.5
C35 32.0938 34.2031 36.0938 31.2031 39.2031
C34 42.0625 38.0938 43 40.4062 43
C40.7969 43 41.4062 43 41.9062 42.7656
C41.5 42.6719 40.5938 42.2812 40.5938 40.7344
C40.5938 39.4844 41.5 38.6094 42.7969 38.6094
C44.2969 38.6094 45.0938 39.5781 45.0938 40.8438
C45.0938 42.6719 43.5938 44.5938 40.4062 44.5938
C36.4062 44.5938 32.9062 42.7812 30.0938 40.3125
C27.0938 43.0156 23.5 44 20.2969 44
C12.4062 44 5.59375 37.7969 5.59375 29.5
C5.59375 23.7812 8.90625 20.1875 9.90625 19.1875
C6.90625 15.6875 6.90625 11.6094 6.90625 11.1094
C6.90625 8.51562 7.90625 4.71875 11.2969 2.625
C6.09375 1.32812 2 -2.64062 2 -7.59375
C2 -14.7344 11.5 -20 22.9062 -20
C33.9062 -20 43.7969 -14.9375 43.7969 -7.48438
C43.7969 6 29 6 21.2969 6
C19 6 14.9062 6 14.4062 6.10938
C11.2969 6.60938 9.20312 9.40625 9.20312 12.8906
C9.20312 13.7812 9.20312 16 11.0938 18.1875
M20.2969 16.6875
C11.5 16.6875 11.5 27.5 11.5 29.5156
C11.5 31.5 11.5 42.3125 20.2969 42.3125
C29.0938 42.3125 29.0938 31.5 29.0938 29.5156
C29.0938 27.5 29.0938 16.6875 20.2969 16.6875
M22.9062 -18.2969
C12.9062 -18.2969 6 -13.0469 6 -7.59375
C6 -4.51562 7.70312 -1.64062 9.90625 -0.0625
C12.4062 1.625 13.4062 1.625 20.2031 1.625
C28.4062 1.625 39.7969 1.625 39.7969 -7.59375
C39.7969 -13.0469 32.9062 -18.2969 22.9062 -18.2969" id="CMR17-103"/>
     </defs>
     <g transform="translate(299.516942326 62.1840084546)scale(0.16 -0.16)">
      <use transform="scale(0.996264009963)" xlink:href="#CMR17-114"/>
      <use transform="translate(35.2807677995 0.0)scale(0.996264009963)" xlink:href="#CMR17-105"/>
      <use transform="translate(60.1518262813 0.0)scale(0.996264009963)" xlink:href="#CMR17-103"/>
      <use transform="translate(105.842303398 0.0)scale(0.996264009963)" xlink:href="#CMR17-104"/>
      <use transform="translate(154.135219246 0.0)scale(0.996264009963)" xlink:href="#CMR17-116"/>
      <use transform="translate(219.491953393 0.0)scale(0.996264009963)" xlink:href="#CMR17-108"/>
      <use transform="translate(244.363011874 0.0)scale(0.996264009963)" xlink:href="#CMR17-105"/>
      <use transform="translate(269.234070356 0.0)scale(0.996264009963)" xlink:href="#CMR17-109"/>
      <use transform="translate(343.551206292 0.0)scale(0.996264009963)" xlink:href="#CMR17-98"/>
     </g>
    </g>
    <g id="line2d_38">
     <path d="
M259.517 78.8835
L281.917 78.8835" style="fill:none;stroke:#ff0000;stroke-linecap:square;"/>
    </g>
    <g id="line2d_39"/>
    <g id="text_19">
     <!-- full -->
     <defs>
      <path d="
M29.4062 42.0781
L29.4062 39.5
C35.2969 39.5 36.2031 38.8906 36.2031 34.1562
L36.2031 16.125
C36.2031 7.8125 31.7031 0.59375 24.2969 0.59375
C16.0938 0.59375 15.4062 5.4375 15.4062 10.5938
L15.4062 43.1719
L3.29688 42.0781
L3.29688 39.5
C7.29688 39.5 10 39.5 10.0938 35.5312
L10.0938 16.5312
C10.0938 9.89062 10.0938 5.64062 12.7031 2.85938
C14 1.57812 16.5 -1 23.7031 -1
C32.2031 -1 35.5 6.35938 36.2969 8.5
L36.4062 8.5
L36.4062 -0.984375
L48.2969 -0.984375
L48.2969 2
C42.4062 2 41.5 2.59375 41.5 7.39062
L41.5 43.1719
z
" id="CMR17-117"/>
     </defs>
     <g transform="translate(299.516942326 84.483484662)scale(0.16 -0.16)">
      <use transform="scale(0.996264009963)" xlink:href="#CMR17-102"/>
      <use transform="translate(27.4735124144 0.0)scale(0.996264009963)" xlink:href="#CMR17-117"/>
      <use transform="translate(78.3688821947 0.0)scale(0.996264009963)" xlink:href="#CMR17-108"/>
      <use transform="translate(103.239940677 0.0)scale(0.996264009963)" xlink:href="#CMR17-108"/>
     </g>
    </g>
   </g>
  </g>
 </g>
 <defs>
  <clipPath id="p6d93b3719f">
   <rect height="223.2" width="334.8" x="46.7514963418" y="14.2845322472"/>
  </clipPath>
 </defs>
</svg>
