<?xml version="1.0" encoding="utf-8" standalone="no"?>
<!DOCTYPE svg PUBLIC "-//W3C//DTD SVG 1.1//EN"
  "http://www.w3.org/Graphics/SVG/1.1/DTD/svg11.dtd">
<!-- Created with matplotlib (http://matplotlib.org/) -->
<svg height="280pt" version="1.1" viewBox="0 0 398 280" width="398pt" xmlns="http://www.w3.org/2000/svg" xmlns:xlink="http://www.w3.org/1999/xlink">
 <defs>
  <style type="text/css">
*{stroke-linecap:butt;stroke-linejoin:round;}
  </style>
 </defs>
 <g id="figure_1">
  <g id="patch_1">
   <path d="
M0 280.157
L398.723 280.157
L398.723 0
L0 0
L0 280.157" style="fill:none;"/>
  </g>
  <g id="axes_1">
   <g id="patch_2">
    <path d="
M46.7515 237.485
L381.551 237.485
L381.551 14.2845
L46.7515 14.2845
L46.7515 237.485" style="fill:none;"/>
   </g>
   <g id="line2d_1">
    <path clip-path="url(#p6d93b3719f)" d="
M47.6042 42.4494
L92.8847 42.7181
L118.134 43.0672
L134.061 43.4875
L144.67 43.9537
L152.622 44.4857
L159.246 45.1334
L164.544 45.869
L168.515 46.6164
L172.486 47.6158
L175.133 48.482
L177.779 49.5736
L180.425 50.9767
L181.748 51.8335
L183.07 52.8235
L184.393 53.9731
L185.715 55.3244
L187.038 56.9205
L188.36 58.8337
L189.682 61.149
L191.004 63.9904
L192.326 67.5458
L193.647 72.0555
L194.969 77.9534
L196.291 85.5981
L197.612 94.6104
L200.255 115.027
L201.576 126.224
L202.897 135.487
L204.218 138.355
L205.538 138.491
L213.461 138.44
L214.781 137.758
L216.101 135.634
L217.421 132.059
L218.74 127.087
L220.06 119.772
L221.379 107.679
L222.699 94.3474
L224.018 84.3508
L225.337 77.0019
L226.656 71.4464
L227.975 67.1194
L229.294 63.7031
L230.613 60.9406
L231.932 58.6848
L233.25 56.8141
L234.568 55.2446
L235.887 53.918
L237.205 52.7821
L239.841 50.9579
L242.477 49.5684
L245.112 48.4851
L247.747 47.624
L251.698 46.6296
L255.648 45.8849
L260.914 45.1516
L267.493 44.5053
L275.385 43.9743
L285.902 43.5091
L300.351 43.1169
L321.344 42.7978
L354.09 42.5537
L381.545 42.4509
L381.545 42.4509" style="fill:none;stroke:#0000ff;stroke-linecap:square;"/>
   </g>
   <g id="line2d_2">
    <path clip-path="url(#p6d93b3719f)" d="
M47.6042 42.4937
L87.5641 42.7766
L110.165 43.1281
L124.772 43.5426
L135.387 44.0368
L143.344 44.6043
L149.972 45.2999
L155.272 46.0951
L159.246 46.9082
L163.219 48.0029
L165.868 48.9577
L168.515 50.1682
L171.163 51.7351
L172.486 52.6981
L173.81 53.8145
L175.133 55.1179
L176.456 56.6577
L177.779 58.4859
L179.102 60.6921
L180.425 63.3762
L181.748 66.6969
L183.07 70.8791
L184.393 76.227
L185.715 83.2786
L187.038 92.7685
L189.682 119.037
L191.004 127.309
L192.326 132.698
L193.647 136.593
L194.969 139.043
L196.291 139.999
L198.933 140.102
L205.538 140.049
L206.859 138.158
L208.18 129.85
L210.821 107.483
L213.461 88.0336
L214.781 79.9308
L216.101 73.6175
L217.421 68.7981
L218.74 65.0169
L220.06 62.008
L221.379 59.5575
L222.699 57.5437
L224.018 55.8625
L225.337 54.4448
L226.656 53.2398
L227.975 52.2032
L230.613 50.5276
L233.25 49.2415
L235.887 48.2321
L238.523 47.4251
L242.477 46.4872
L246.429 45.7805
L251.698 45.0803
L258.281 44.4592
L266.178 43.9457
L276.7 43.493
L291.158 43.1091
L312.163 42.7947
L344.928 42.553
L381.545 42.4276
L381.545 42.4276" style="fill:none;stroke:#008000;stroke-linecap:square;"/>
   </g>
   <g id="line2d_3">
    <path clip-path="url(#p6d93b3719f)" d="
M47.6042 42.7585
L79.5799 43.1223
L100.862 43.5724
L115.478 44.0866
L126.099 44.656
L134.061 45.2647
L140.692 45.9587
L145.996 46.696
L151.297 47.6718
L155.272 48.6272
L159.246 49.8571
L161.895 50.8853
L164.544 52.1377
L167.192 53.6857
L169.839 55.6319
L171.163 56.7987
L172.486 58.1294
L173.81 59.6551
L175.133 61.4155
L176.456 63.4687
L177.779 65.875
L179.102 68.7374
L180.425 72.1684
L181.748 76.346
L183.07 81.5182
L184.393 88.0157
L185.715 96.4187
L187.038 107.505
L189.682 138.002
L191.004 149.115
L193.647 166.464
L196.291 183.413
L198.933 202.336
L202.897 233.405
L204.218 236.273
L205.538 236.356
L206.859 234.465
L208.18 226.157
L210.821 203.79
L213.461 184.289
L217.421 158.673
L218.74 149.92
L220.06 139.596
L222.699 109.707
L224.018 98.029
L225.337 89.2623
L226.656 82.5017
L227.975 77.1382
L229.294 72.827
L230.613 69.2838
L231.932 66.3444
L233.25 63.8711
L234.568 61.7673
L235.887 59.9656
L237.205 58.4042
L238.523 57.0466
L241.159 54.8033
L243.794 53.0397
L246.429 51.6265
L249.064 50.4757
L251.698 49.5254
L255.648 48.3815
L259.598 47.4876
L264.862 46.5695
L270.125 45.872
L276.7 45.2123
L284.588 44.6312
L295.098 44.0856
L309.539 43.5917
L327.899 43.202
L354.09 42.8814
L381.545 42.694
L381.545 42.694" style="fill:none;stroke:#ff0000;stroke-linecap:square;"/>
   </g>
   <g id="line2d_4">
    <path clip-path="url(#p6d93b3719f)" d="
M47.6042 42.3943
L90.2246 42.6439
L111.493 42.9597
L124.772 43.3492
L134.061 43.8232
L140.692 44.3627
L145.996 45.0116
L149.972 45.7102
L152.622 46.3316
L155.272 47.1353
L157.922 48.2022
L160.571 49.6646
L161.895 50.6089
L163.219 51.7538
L164.544 53.1574
L165.868 54.9118
L167.192 57.1546
L168.515 59.9772
L169.839 63.2523
L171.163 66.8524
L172.486 70.8625
L173.81 75.3806
L175.133 80.5139
L177.779 92.3726
L179.102 95.3941
L180.425 95.6897
L185.715 95.6557
L187.038 95.3899
L188.36 94.6854
L189.682 93.5991
L191.004 92.1867
L192.326 90.4319
L193.647 88.2803
L194.969 85.4059
L196.291 80.2325
L197.612 72.7432
L198.933 66.6884
L200.255 62.2779
L201.576 58.9813
L202.897 56.4343
L204.218 54.4375
L205.538 52.8326
L206.859 51.5277
L208.18 50.4509
L209.5 49.55
L212.141 48.1432
L214.781 47.106
L217.421 46.3188
L221.379 45.4505
L225.337 44.8302
L230.613 44.2448
L237.205 43.7509
L246.429 43.3107
L259.598 42.9444
L279.33 42.6572
L310.851 42.4495
L371.092 42.3108
L381.545 42.2999
L381.545 42.2999" style="fill:none;stroke:#00bfbf;stroke-linecap:square;"/>
   </g>
   <g id="line2d_5">
    <path clip-path="url(#p6d93b3719f)" d="
M47.6042 42.288
L116.806 42.4894
L144.67 42.7589
L160.571 43.1033
L171.163 43.5349
L179.102 44.0925
L184.393 44.6797
L188.36 45.318
L191.004 45.8897
L193.647 46.6339
L196.291 47.6282
L198.933 48.9994
L200.255 49.888
L201.576 50.9668
L202.897 52.2868
L204.218 53.9369
L205.538 56.0273
L206.859 58.7392
L208.18 62.3566
L209.5 67.3017
L210.821 73.6369
L212.141 78.4349
L213.461 80.9971
L214.781 82.7927
L216.101 84.1272
L217.421 85.0512
L218.74 85.5733
L220.06 85.7348
L226.656 85.7503
L227.975 85.6126
L229.294 83.5198
L233.25 68.912
L234.568 64.8728
L235.887 61.3024
L237.205 58.1642
L238.523 55.5621
L239.841 53.524
L241.159 51.9324
L242.477 50.6611
L243.794 49.6264
L245.112 48.775
L247.747 47.4617
L250.381 46.5084
L253.015 45.7937
L256.965 45.0152
L260.914 44.4646
L266.178 43.9499
L274.07 43.4526
L284.588 43.0605
L299.038 42.7617
L322.655 42.5224
L364.555 42.3549
L381.545 42.3223
L381.545 42.3223" style="fill:none;stroke:#bf00bf;stroke-linecap:square;"/>
   </g>
   <g id="line2d_6">
    <path clip-path="url(#p6d93b3719f)" d="
M47.6042 43.2452
L48.9378 43.3162
L50.2712 43.3476
L54.2709 43.1963
L59.6024 43.3425
L62.2675 43.4118
L70.2601 43.2078
L74.255 43.4545
L79.5799 43.6491
L83.5725 43.9394
L84.9031 43.7387
L88.8944 42.8534
L90.2246 42.7732
L91.5547 42.9391
L95.5444 43.9595
L98.2036 44.1397
L103.521 43.9454
L107.508 43.9711
L115.478 44.1989
L118.134 44.2482
L120.79 44.2885
L128.754 44.8259
L139.366 45.5223
L142.018 45.9312
L143.344 45.9781
L148.647 46.6917
L155.272 48.2394
L157.922 49.1486
L161.895 50.9434
L164.544 51.6145
L165.868 52.3316
L167.192 53.54
L168.515 55.3088
L169.839 57.6242
L175.133 68.7561
L177.779 74.8665
L180.425 82.0153
L184.393 93.7529
L187.038 101.928
L189.682 109.178
L191.004 112.104
L192.326 114.72
L193.647 116.568
L194.969 117.892
L196.291 118.999
L197.612 119.614
L198.933 119.607
L201.576 119.225
L205.538 119.594
L206.859 118.766
L208.18 115.601
L212.141 102.081
L213.461 99.2221
L214.781 97.2521
L216.101 96.137
L217.421 95.3915
L218.74 94.3335
L220.06 92.8184
L221.379 90.7377
L222.699 88.3651
L224.018 85.448
L230.613 69.0147
L233.25 63.3216
L234.568 60.8384
L235.887 58.666
L237.205 56.7246
L238.523 55.1176
L239.841 53.7974
L241.159 52.7503
L242.477 51.8601
L245.112 50.4471
L247.747 49.2072
L250.381 48.2597
L253.015 47.5458
L256.965 46.6931
L260.914 46.2579
L264.862 45.8978
L267.493 45.5754
L272.755 45.0697
L275.385 44.8584
L278.015 44.7752
L291.158 44.1871
L293.785 43.9246
L295.098 43.9328
L297.725 44.1982
L300.351 44.5808
L301.664 44.5763
L302.976 44.3628
L306.914 43.1633
L308.226 42.738
L309.539 42.5693
L310.851 42.6808
L316.098 44.1939
L317.41 44.3081
L318.721 44.186
L321.344 43.5874
L322.655 43.3734
L323.966 43.3371
L325.277 43.4651
L326.588 43.7351
L327.899 44.1196
L329.209 44.3221
L330.52 44.2435
L331.83 43.8085
L334.451 42.4051
L335.761 41.9611
L337.071 41.9859
L338.38 42.4476
L341 43.6241
L342.309 43.9565
L343.619 43.9723
L347.546 43.4663
L363.247 43.1789
L367.17 42.8535
L368.477 42.8318
L375.012 43.3136
L378.932 43.3278
L381.545 43.2425
L381.545 43.2425" style="fill:none;stroke:#bfbf00;stroke-linecap:square;"/>
   </g>
   <g id="patch_3">
    <path d="
M46.7515 14.2845
L381.551 14.2845" style="fill:none;stroke:#000000;stroke-linecap:square;stroke-linejoin:miter;"/>
   </g>
   <g id="patch_4">
    <path d="
M381.551 237.485
L381.551 14.2845" style="fill:none;stroke:#000000;stroke-linecap:square;stroke-linejoin:miter;"/>
   </g>
   <g id="patch_5">
    <path d="
M46.7515 237.485
L381.551 237.485" style="fill:none;stroke:#000000;stroke-linecap:square;stroke-linejoin:miter;"/>
   </g>
   <g id="patch_6">
    <path d="
M46.7515 237.485
L46.7515 14.2845" style="fill:none;stroke:#000000;stroke-linecap:square;stroke-linejoin:miter;"/>
   </g>
   <g id="matplotlib.axis_1">
    <g id="xtick_1">
     <g id="line2d_7">
      <defs>
       <path d="
M0 0
L0 -7" id="m21d9c6f116" style="stroke:#000000;stroke-width:0.5;"/>
      </defs>
      <g>
       <use style="stroke:#000000;stroke-width:0.5;" x="46.7514963418" xlink:href="#m21d9c6f116" y="237.484532247"/>
      </g>
     </g>
     <g id="line2d_8">
      <defs>
       <path d="
M0 0
L0 7" id="m949ece7675" style="stroke:#000000;stroke-width:0.5;"/>
      </defs>
      <g>
       <use style="stroke:#000000;stroke-width:0.5;" x="46.7514963418" xlink:href="#m949ece7675" y="14.2845322472"/>
      </g>
     </g>
     <g id="text_1">
      <!-- $0.0$ -->
      <defs>
       <path d="
M42 31.6406
C42 37.75 41.9062 48.125 37.7031 56.1094
C34 63.1094 28.0938 65.5938 22.9062 65.5938
C18.0938 65.5938 12 63.4062 8.20312 56.2031
C4.20312 48.7188 3.79688 39.4375 3.79688 31.6406
C3.79688 25.9531 3.90625 17.2812 7 9.67188
C11.2969 -0.609375 19 -2 22.9062 -2
C27.5 -2 34.5 -0.109375 38.5938 9.375
C41.5938 16.2812 42 24.3594 42 31.6406
M22.9062 -0.40625
C16.5 -0.40625 12.7031 5.07812 11.2969 12.6875
C10.2031 18.5625 10.2031 27.1562 10.2031 32.75
C10.2031 40.4375 10.2031 46.8281 11.5 52.9219
C13.4062 61.3906 19 64 22.9062 64
C27 64 32.2969 61.2969 34.2031 53.125
C35.5 47.4375 35.5938 40.7344 35.5938 32.75
C35.5938 26.25 35.5938 18.2656 34.4062 12.375
C32.2969 1.48438 26.4062 -0.40625 22.9062 -0.40625" id="CMR17-48"/>
       <path d="
M18.4062 4.79688
C18.4062 7.6875 16 9.67188 13.5938 9.67188
C10.7031 9.67188 8.70312 7.28125 8.70312 4.89062
C8.70312 2 11.0938 0 13.5 0
C16.4062 0 18.4062 2.39062 18.4062 4.79688" id="CMMI12-58"/>
      </defs>
      <g transform="translate(36.7797351728 252.554120534)scale(0.16 -0.16)">
       <use transform="scale(0.996264009963)" xlink:href="#CMR17-48"/>
       <use transform="translate(45.6904771171 0.0)scale(0.996264009963)" xlink:href="#CMMI12-58"/>
       <use transform="translate(72.7876542069 0.0)scale(0.996264009963)" xlink:href="#CMR17-48"/>
      </g>
     </g>
    </g>
    <g id="xtick_2">
     <g id="line2d_9">
      <g>
       <use style="stroke:#000000;stroke-width:0.5;" x="88.6014963418" xlink:href="#m21d9c6f116" y="237.484532247"/>
      </g>
     </g>
     <g id="line2d_10">
      <g>
       <use style="stroke:#000000;stroke-width:0.5;" x="88.6014963418" xlink:href="#m949ece7675" y="14.2845322472"/>
      </g>
     </g>
     <g id="text_2">
      <!-- $0.5$ -->
      <defs>
       <path d="
M11.4062 57.6875
C12.4062 57.2812 16.5 56 20.7031 56
C30 56 35.0938 61.0156 38 63.9219
C38 64.7344 38 65.25 37.4062 65.25
C37.2969 65.25 37.0938 65.25 36.2969 64.8281
C32.7969 63.3125 28.7031 62.0781 23.7031 62.0781
C20.7031 62.0781 16.2031 62.5 11.2969 64.7344
C10.2031 65.25 10 65.25 9.90625 65.25
C9.40625 65.25 9.29688 65.1406 9.29688 63.1562
L9.29688 34.2812
C9.29688 32.5 9.29688 32 10.2969 32
C10.7969 32 11 32.2031 11.5 32.9062
C14.7031 37.4844 19.0938 39.4062 24.0938 39.4062
C27.5938 39.4062 35.0938 37.2188 35.0938 20.1406
C35.0938 16.9531 35.0938 11.1719 32.0938 6.57812
C29.5938 2.48438 25.7031 0.390625 21.4062 0.390625
C14.7969 0.390625 8.09375 5 6.29688 12.7188
C6.70312 12.6094 7.5 12.4219 7.90625 12.4219
C9.20312 12.4219 11.7031 13.125 11.7031 16.2188
C11.7031 18.9062 9.79688 20 7.90625 20
C5.59375 20 4.09375 18.5938 4.09375 15.7969
C4.09375 7.09375 11 -2 21.5938 -2
C31.9062 -2 41.7031 6.875 41.7031 19.75
C41.7031 31.7188 33.9062 41 24.2031 41
C19.0938 41 14.7969 39.0938 11.4062 35.4531
z
" id="CMR17-53"/>
      </defs>
      <g transform="translate(78.6297351728 252.554120534)scale(0.16 -0.16)">
       <use transform="scale(0.996264009963)" xlink:href="#CMR17-48"/>
       <use transform="translate(45.6904771171 0.0)scale(0.996264009963)" xlink:href="#CMMI12-58"/>
       <use transform="translate(72.7876542069 0.0)scale(0.996264009963)" xlink:href="#CMR17-53"/>
      </g>
     </g>
    </g>
    <g id="xtick_3">
     <g id="line2d_11">
      <g>
       <use style="stroke:#000000;stroke-width:0.5;" x="130.451496342" xlink:href="#m21d9c6f116" y="237.484532247"/>
      </g>
     </g>
     <g id="line2d_12">
      <g>
       <use style="stroke:#000000;stroke-width:0.5;" x="130.451496342" xlink:href="#m949ece7675" y="14.2845322472"/>
      </g>
     </g>
     <g id="text_3">
      <!-- $1.0$ -->
      <defs>
       <path d="
M26.5938 63.3125
C26.5938 65.4062 26.5 65.5 25.0938 65.5
C21.2031 61.1875 15.2969 59.7969 9.70312 59.7969
C9.40625 59.7969 8.90625 59.7969 8.79688 59.6094
C8.70312 59.3906 8.70312 59.1719 8.70312 57
C11.7969 57 17 57.5938 21 59.9844
L21 7.20312
C21 3.6875 20.7969 2.5 12.2031 2.5
L9.20312 2.5
L9.20312 0
C14 0 19 0 23.7969 0
C28.5938 0 33.5938 0 38.4062 0
L38.4062 2.5
L35.4062 2.5
C26.7969 2.5 26.5938 3.59375 26.5938 7.15625
z
" id="CMR17-49"/>
      </defs>
      <g transform="translate(120.479735173 252.554120534)scale(0.16 -0.16)">
       <use transform="scale(0.996264009963)" xlink:href="#CMR17-49"/>
       <use transform="translate(45.6904771171 0.0)scale(0.996264009963)" xlink:href="#CMMI12-58"/>
       <use transform="translate(72.7876542069 0.0)scale(0.996264009963)" xlink:href="#CMR17-48"/>
      </g>
     </g>
    </g>
    <g id="xtick_4">
     <g id="line2d_13">
      <g>
       <use style="stroke:#000000;stroke-width:0.5;" x="172.301496342" xlink:href="#m21d9c6f116" y="237.484532247"/>
      </g>
     </g>
     <g id="line2d_14">
      <g>
       <use style="stroke:#000000;stroke-width:0.5;" x="172.301496342" xlink:href="#m949ece7675" y="14.2845322472"/>
      </g>
     </g>
     <g id="text_4">
      <!-- $1.5$ -->
      <g transform="translate(162.329735173 252.554120534)scale(0.16 -0.16)">
       <use transform="scale(0.996264009963)" xlink:href="#CMR17-49"/>
       <use transform="translate(45.6904771171 0.0)scale(0.996264009963)" xlink:href="#CMMI12-58"/>
       <use transform="translate(72.7876542069 0.0)scale(0.996264009963)" xlink:href="#CMR17-53"/>
      </g>
     </g>
    </g>
    <g id="xtick_5">
     <g id="line2d_15">
      <g>
       <use style="stroke:#000000;stroke-width:0.5;" x="214.151496342" xlink:href="#m21d9c6f116" y="237.484532247"/>
      </g>
     </g>
     <g id="line2d_16">
      <g>
       <use style="stroke:#000000;stroke-width:0.5;" x="214.151496342" xlink:href="#m949ece7675" y="14.2845322472"/>
      </g>
     </g>
     <g id="text_5">
      <!-- $2.0$ -->
      <defs>
       <path d="
M41.7031 15.4531
L39.9062 15.4531
C38.9062 8.375 38.0938 7.17188 37.7031 6.5625
C37.2031 5.76562 30 5.76562 28.5938 5.76562
L9.40625 5.76562
C13 9.67188 20 16.75 28.5 24.9531
C34.5938 30.7344 41.7031 37.5312 41.7031 47.4219
C41.7031 59.2188 32.2969 66 21.7969 66
C10.7969 66 4.09375 56.3125 4.09375 47.3438
C4.09375 43.4375 7 42.9375 8.20312 42.9375
C9.20312 42.9375 12.2031 43.5469 12.2031 47.0312
C12.2031 50.1094 9.59375 51 8.20312 51
C7.59375 51 7 50.9062 6.59375 50.7031
C8.5 59.2188 14.2969 63.4062 20.4062 63.4062
C29.0938 63.4062 34.7969 56.5156 34.7969 47.4219
C34.7969 38.7344 29.7031 31.25 24 24.75
L4.09375 2.28125
L4.09375 0
L39.2969 0
z
" id="CMR17-50"/>
      </defs>
      <g transform="translate(204.179735173 252.554120534)scale(0.16 -0.16)">
       <use transform="scale(0.996264009963)" xlink:href="#CMR17-50"/>
       <use transform="translate(45.6904771171 0.0)scale(0.996264009963)" xlink:href="#CMMI12-58"/>
       <use transform="translate(72.7876542069 0.0)scale(0.996264009963)" xlink:href="#CMR17-48"/>
      </g>
     </g>
    </g>
    <g id="xtick_6">
     <g id="line2d_17">
      <g>
       <use style="stroke:#000000;stroke-width:0.5;" x="256.001496342" xlink:href="#m21d9c6f116" y="237.484532247"/>
      </g>
     </g>
     <g id="line2d_18">
      <g>
       <use style="stroke:#000000;stroke-width:0.5;" x="256.001496342" xlink:href="#m949ece7675" y="14.2845322472"/>
      </g>
     </g>
     <g id="text_6">
      <!-- $2.5$ -->
      <g transform="translate(246.029735173 252.554120534)scale(0.16 -0.16)">
       <use transform="scale(0.996264009963)" xlink:href="#CMR17-50"/>
       <use transform="translate(45.6904771171 0.0)scale(0.996264009963)" xlink:href="#CMMI12-58"/>
       <use transform="translate(72.7876542069 0.0)scale(0.996264009963)" xlink:href="#CMR17-53"/>
      </g>
     </g>
    </g>
    <g id="xtick_7">
     <g id="line2d_19">
      <g>
       <use style="stroke:#000000;stroke-width:0.5;" x="297.851496342" xlink:href="#m21d9c6f116" y="237.484532247"/>
      </g>
     </g>
     <g id="line2d_20">
      <g>
       <use style="stroke:#000000;stroke-width:0.5;" x="297.851496342" xlink:href="#m949ece7675" y="14.2845322472"/>
      </g>
     </g>
     <g id="text_7">
      <!-- $3.0$ -->
      <defs>
       <path d="
M22.0938 33.7031
C31 33.7031 34.9062 25.9688 34.9062 17.0312
C34.9062 5 28.5 0.390625 22.7031 0.390625
C17.4062 0.390625 8.79688 3.03125 6.09375 10.8281
C6.59375 10.625 7.09375 10.625 7.59375 10.625
C10 10.625 11.7969 12.2188 11.7969 14.8125
C11.7969 17.7031 9.59375 19 7.59375 19
C5.90625 19 3.29688 18.2031 3.29688 14.4688
C3.29688 5.23438 12.2969 -2 22.9062 -2
C34 -2 42.5 6.71875 42.5 16.9531
C42.5 26.6719 34.5 33.6875 25 34.7969
C32.5938 36.375 39.9062 43.0625 39.9062 52.0156
C39.9062 59.6875 32 65.2969 23 65.2969
C13.9062 65.2969 5.90625 59.8281 5.90625 52.0156
C5.90625 48.5938 8.5 48 9.79688 48
C11.9062 48 13.7031 49.2969 13.7031 51.8906
C13.7031 54.4688 11.9062 55.7656 9.79688 55.7656
C9.40625 55.7656 8.90625 55.7656 8.5 55.5625
C11.4062 61.8594 19.2969 63 22.7969 63
C26.2969 63 32.9062 61.3281 32.9062 51.875
C32.9062 49.1094 32.5 44.1875 29.0938 39.8438
C26.0938 36 22.7031 36 19.4062 35.5938
C18.9062 35.5938 16.5938 35.5938 16.2031 35.5938
C15.5 35.4844 15.0938 35.3906 15.0938 34.5938
C15.0938 33.8125 15.2031 33.7031 17.2031 33.7031
z
" id="CMR17-51"/>
      </defs>
      <g transform="translate(287.879735173 252.554120534)scale(0.16 -0.16)">
       <use transform="scale(0.996264009963)" xlink:href="#CMR17-51"/>
       <use transform="translate(45.6904771171 0.0)scale(0.996264009963)" xlink:href="#CMMI12-58"/>
       <use transform="translate(72.7876542069 0.0)scale(0.996264009963)" xlink:href="#CMR17-48"/>
      </g>
     </g>
    </g>
    <g id="xtick_8">
     <g id="line2d_21">
      <g>
       <use style="stroke:#000000;stroke-width:0.5;" x="339.701496342" xlink:href="#m21d9c6f116" y="237.484532247"/>
      </g>
     </g>
     <g id="line2d_22">
      <g>
       <use style="stroke:#000000;stroke-width:0.5;" x="339.701496342" xlink:href="#m949ece7675" y="14.2845322472"/>
      </g>
     </g>
     <g id="text_8">
      <!-- $3.5$ -->
      <g transform="translate(329.729735173 252.554120534)scale(0.16 -0.16)">
       <use transform="scale(0.996264009963)" xlink:href="#CMR17-51"/>
       <use transform="translate(45.6904771171 0.0)scale(0.996264009963)" xlink:href="#CMMI12-58"/>
       <use transform="translate(72.7876542069 0.0)scale(0.996264009963)" xlink:href="#CMR17-53"/>
      </g>
     </g>
    </g>
    <g id="xtick_9">
     <g id="line2d_23">
      <g>
       <use style="stroke:#000000;stroke-width:0.5;" x="381.551496342" xlink:href="#m21d9c6f116" y="237.484532247"/>
      </g>
     </g>
     <g id="line2d_24">
      <g>
       <use style="stroke:#000000;stroke-width:0.5;" x="381.551496342" xlink:href="#m949ece7675" y="14.2845322472"/>
      </g>
     </g>
     <g id="text_9">
      <!-- $4.0$ -->
      <defs>
       <path d="
M33.5938 64.3281
C33.5938 66.4062 33.5 66.5 31.7031 66.5
L2 19.5938
L2 17
L27.7969 17
L27.7969 7.14062
C27.7969 3.5 27.5938 2.5 20.5938 2.5
L18.7031 2.5
L18.7031 0
C21.9062 0 27.2969 0 30.7031 0
C34.0938 0 39.5 0 42.7031 0
L42.7031 2.5
L40.7969 2.5
C33.7969 2.5 33.5938 3.5 33.5938 7.14062
L33.5938 17
L43.7969 17
L43.7969 19.5938
L33.5938 19.5938
z

M28.0938 57.7656
L28.0938 19.5938
L4 19.5938
z
" id="CMR17-52"/>
      </defs>
      <g transform="translate(371.579735173 252.554120534)scale(0.16 -0.16)">
       <use transform="scale(0.996264009963)" xlink:href="#CMR17-52"/>
       <use transform="translate(45.6904771171 0.0)scale(0.996264009963)" xlink:href="#CMMI12-58"/>
       <use transform="translate(72.7876542069 0.0)scale(0.996264009963)" xlink:href="#CMR17-48"/>
      </g>
     </g>
    </g>
    <g id="text_10">
     <!-- $+5.888{\times}10^{3}$ -->
     <defs>
      <path d="
M37.7031 23.5156
L64.2031 23.5156
C65.5938 23.5156 67.2969 23.5156 67.2969 25.2031
C67.2969 27 65.7031 27 64.2031 27
L37.7031 27
L37.7031 53.3281
C37.7031 54.7188 37.7031 56.4219 36 56.4219
C34.2031 56.4219 34.2031 54.8281 34.2031 53.3281
L34.2031 27
L7.70312 27
C6.29688 27 4.59375 27 4.59375 25.3125
C4.59375 23.5156 6.20312 23.5156 7.70312 23.5156
L34.2031 23.5156
L34.2031 -2.90625
C34.2031 -4.29688 34.2031 -6 35.9062 -6
C37.7031 -6 37.7031 -4.40625 37.7031 -2.90625
z
" id="CMR17-43"/>
      <path d="
M38.9062 27.8906
L18.9062 47.7969
C17.7031 49 17.5 49.1875 16.7031 49.1875
C15.7031 49.1875 14.7031 48.2969 14.7031 47.1875
C14.7031 46.5 14.9062 46.2969 16 45.1875
L36 25.0938
L16 5
C14.9062 3.89062 14.7031 3.6875 14.7031 3
C14.7031 1.89062 15.7031 1 16.7031 1
C17.5 1 17.7031 1.1875 18.9062 2.39062
L38.7969 22.2969
L59.5 1.59375
C59.7031 1.5 60.4062 1 61 1
C62.2031 1 63 1.89062 63 3
C63 3.1875 63 3.59375 62.7031 4.09375
C62.5938 4.29688 46.7031 20 41.7031 25.0938
L60 43.3906
C60.5 44 62 45.2969 62.5 45.8906
C62.5938 46.0938 63 46.5 63 47.1875
C63 48.2969 62.2031 49.1875 61 49.1875
C60.2031 49.1875 59.7969 48.7969 58.7031 47.6875
z
" id="CMSY10-2"/>
      <path d="
M27.2031 35.375
C33.5 38.5625 39.9062 43.3281 39.9062 50.9844
C39.9062 60.0312 31.0938 65.2969 23 65.2969
C13.9062 65.2969 5.90625 58.7344 5.90625 49.6875
C5.90625 47.2031 6.5 42.9219 10.4062 39.1406
C11.4062 38.1562 15.5938 35.1719 18.2969 33.2812
C13.7969 30.9844 3.29688 25.5312 3.29688 14.5938
C3.29688 4.35938 13.0938 -2 22.7969 -2
C33.5 -2 42.5 5.65625 42.5 15.7969
C42.5 24.8438 36.4062 29.0312 32.4062 31.7031
z

M14.0938 44.125
C13.2969 44.625 9.29688 47.7031 9.29688 52.375
C9.29688 58.4375 15.5938 63 22.7969 63
C30.7031 63 36.5 57.4531 36.5 50.9844
C36.5 41.7344 26.0938 36.4688 25.5938 36.4688
C25.5 36.4688 25.4062 36.4688 24.5938 37.0781
z

M32.5 23.7344
C34 22.6406 38.7969 19.375 38.7969 13.2969
C38.7969 5.95312 31.4062 0.390625 23 0.390625
C13.9062 0.390625 7 6.84375 7 14.6875
C7 22.5469 13.0938 29.0938 20 32.1875
z
" id="CMR17-56"/>
     </defs>
     <g transform="translate(300.275425285 269.857842417)scale(0.16 -0.16)">
      <use transform="scale(0.996264009963)" xlink:href="#CMR17-43"/>
      <use transform="translate(71.7147884155 0.0)scale(0.996264009963)" xlink:href="#CMR17-53"/>
      <use transform="translate(117.405265533 0.0)scale(0.996264009963)" xlink:href="#CMMI12-58"/>
      <use transform="translate(144.502442622 0.0)scale(0.996264009963)" xlink:href="#CMR17-56"/>
      <use transform="translate(190.192919739 0.0)scale(0.996264009963)" xlink:href="#CMR17-56"/>
      <use transform="translate(235.883396857 0.0)scale(0.996264009963)" xlink:href="#CMR17-56"/>
      <use transform="translate(281.573873974 0.0)scale(0.996264009963)" xlink:href="#CMSY10-2"/>
      <use transform="translate(359.061341624 0.0)scale(0.996264009963)" xlink:href="#CMR17-49"/>
      <use transform="translate(404.751818741 0.0)scale(0.996264009963)" xlink:href="#CMR17-48"/>
      <use transform="translate(450.442295858 36.1536389419)scale(0.697381766617)" xlink:href="#CMR17-51"/>
     </g>
    </g>
   </g>
   <g id="matplotlib.axis_2">
    <g id="ytick_1">
     <g id="line2d_25">
      <defs>
       <path d="
M0 0
L4 0" id="m728421d6d4" style="stroke:#000000;stroke-width:0.5;"/>
      </defs>
      <g>
       <use style="stroke:#000000;stroke-width:0.5;" x="46.7514963418" xlink:href="#m728421d6d4" y="237.484532247"/>
      </g>
     </g>
     <g id="line2d_26">
      <defs>
       <path d="
M0 0
L-4 0" id="mcb0005524f" style="stroke:#000000;stroke-width:0.5;"/>
      </defs>
      <g>
       <use style="stroke:#000000;stroke-width:0.5;" x="381.551496342" xlink:href="#mcb0005524f" y="237.484532247"/>
      </g>
     </g>
     <g id="text_11">
      <!-- $0.986$ -->
      <defs>
       <path d="
M10.5938 34
C10.5938 57.6562 21.7969 63 28.2969 63
C30.4062 63 35.5 62.6406 37.5 59
C35.9062 59 32.9062 59 32.9062 55.5156
C32.9062 52.8281 35.0938 51.9219 36.5 51.9219
C37.4062 51.9219 40.0938 52.3125 40.0938 55.625
C40.0938 61.7812 35.0938 65.2969 28.2031 65.2969
C16.2969 65.2969 3.79688 52.9688 3.79688 31
C3.79688 3.95312 15.0938 -2 23.0938 -2
C32.7969 -2 42 6.67188 42 20.0469
C42 32.5156 33.9062 41.5938 23.7031 41.5938
C17.5938 41.5938 13.0938 37.6094 10.5938 30.625
z

M23.0938 0.390625
C10.7969 0.390625 10.7969 18.75 10.7969 22.4375
C10.7969 29.625 14.2031 40 23.5 40
C25.2031 40 30.0938 40 33.4062 33.125
C35.2031 29.2188 35.2031 25.1406 35.2031 20.1406
C35.2031 14.75 35.2031 10.7812 33.0938 6.78125
C30.9062 2.67188 27.7031 0.390625 23.0938 0.390625" id="CMR17-54"/>
       <path d="
M35.2031 29.125
C35.2031 7.25 26.0938 0.484375 18.5938 0.484375
C16.2969 0.484375 10.7031 0.484375 8.40625 4.59375
C11 4.1875 12.9062 5.57812 12.9062 8.09375
C12.9062 10.8125 10.7031 11.7031 9.29688 11.7031
C8.40625 11.7031 5.70312 11.2969 5.70312 7.90625
C5.70312 1.10938 11.5938 -2 18.7969 -2
C30.2969 -2 42 10.5312 42 32.3906
C42 59.6406 30.7969 65.2969 23.2031 65.2969
C13.2969 65.2969 3.79688 56.6875 3.79688 43.4062
C3.79688 31.1094 11.9062 22 22.0938 22
C30.5 22 34.2031 29.7344 35.2031 33
z

M22.2969 23.5938
C19.5938 23.5938 15.7969 24.0938 12.7031 30.0312
C10.5938 33.8906 10.5938 38.4531 10.5938 43.2969
C10.5938 49.1562 10.5938 53.2031 13.4062 57.5625
C14.7969 59.6406 17.4062 63 23.2031 63
C35 63 35 45.0781 35 41.125
C35 34.0938 31.7969 23.5938 22.2969 23.5938" id="CMR17-57"/>
      </defs>
      <g transform="translate(7.2 241.469588287)scale(0.16 -0.16)">
       <use transform="scale(0.996264009963)" xlink:href="#CMR17-48"/>
       <use transform="translate(45.6904771171 0.0)scale(0.996264009963)" xlink:href="#CMMI12-58"/>
       <use transform="translate(72.7876542069 0.0)scale(0.996264009963)" xlink:href="#CMR17-57"/>
       <use transform="translate(118.478131324 0.0)scale(0.996264009963)" xlink:href="#CMR17-56"/>
       <use transform="translate(164.168608441 0.0)scale(0.996264009963)" xlink:href="#CMR17-54"/>
      </g>
     </g>
    </g>
    <g id="ytick_2">
     <g id="line2d_27">
      <g>
       <use style="stroke:#000000;stroke-width:0.5;" x="46.7514963418" xlink:href="#m728421d6d4" y="209.584532247"/>
      </g>
     </g>
     <g id="line2d_28">
      <g>
       <use style="stroke:#000000;stroke-width:0.5;" x="381.551496342" xlink:href="#mcb0005524f" y="209.584532247"/>
      </g>
     </g>
     <g id="text_12">
      <!-- $0.988$ -->
      <g transform="translate(7.2 213.569588287)scale(0.16 -0.16)">
       <use transform="scale(0.996264009963)" xlink:href="#CMR17-48"/>
       <use transform="translate(45.6904771171 0.0)scale(0.996264009963)" xlink:href="#CMMI12-58"/>
       <use transform="translate(72.7876542069 0.0)scale(0.996264009963)" xlink:href="#CMR17-57"/>
       <use transform="translate(118.478131324 0.0)scale(0.996264009963)" xlink:href="#CMR17-56"/>
       <use transform="translate(164.168608441 0.0)scale(0.996264009963)" xlink:href="#CMR17-56"/>
      </g>
     </g>
    </g>
    <g id="ytick_3">
     <g id="line2d_29">
      <g>
       <use style="stroke:#000000;stroke-width:0.5;" x="46.7514963418" xlink:href="#m728421d6d4" y="181.684532247"/>
      </g>
     </g>
     <g id="line2d_30">
      <g>
       <use style="stroke:#000000;stroke-width:0.5;" x="381.551496342" xlink:href="#mcb0005524f" y="181.684532247"/>
      </g>
     </g>
     <g id="text_13">
      <!-- $0.990$ -->
      <g transform="translate(7.2 185.669588287)scale(0.16 -0.16)">
       <use transform="scale(0.996264009963)" xlink:href="#CMR17-48"/>
       <use transform="translate(45.6904771171 0.0)scale(0.996264009963)" xlink:href="#CMMI12-58"/>
       <use transform="translate(72.7876542069 0.0)scale(0.996264009963)" xlink:href="#CMR17-57"/>
       <use transform="translate(118.478131324 0.0)scale(0.996264009963)" xlink:href="#CMR17-57"/>
       <use transform="translate(164.168608441 0.0)scale(0.996264009963)" xlink:href="#CMR17-48"/>
      </g>
     </g>
    </g>
    <g id="ytick_4">
     <g id="line2d_31">
      <g>
       <use style="stroke:#000000;stroke-width:0.5;" x="46.7514963418" xlink:href="#m728421d6d4" y="153.784532247"/>
      </g>
     </g>
     <g id="line2d_32">
      <g>
       <use style="stroke:#000000;stroke-width:0.5;" x="381.551496342" xlink:href="#mcb0005524f" y="153.784532247"/>
      </g>
     </g>
     <g id="text_14">
      <!-- $0.992$ -->
      <g transform="translate(7.2 157.769588287)scale(0.16 -0.16)">
       <use transform="scale(0.996264009963)" xlink:href="#CMR17-48"/>
       <use transform="translate(45.6904771171 0.0)scale(0.996264009963)" xlink:href="#CMMI12-58"/>
       <use transform="translate(72.7876542069 0.0)scale(0.996264009963)" xlink:href="#CMR17-57"/>
       <use transform="translate(118.478131324 0.0)scale(0.996264009963)" xlink:href="#CMR17-57"/>
       <use transform="translate(164.168608441 0.0)scale(0.996264009963)" xlink:href="#CMR17-50"/>
      </g>
     </g>
    </g>
    <g id="ytick_5">
     <g id="line2d_33">
      <g>
       <use style="stroke:#000000;stroke-width:0.5;" x="46.7514963418" xlink:href="#m728421d6d4" y="125.884532247"/>
      </g>
     </g>
     <g id="line2d_34">
      <g>
       <use style="stroke:#000000;stroke-width:0.5;" x="381.551496342" xlink:href="#mcb0005524f" y="125.884532247"/>
      </g>
     </g>
     <g id="text_15">
      <!-- $0.994$ -->
      <g transform="translate(7.2 129.869588287)scale(0.16 -0.16)">
       <use transform="scale(0.996264009963)" xlink:href="#CMR17-48"/>
       <use transform="translate(45.6904771171 0.0)scale(0.996264009963)" xlink:href="#CMMI12-58"/>
       <use transform="translate(72.7876542069 0.0)scale(0.996264009963)" xlink:href="#CMR17-57"/>
       <use transform="translate(118.478131324 0.0)scale(0.996264009963)" xlink:href="#CMR17-57"/>
       <use transform="translate(164.168608441 0.0)scale(0.996264009963)" xlink:href="#CMR17-52"/>
      </g>
     </g>
    </g>
    <g id="ytick_6">
     <g id="line2d_35">
      <g>
       <use style="stroke:#000000;stroke-width:0.5;" x="46.7514963418" xlink:href="#m728421d6d4" y="97.9845322472"/>
      </g>
     </g>
     <g id="line2d_36">
      <g>
       <use style="stroke:#000000;stroke-width:0.5;" x="381.551496342" xlink:href="#mcb0005524f" y="97.9845322472"/>
      </g>
     </g>
     <g id="text_16">
      <!-- $0.996$ -->
      <g transform="translate(7.2 101.969588287)scale(0.16 -0.16)">
       <use transform="scale(0.996264009963)" xlink:href="#CMR17-48"/>
       <use transform="translate(45.6904771171 0.0)scale(0.996264009963)" xlink:href="#CMMI12-58"/>
       <use transform="translate(72.7876542069 0.0)scale(0.996264009963)" xlink:href="#CMR17-57"/>
       <use transform="translate(118.478131324 0.0)scale(0.996264009963)" xlink:href="#CMR17-57"/>
       <use transform="translate(164.168608441 0.0)scale(0.996264009963)" xlink:href="#CMR17-54"/>
      </g>
     </g>
    </g>
    <g id="ytick_7">
     <g id="line2d_37">
      <g>
       <use style="stroke:#000000;stroke-width:0.5;" x="46.7514963418" xlink:href="#m728421d6d4" y="70.0845322472"/>
      </g>
     </g>
     <g id="line2d_38">
      <g>
       <use style="stroke:#000000;stroke-width:0.5;" x="381.551496342" xlink:href="#mcb0005524f" y="70.0845322472"/>
      </g>
     </g>
     <g id="text_17">
      <!-- $0.998$ -->
      <g transform="translate(7.2 74.0695882871)scale(0.16 -0.16)">
       <use transform="scale(0.996264009963)" xlink:href="#CMR17-48"/>
       <use transform="translate(45.6904771171 0.0)scale(0.996264009963)" xlink:href="#CMMI12-58"/>
       <use transform="translate(72.7876542069 0.0)scale(0.996264009963)" xlink:href="#CMR17-57"/>
       <use transform="translate(118.478131324 0.0)scale(0.996264009963)" xlink:href="#CMR17-57"/>
       <use transform="translate(164.168608441 0.0)scale(0.996264009963)" xlink:href="#CMR17-56"/>
      </g>
     </g>
    </g>
    <g id="ytick_8">
     <g id="line2d_39">
      <g>
       <use style="stroke:#000000;stroke-width:0.5;" x="46.7514963418" xlink:href="#m728421d6d4" y="42.1845322472"/>
      </g>
     </g>
     <g id="line2d_40">
      <g>
       <use style="stroke:#000000;stroke-width:0.5;" x="381.551496342" xlink:href="#mcb0005524f" y="42.1845322472"/>
      </g>
     </g>
     <g id="text_18">
      <!-- $1.000$ -->
      <g transform="translate(7.2 46.1695882871)scale(0.16 -0.16)">
       <use transform="scale(0.996264009963)" xlink:href="#CMR17-49"/>
       <use transform="translate(45.6904771171 0.0)scale(0.996264009963)" xlink:href="#CMMI12-58"/>
       <use transform="translate(72.7876542069 0.0)scale(0.996264009963)" xlink:href="#CMR17-48"/>
       <use transform="translate(118.478131324 0.0)scale(0.996264009963)" xlink:href="#CMR17-48"/>
       <use transform="translate(164.168608441 0.0)scale(0.996264009963)" xlink:href="#CMR17-48"/>
      </g>
     </g>
    </g>
    <g id="ytick_9">
     <g id="line2d_41">
      <g>
       <use style="stroke:#000000;stroke-width:0.5;" x="46.7514963418" xlink:href="#m728421d6d4" y="14.2845322472"/>
      </g>
     </g>
     <g id="line2d_42">
      <g>
       <use style="stroke:#000000;stroke-width:0.5;" x="381.551496342" xlink:href="#mcb0005524f" y="14.2845322472"/>
      </g>
     </g>
     <g id="text_19">
      <!-- $1.002$ -->
      <g transform="translate(7.2 18.2695882871)scale(0.16 -0.16)">
       <use transform="scale(0.996264009963)" xlink:href="#CMR17-49"/>
       <use transform="translate(45.6904771171 0.0)scale(0.996264009963)" xlink:href="#CMMI12-58"/>
       <use transform="translate(72.7876542069 0.0)scale(0.996264009963)" xlink:href="#CMR17-48"/>
       <use transform="translate(118.478131324 0.0)scale(0.996264009963)" xlink:href="#CMR17-48"/>
       <use transform="translate(164.168608441 0.0)scale(0.996264009963)" xlink:href="#CMR17-50"/>
      </g>
     </g>
    </g>
   </g>
   <g id="legend_1">
    <g id="patch_7">
     <path d="
M248.317 160.881
L373.551 160.881
L373.551 22.2845
L248.317 22.2845
L248.317 160.881" style="fill:none;stroke:#000000;stroke-linejoin:miter;"/>
    </g>
    <g id="line2d_43">
     <path d="
M259.517 34.2845
L281.917 34.2845" style="fill:none;stroke:#0000ff;stroke-linecap:square;"/>
    </g>
    <g id="line2d_44"/>
    <g id="text_20">
     <!-- left limb -->
     <defs>
      <path d="
M15.5 61.0781
C15.5 63.2656 13.7031 65.1562 11.4062 65.1562
C9.20312 65.1562 7.29688 63.375 7.29688 61.0781
C7.29688 58.8906 9.09375 57 11.4062 57
C13.5938 57 15.5 58.7969 15.5 61.0781
M3.79688 42.2812
L3.79688 39.7031
C9.40625 39.7031 10.2031 39.0938 10.2031 34.3281
L10.2031 6.67188
C10.2031 2.875 9.79688 2.39062 3.40625 2.39062
L3.40625 -0.203125
C5.79688 0 10.0938 0 12.5938 0
C15 0 19.0938 0 21.4062 -0.203125
L21.4062 2.39062
C15.5 2.39062 15.2969 2.98438 15.2969 6.5625
L15.2969 43.375
z
" id="CMR17-105"/>
      <path d="
M15 68.6875
L3.09375 67.5938
L3.09375 65
C9 65 9.90625 64.4062 9.90625 59.6406
L9.90625 -0.203125
L11.7031 -0.203125
L14.5938 6.89062
C17.5 2.20312 21.7969 -1 27.5938 -1
C37.5938 -1 47.7031 7.8125 47.7031 21.4062
C47.7031 34.1875 38.7031 43.5938 28.5938 43.5938
C22.4062 43.5938 18 40.2969 15 36.4062
z

M15.2031 31.3125
C15.2031 33.0938 15.2031 33.4062 16.5938 35.5
C20.5 41.5156 26.0938 42 28 42
C31 42 41.2969 40.3906 41.2969 21.5
C41.2969 1.6875 29.5 0.59375 27.0938 0.59375
C24 0.59375 19.5 1.78125 16.2969 7.59375
C15.2031 9.5 15.2031 9.70312 15.2031 11.4844
z
" id="CMR17-98"/>
      <path d="
M15.0938 40
L29.0938 40
L29.0938 42.5781
L15.0938 42.5781
L15.0938 61
L13.2969 61
C13.0938 50.7031 9.59375 41.6875 1.09375 41.6875
L1.09375 40
L9.79688 40
L9.79688 12.0469
C9.79688 10.1562 9.79688 -1 21.4062 -1
C27.2969 -1 30.7031 4.78125 30.7031 12.1406
L30.7031 17.8125
L28.9062 17.8125
L28.9062 12.2344
C28.9062 5.375 26.2031 0.796875 22 0.796875
C19.0938 0.796875 15.0938 2.78125 15.0938 11.8438
z
" id="CMR17-116"/>
      <path d="
M38.0938 23
C38.5 23.4062 38.5 23.6094 38.5 24.625
C38.5 34.9688 33.0938 44 21.7031 44
C11.0938 44 2.70312 33.8906 2.70312 21.6094
C2.70312 8.60938 12.2031 -1 22.7969 -1
C34 -1 38.4062 9.46875 38.4062 11.5469
C38.4062 12.25 37.7969 12.25 37.5938 12.25
C36.9062 12.25 36.7969 12.0469 36.4062 10.875
C34.2031 4.14062 28.7031 0.796875 23.5 0.796875
C19.2031 0.796875 14.9062 3.17188 12.2031 7.5
C9.09375 12.5469 9.09375 18.375 9.09375 23
z

M9.20312 24.5
C9.90625 39.1406 17.5938 42.4062 21.5938 42.4062
C28.4062 42.4062 33 35.8906 33.0938 24.5
z
" id="CMR17-101"/>
      <path d="
M15.2969 40
L26.7031 40
L26.7031 42.5781
L15.0938 42.5781
L15.0938 54.5938
C15.0938 62.8438 19.2969 68 23.5938 68
C24.9062 68 26.4062 67.6094 27.4062 66.9062
C26.5938 66.7031 24.5 66.0156 24.5 63.5312
C24.5 60.9531 26.5 60.1562 27.9062 60.1562
C29.2969 60.1562 31.2969 60.9531 31.2969 63.5469
C31.2969 67.3125 27.7031 69.5938 23.7031 69.5938
C18 69.5938 10.2031 64.9375 10.2031 54.3906
L10.2031 42.5781
L2.20312 42.5781
L2.20312 40
L10.2031 40
L10.2031 6.67188
C10.2031 2.875 9.79688 2.39062 3.40625 2.39062
L3.40625 -0.203125
C5.79688 0 10.4062 0 13 0
C15.9062 0 21 0 23.7031 -0.203125
L23.7031 2.39062
C16.5 2.39062 15.2969 2.39062 15.2969 6.85938
z
" id="CMR17-102"/>
      <path d="
M67.5938 30.2031
C67.5938 35.1875 66.7031 43.5938 54.7969 43.5938
C48 43.5938 43.2969 39 41.5 33.5938
L41.4062 33.5938
C40.2031 41.7969 34.2969 43.5938 28.7031 43.5938
C20.7969 43.5938 16.7031 37.5625 15.2031 33.5938
L15.0938 33.5938
L15.0938 43.5938
L3.29688 42.5
L3.29688 39.9062
C9.20312 39.9062 10.0938 39.2969 10.0938 34.5
L10.0938 6.6875
C10.0938 2.875 9.70312 2.39062 3.29688 2.39062
L3.29688 -0.203125
C5.70312 0 10.0938 0 12.7031 0
C15.2969 0 19.7969 0 22.2031 -0.203125
L22.2031 2.39062
C15.7969 2.39062 15.4062 2.78125 15.4062 6.6875
L15.4062 25.9062
C15.4062 35.1094 21 42 28 42
C35.4062 42 36.2031 35.4062 36.2031 30.5938
L36.2031 6.6875
C36.2031 2.875 35.7969 2.39062 29.4062 2.39062
L29.4062 -0.203125
C31.7969 0 36.2031 0 38.7969 0
C41.4062 0 45.9062 0 48.2969 -0.203125
L48.2969 2.39062
C41.9062 2.39062 41.5 2.78125 41.5 6.6875
L41.5 25.9062
C41.5 35.1094 47.0938 42 54.0938 42
C61.5 42 62.2969 35.4062 62.2969 30.5938
L62.2969 6.6875
C62.2969 2.875 61.9062 2.39062 55.5 2.39062
L55.5 -0.203125
C57.9062 0 62.2969 0 64.9062 0
C67.5 0 72 0 74.4062 -0.203125
L74.4062 2.39062
C68 2.39062 67.5938 2.78125 67.5938 6.6875
z
" id="CMR17-109"/>
      <path d="
M15.2969 68.6875
L3.40625 67.5938
L3.40625 65
C9.29688 65 10.2031 64.4062 10.2031 59.6406
L10.2031 6.65625
C10.2031 2.875 9.79688 2.39062 3.40625 2.39062
L3.40625 -0.203125
C5.79688 0 10.2031 0 12.7031 0
C15.2969 0 19.7031 0 22.0938 -0.203125
L22.0938 2.39062
C15.7031 2.39062 15.2969 2.78125 15.2969 6.65625
z
" id="CMR17-108"/>
     </defs>
     <g transform="translate(299.516942326 39.8845322472)scale(0.16 -0.16)">
      <use transform="scale(0.996264009963)" xlink:href="#CMR17-108"/>
      <use transform="translate(24.8710584819 0.0)scale(0.996264009963)" xlink:href="#CMR17-101"/>
      <use transform="translate(65.3567189446 0.0)scale(0.996264009963)" xlink:href="#CMR17-102"/>
      <use transform="translate(92.830231359 0.0)scale(0.996264009963)" xlink:href="#CMR17-116"/>
      <use transform="translate(158.186965505 0.0)scale(0.996264009963)" xlink:href="#CMR17-108"/>
      <use transform="translate(183.058023987 0.0)scale(0.996264009963)" xlink:href="#CMR17-105"/>
      <use transform="translate(207.929082469 0.0)scale(0.996264009963)" xlink:href="#CMR17-109"/>
      <use transform="translate(282.246218405 0.0)scale(0.996264009963)" xlink:href="#CMR17-98"/>
     </g>
    </g>
    <g id="line2d_45">
     <path d="
M259.517 56.584
L281.917 56.584" style="fill:none;stroke:#008000;stroke-linecap:square;"/>
    </g>
    <g id="line2d_46"/>
    <g id="text_21">
     <!-- right limb -->
     <defs>
      <path d="
M41.5 30.2031
C41.5 35.2969 40.5 43.5938 28.7031 43.5938
C20.5 43.5938 16.5 37 15.2969 33.7031
L15.2031 33.7031
L15.2031 68.6875
L3.29688 67.5938
L3.29688 65
C9.20312 65 10.0938 64.4062 10.0938 59.6406
L10.0938 6.65625
C10.0938 2.875 9.70312 2.39062 3.29688 2.39062
L3.29688 -0.203125
C5.70312 0 10.0938 0 12.7031 0
C15.2969 0 19.7969 0 22.2031 -0.203125
L22.2031 2.39062
C15.7969 2.39062 15.4062 2.78125 15.4062 6.6875
L15.4062 25.9062
C15.4062 35.1094 21 42 28 42
C35.4062 42 36.2031 35.4062 36.2031 30.5938
L36.2031 6.6875
C36.2031 2.875 35.7969 2.39062 29.4062 2.39062
L29.4062 -0.203125
C31.7969 0 36.2031 0 38.7969 0
C41.4062 0 45.9062 0 48.2969 -0.203125
L48.2969 2.39062
C41.9062 2.39062 41.5 2.78125 41.5 6.6875
z
" id="CMR17-104"/>
      <path d="
M15 23.3906
C15 33 19.0938 42 26.5938 42
C27.2969 42 28 41.9062 28.7031 41.5938
C28.7031 41.5938 26.5 40.8906 26.5 38.3125
C26.5 35.9062 28.4062 34.9062 29.9062 34.9062
C31.0938 34.9062 33.2969 35.6094 33.2969 38.4062
C33.2969 41.6094 30.0938 43.5938 26.7031 43.5938
C19.0938 43.5938 15.7969 36.2031 14.7969 32.7031
L14.7031 32.7031
L14.7031 43.5938
L3.09375 42.5
L3.09375 39.9062
C9 39.9062 9.90625 39.2969 9.90625 34.5
L9.90625 6.6875
C9.90625 2.875 9.5 2.39062 3.09375 2.39062
L3.09375 -0.203125
C5.5 0 10.0938 0 12.7031 0
C15.5938 0 20.7031 0 23.4062 -0.203125
L23.4062 2.39062
C16.2031 2.39062 15 2.39062 15 6.875
z
" id="CMR17-114"/>
      <path d="
M11.0938 18.1875
C13 16.6875 16.2969 15 20.2969 15
C28.2031 15 35 21.2031 35 29.5
C35 32.0938 34.2031 36.0938 31.2031 39.2031
C34 42.0625 38.0938 43 40.4062 43
C40.7969 43 41.4062 43 41.9062 42.7656
C41.5 42.6719 40.5938 42.2812 40.5938 40.7344
C40.5938 39.4844 41.5 38.6094 42.7969 38.6094
C44.2969 38.6094 45.0938 39.5781 45.0938 40.8438
C45.0938 42.6719 43.5938 44.5938 40.4062 44.5938
C36.4062 44.5938 32.9062 42.7812 30.0938 40.3125
C27.0938 43.0156 23.5 44 20.2969 44
C12.4062 44 5.59375 37.7969 5.59375 29.5
C5.59375 23.7812 8.90625 20.1875 9.90625 19.1875
C6.90625 15.6875 6.90625 11.6094 6.90625 11.1094
C6.90625 8.51562 7.90625 4.71875 11.2969 2.625
C6.09375 1.32812 2 -2.64062 2 -7.59375
C2 -14.7344 11.5 -20 22.9062 -20
C33.9062 -20 43.7969 -14.9375 43.7969 -7.48438
C43.7969 6 29 6 21.2969 6
C19 6 14.9062 6 14.4062 6.10938
C11.2969 6.60938 9.20312 9.40625 9.20312 12.8906
C9.20312 13.7812 9.20312 16 11.0938 18.1875
M20.2969 16.6875
C11.5 16.6875 11.5 27.5 11.5 29.5156
C11.5 31.5 11.5 42.3125 20.2969 42.3125
C29.0938 42.3125 29.0938 31.5 29.0938 29.5156
C29.0938 27.5 29.0938 16.6875 20.2969 16.6875
M22.9062 -18.2969
C12.9062 -18.2969 6 -13.0469 6 -7.59375
C6 -4.51562 7.70312 -1.64062 9.90625 -0.0625
C12.4062 1.625 13.4062 1.625 20.2031 1.625
C28.4062 1.625 39.7969 1.625 39.7969 -7.59375
C39.7969 -13.0469 32.9062 -18.2969 22.9062 -18.2969" id="CMR17-103"/>
     </defs>
     <g transform="translate(299.516942326 62.1840084546)scale(0.16 -0.16)">
      <use transform="scale(0.996264009963)" xlink:href="#CMR17-114"/>
      <use transform="translate(35.2807677995 0.0)scale(0.996264009963)" xlink:href="#CMR17-105"/>
      <use transform="translate(60.1518262813 0.0)scale(0.996264009963)" xlink:href="#CMR17-103"/>
      <use transform="translate(105.842303398 0.0)scale(0.996264009963)" xlink:href="#CMR17-104"/>
      <use transform="translate(154.135219246 0.0)scale(0.996264009963)" xlink:href="#CMR17-116"/>
      <use transform="translate(219.491953393 0.0)scale(0.996264009963)" xlink:href="#CMR17-108"/>
      <use transform="translate(244.363011874 0.0)scale(0.996264009963)" xlink:href="#CMR17-105"/>
      <use transform="translate(269.234070356 0.0)scale(0.996264009963)" xlink:href="#CMR17-109"/>
      <use transform="translate(343.551206292 0.0)scale(0.996264009963)" xlink:href="#CMR17-98"/>
     </g>
    </g>
    <g id="line2d_47">
     <path d="
M259.517 78.8835
L281.917 78.8835" style="fill:none;stroke:#ff0000;stroke-linecap:square;"/>
    </g>
    <g id="line2d_48"/>
    <g id="text_22">
     <!-- full -->
     <defs>
      <path d="
M29.4062 42.0781
L29.4062 39.5
C35.2969 39.5 36.2031 38.8906 36.2031 34.1562
L36.2031 16.125
C36.2031 7.8125 31.7031 0.59375 24.2969 0.59375
C16.0938 0.59375 15.4062 5.4375 15.4062 10.5938
L15.4062 43.1719
L3.29688 42.0781
L3.29688 39.5
C7.29688 39.5 10 39.5 10.0938 35.5312
L10.0938 16.5312
C10.0938 9.89062 10.0938 5.64062 12.7031 2.85938
C14 1.57812 16.5 -1 23.7031 -1
C32.2031 -1 35.5 6.35938 36.2969 8.5
L36.4062 8.5
L36.4062 -0.984375
L48.2969 -0.984375
L48.2969 2
C42.4062 2 41.5 2.59375 41.5 7.39062
L41.5 43.1719
z
" id="CMR17-117"/>
     </defs>
     <g transform="translate(299.516942326 84.483484662)scale(0.16 -0.16)">
      <use transform="scale(0.996264009963)" xlink:href="#CMR17-102"/>
      <use transform="translate(27.4735124144 0.0)scale(0.996264009963)" xlink:href="#CMR17-117"/>
      <use transform="translate(78.3688821947 0.0)scale(0.996264009963)" xlink:href="#CMR17-108"/>
      <use transform="translate(103.239940677 0.0)scale(0.996264009963)" xlink:href="#CMR17-108"/>
     </g>
    </g>
    <g id="line2d_49">
     <path d="
M259.517 101.183
L281.917 101.183" style="fill:none;stroke:#00bfbf;stroke-linecap:square;"/>
    </g>
    <g id="line2d_50"/>
    <g id="text_23">
     <!-- first -->
     <defs>
      <path d="
M30.9062 42.1094
C30.9062 43.9062 30.7969 44 30.2031 44
C29.7969 44 29.7031 43.9062 28.5 42.4219
C28.2031 42.0156 27.2969 41.0156 27 40.625
C23.7969 44 19.2969 44 17.5938 44
C6.5 44 2.5 38.1719 2.5 32.375
C2.5 23.3438 12.7031 21.25 15.5938 20.6406
C21.9062 19.3438 24.0938 18.9375 26.2031 17.125
C27.5 15.9375 29.7031 13.7344 29.7031 10.125
C29.7031 5.90625 27.2969 0.5 18.0938 0.5
C9.40625 0.5 6.29688 7.0625 4.5 15.8281
C4.20312 17.2188 4.20312 17.3281 3.40625 17.3281
C2.59375 17.3281 2.5 17.2188 2.5 15.2344
L2.5 0.890625
C2.5 -0.890625 2.59375 -1 3.20312 -1
C3.70312 -1 3.79688 -0.890625 4.29688 -0.09375
C4.90625 0.796875 6.40625 3.1875 7 4.1875
C9 1.54688 12.5 -1 18.0938 -1
C28 -1 33.2969 4.40625 33.2969 12.2344
C33.2969 17.3438 30.5938 20.0625 29.2969 21.25
C26.2969 24.375 22.7969 25.0625 18.5938 25.8594
C13.0938 27.0781 6.09375 28.4688 6.09375 34.5938
C6.09375 37.1875 7.5 42.7188 17.5938 42.7188
C28.2969 42.7188 28.9062 32.75 29.0938 29.5625
C29.2031 29.0781 29.7031 28.9688 30 28.9688
C30.9062 28.9688 30.9062 29.2812 30.9062 30.9688
z
" id="CMR17-115"/>
      <path d="
M39.9062 43.1875
C37.5 43.1875 30.0938 43.1875 28.2031 42.7969
C27.5938 42.5781 27.4062 42.5781 26.2031 42.5781
L14.7969 42.5781
L14.7969 54.2031
C14.7969 63.6406 22.4062 68 28.4062 68
C30.2969 68 34.5938 67.5 36.7969 64.0781
C35.7969 64.0781 32.5938 64.0781 32.5938 60.5938
C32.5938 58.2031 34.2031 57 36.2031 57
C38 57 39.7969 58 39.7969 60.7031
C39.7969 65.7031 35 69.5938 28.7969 69.5938
C20.9062 69.5938 9.90625 65.125 9.90625 54.2031
L9.90625 42.5781
L1.90625 42.5781
L1.90625 40
L9.90625 40
L9.90625 6.67188
C9.90625 2.875 9.5 2.39062 3.09375 2.39062
L3.09375 -0.203125
C5.5 0 9.90625 0 12.4062 0
C15 0 19.4062 0 21.7969 -0.203125
L21.7969 2.39062
C15.4062 2.39062 15 2.78125 15 6.67188
L15 40
L29.7031 40
C34 40 34.7969 39.0938 34.7969 34.7188
L34.7969 6.67188
C34.7969 2.875 34.4062 2.39062 28 2.39062
L28 -0.203125
C30.4062 0 34.7969 0 37.2969 0
C39.9062 0 44.2969 0 46.7031 -0.203125
L46.7031 2.39062
C40.2969 2.39062 39.9062 2.78125 39.9062 6.64062
z
" id="CMR17-12"/>
     </defs>
     <g transform="translate(299.516942326 106.782960869)scale(0.16 -0.16)">
      <use transform="scale(0.996264009963)" xlink:href="#CMR17-12"/>
      <use transform="translate(49.7422233762 0.0)scale(0.996264009963)" xlink:href="#CMR17-114"/>
      <use transform="translate(85.0229911757 0.0)scale(0.996264009963)" xlink:href="#CMR17-115"/>
      <use transform="translate(120.824328811 0.0)scale(0.996264009963)" xlink:href="#CMR17-116"/>
     </g>
    </g>
    <g id="line2d_51">
     <path d="
M259.517 123.482
L281.917 123.482" style="fill:none;stroke:#bf00bf;stroke-linecap:square;"/>
    </g>
    <g id="line2d_52"/>
    <g id="text_24">
     <!-- last -->
     <defs>
      <path d="
M36 25.8281
C36 32.375 36 35.8438 31.7969 39.7344
C28.0938 43 23.7969 44 20.4062 44
C12.5 44 6.79688 37.6094 6.79688 30.7969
C6.79688 27 9.79688 27 10.4062 27
C11.7031 27 14 27.7812 14 30.5312
C14 33 12.0938 34.0781 10.4062 34.0781
C10 34.0781 9.5 33.9688 9.20312 33.875
C11.2969 40.5 16.7031 42.4062 20.2031 42.4062
C25.2031 42.4062 30.7031 37.9531 30.7031 29.4531
L30.7031 25
C24.7969 25 17.7031 24.2031 12.0938 21.2031
C5.79688 17.7031 4 12.7031 4 8.90625
C4 1.20312 13 -1 18.2969 -1
C23.7969 -1 28.9062 2.17188 31.0938 7.98438
C31.2969 3.64062 34.0938 -0.28125 38.5 -0.28125
C40.5938 -0.28125 45.9062 1.09375 45.9062 8.85938
L45.9062 14.375
L44.0938 14.375
L44.0938 8.78125
C44.0938 2.78125 41.4062 2 40.0938 2
C36 2 36 7.15625 36 11.5312
z

M30.7031 13.5938
C30.7031 4.95312 24.5 0.59375 19 0.59375
C14 0.59375 10.0938 4.29688 10.0938 8.90625
C10.0938 11.8906 11.4062 17.1875 17.2031 20.3906
C22 23.0938 27.5 23.5 30.7031 23.5
z
" id="CMR17-97"/>
     </defs>
     <g transform="translate(299.516942326 129.082437077)scale(0.16 -0.16)">
      <use transform="scale(0.996264009963)" xlink:href="#CMR17-108"/>
      <use transform="translate(24.8710584819 0.0)scale(0.996264009963)" xlink:href="#CMR17-97"/>
      <use transform="translate(70.5615355989 0.0)scale(0.996264009963)" xlink:href="#CMR17-115"/>
      <use transform="translate(106.362873234 0.0)scale(0.996264009963)" xlink:href="#CMR17-116"/>
     </g>
    </g>
    <g id="line2d_53">
     <path d="
M259.517 145.782
L281.917 145.782" style="fill:none;stroke:#bfbf00;stroke-linecap:square;"/>
    </g>
    <g id="line2d_54"/>
    <g id="text_25">
     <!-- combined -->
     <defs>
      <path d="
M29.2031 67.5938
L29.2031 65
C35.0938 65 36 64.4062 36 59.6875
L36 36.6406
C35.5938 37.1406 31.5 43.5938 23.4062 43.5938
C13.2031 43.5938 3.29688 34.5 3.29688 21.3125
C3.29688 8.20312 12.5938 -1 22.4062 -1
C30.9062 -1 35.2969 5.26562 35.7969 5.9375
L35.7969 -0.984375
L47.9062 -0.984375
L47.9062 2
C42 2 41.0938 2.59375 41.0938 7.39062
L41.0938 68.6875
z

M35.7969 11.7969
C35.7969 8.79688 34 6.09375 31.7031 4.09375
C28.2969 1.09375 24.9062 0.59375 23 0.59375
C20.0938 0.59375 9.70312 2.09375 9.70312 21.1875
C9.70312 40.8125 21.2969 42 23.9062 42
C28.5 42 32.2031 39.4062 34.5 35.7969
C35.7969 33.7031 35.7969 33.4062 35.7969 31.6094
z
" id="CMR17-100"/>
      <path d="
M34.9062 35
C33 35 30.2031 35 30.2031 31.5156
C30.2031 28.7188 32.5 27.9219 33.7969 27.9219
C34.5 27.9219 37.4062 28.2344 37.4062 31.625
C37.4062 38.5469 30.5938 43.7969 22.9062 43.7969
C12.2969 43.7969 3.29688 34.0312 3.29688 21.2969
C3.29688 8.0625 12.7031 -1 22.9062 -1
C35.2969 -1 38.4062 10.5938 38.4062 11.6875
C38.4062 12.0938 38.2969 12.3906 37.5938 12.3906
C36.9062 12.3906 36.7969 12.2969 36.4062 10.9844
C33.7969 2.8125 28.0938 0.796875 23.7969 0.796875
C17.4062 0.796875 9.70312 6.67188 9.70312 21.3906
C9.70312 36.5312 17.0938 42 23 42
C26.9062 42 32.7031 40.2031 34.9062 35" id="CMR17-99"/>
      <path d="
M41.5 30.2031
C41.5 35.2969 40.5 43.5938 28.7031 43.5938
C20.7969 43.5938 16.7031 37.5 15.2031 33.5
L15.0938 33.5
L15.0938 43.5938
L3.29688 42.5
L3.29688 39.9062
C9.20312 39.9062 10.0938 39.2969 10.0938 34.5
L10.0938 6.6875
C10.0938 2.875 9.70312 2.39062 3.29688 2.39062
L3.29688 -0.203125
C5.70312 0 10.0938 0 12.7031 0
C15.2969 0 19.7969 0 22.2031 -0.203125
L22.2031 2.39062
C15.7969 2.39062 15.4062 2.78125 15.4062 6.6875
L15.4062 25.9062
C15.4062 35.1094 21 42 28 42
C35.4062 42 36.2031 35.4062 36.2031 30.5938
L36.2031 6.6875
C36.2031 2.875 35.7969 2.39062 29.4062 2.39062
L29.4062 -0.203125
C31.7969 0 36.2031 0 38.7969 0
C41.4062 0 45.9062 0 48.2969 -0.203125
L48.2969 2.39062
C41.9062 2.39062 41.5 2.78125 41.5 6.6875
z
" id="CMR17-110"/>
      <path d="
M43.0938 21.1875
C43.0938 34 33.7969 44 22.9062 44
C12 44 2.70312 34 2.70312 21.1875
C2.70312 8.60938 12 -1 22.9062 -1
C33.7969 -1 43.0938 8.60938 43.0938 21.1875
M22.9062 0.796875
C18.2031 0.796875 14.2031 3.59375 11.9062 7.5
C9.40625 11.9844 9.09375 17.5938 9.09375 22
C9.09375 26.2031 9.29688 31.4062 11.9062 35.9062
C13.9062 39.2031 17.7969 42.4062 22.9062 42.4062
C27.4062 42.4062 31.2031 39.9062 33.5938 36.4062
C36.7031 31.7031 36.7031 25.1094 36.7031 22
C36.7031 18.0938 36.5 12.1094 33.7969 7.29688
C31 2.70312 26.7031 0.796875 22.9062 0.796875" id="CMR17-111"/>
     </defs>
     <g transform="translate(299.516942326 151.381913284)scale(0.16 -0.16)">
      <use transform="scale(0.996264009963)" xlink:href="#CMR17-99"/>
      <use transform="translate(40.4856604627 0.0)scale(0.996264009963)" xlink:href="#CMR17-111"/>
      <use transform="translate(86.1761375798 0.0)scale(0.996264009963)" xlink:href="#CMR17-109"/>
      <use transform="translate(160.493273515 0.0)scale(0.996264009963)" xlink:href="#CMR17-98"/>
      <use transform="translate(211.388643296 0.0)scale(0.996264009963)" xlink:href="#CMR17-105"/>
      <use transform="translate(236.259701778 0.0)scale(0.996264009963)" xlink:href="#CMR17-110"/>
      <use transform="translate(287.155071558 0.0)scale(0.996264009963)" xlink:href="#CMR17-101"/>
      <use transform="translate(327.640732021 0.0)scale(0.996264009963)" xlink:href="#CMR17-100"/>
     </g>
    </g>
   </g>
  </g>
 </g>
 <defs>
  <clipPath id="p6d93b3719f">
   <rect height="223.2" width="334.8" x="46.7514963418" y="14.2845322472"/>
  </clipPath>
 </defs>
</svg>
