<?xml version="1.0" encoding="utf-8" standalone="no"?>
<!DOCTYPE svg PUBLIC "-//W3C//DTD SVG 1.1//EN"
  "http://www.w3.org/Graphics/SVG/1.1/DTD/svg11.dtd">
<!-- Created with matplotlib (http://matplotlib.org/) -->
<svg height="262pt" version="1.1" viewBox="0 0 373 262" width="373pt" xmlns="http://www.w3.org/2000/svg" xmlns:xlink="http://www.w3.org/1999/xlink">
 <defs>
  <style type="text/css">
*{stroke-linecap:butt;stroke-linejoin:round;}
  </style>
 </defs>
 <g id="figure_1">
  <g id="patch_1">
   <path d="
M0 262.854
L373.144 262.854
L373.144 0
L0 0
L0 262.854" style="fill:none;"/>
  </g>
  <g id="axes_1">
   <g id="patch_2">
    <path d="
M31.1435 237.485
L365.944 237.485
L365.944 14.2845
L31.1435 14.2845
L31.1435 237.485" style="fill:none;"/>
   </g>
   <g id="line2d_1">
    <path clip-path="url(#p8db62cf74c)" d="
M30.6925 120.276
L32.3972 120.678
L35.8065 121.896
L39.2158 123.378
L40.9205 123.956
L42.6251 124.4
L44.3297 125.227
L46.0344 126.205
L47.739 126.983
L51.1482 128.239
L52.8528 129.225
L56.262 131.454
L57.9666 132.231
L61.3758 132.868
L63.0804 133.875
L64.7849 135.138
L66.4895 135.987
L69.8986 137.176
L73.3077 139.067
L76.7168 140.985
L78.4213 141.817
L80.1258 142.505
L81.8303 143.314
L85.2393 145.107
L88.6483 146.42
L93.7617 149.141
L97.1706 151.266
L98.8751 152.026
L102.284 153.921
L103.988 154.663
L105.693 155.823
L107.397 157.298
L109.102 158.59
L110.806 160.068
L114.215 163.635
L117.624 167.376
L119.328 168.513
L121.032 168.817
L127.85 167.836
L129.554 167.832
L131.259 168.125
L134.667 169.122
L136.372 169.516
L138.076 170.285
L141.485 172.24
L144.893 174.018
L146.597 175.142
L148.302 176.086
L150.006 176.72
L151.71 177.725
L153.415 179.021
L155.119 180.133
L158.527 182.115
L161.936 184.702
L163.64 185.735
L165.344 187.056
L167.048 188.86
L172.161 195.634
L175.569 201.084
L178.978 206.997
L182.386 213.161
L185.794 218.55
L187.499 221.071
L189.203 223.227
L190.907 224.945
L192.611 226.25
L194.315 227.121
L196.019 227.623
L197.723 227.921
L199.428 227.979
L201.132 227.78
L202.836 227.451
L204.54 226.934
L207.948 225.306
L209.652 224.138
L211.356 222.396
L213.06 220.328
L214.764 218.067
L216.468 215.438
L223.284 203.618
L226.693 197.427
L228.397 194.683
L231.805 190.374
L233.509 188.4
L238.62 183.466
L240.324 182.158
L242.028 181.099
L245.436 178.429
L248.844 176.706
L252.252 174.575
L264.179 169.001
L267.587 167.554
L276.107 163.596
L279.514 162.4
L284.626 160.657
L286.33 160.162
L288.033 159.541
L291.441 157.824
L298.256 154.905
L305.071 151.251
L310.182 147.872
L311.886 146.867
L313.59 146.045
L315.294 145.037
L316.997 143.892
L318.701 143.047
L320.405 142.377
L323.812 140.632
L327.219 139.45
L332.33 136.729
L334.034 136.234
L335.738 135.617
L339.145 133.519
L342.552 131.984
L345.959 130.829
L349.367 128.568
L351.07 127.75
L357.885 125.138
L359.588 124.647
L364.699 122.361
L366.402 121.873
L366.402 121.873" style="fill:none;stroke:#0000ff;stroke-linecap:square;"/>
   </g>
   <g id="patch_3">
    <path d="
M31.1435 14.2845
L365.944 14.2845" style="fill:none;stroke:#000000;stroke-linecap:square;stroke-linejoin:miter;"/>
   </g>
   <g id="patch_4">
    <path d="
M365.944 237.485
L365.944 14.2845" style="fill:none;stroke:#000000;stroke-linecap:square;stroke-linejoin:miter;"/>
   </g>
   <g id="patch_5">
    <path d="
M31.1435 237.485
L365.944 237.485" style="fill:none;stroke:#000000;stroke-linecap:square;stroke-linejoin:miter;"/>
   </g>
   <g id="patch_6">
    <path d="
M31.1435 237.485
L31.1435 14.2845" style="fill:none;stroke:#000000;stroke-linecap:square;stroke-linejoin:miter;"/>
   </g>
   <g id="matplotlib.axis_1">
    <g id="xtick_1">
     <g id="line2d_2">
      <defs>
       <path d="
M0 0
L0 -7" id="m21d9c6f116" style="stroke:#000000;stroke-width:0.5;"/>
      </defs>
      <g>
       <use style="stroke:#000000;stroke-width:0.5;" x="64.6235223381" xlink:href="#m21d9c6f116" y="237.484532247"/>
      </g>
     </g>
     <g id="line2d_3">
      <defs>
       <path d="
M0 0
L0 7" id="m949ece7675" style="stroke:#000000;stroke-width:0.5;"/>
      </defs>
      <g>
       <use style="stroke:#000000;stroke-width:0.5;" x="64.6235223381" xlink:href="#m949ece7675" y="14.2845322472"/>
      </g>
     </g>
     <g id="text_1">
      <!-- $-40$ -->
      <defs>
       <path d="
M65.9062 23
C67.5938 23 69.4062 23 69.4062 25
C69.4062 27 67.5938 27 65.9062 27
L11.7969 27
C10.0938 27 8.29688 27 8.29688 25
C8.29688 23 10.0938 23 11.7969 23
z
" id="CMSY10-0"/>
       <path d="
M33.5938 64.3281
C33.5938 66.4062 33.5 66.5 31.7031 66.5
L2 19.5938
L2 17
L27.7969 17
L27.7969 7.14062
C27.7969 3.5 27.5938 2.5 20.5938 2.5
L18.7031 2.5
L18.7031 0
C21.9062 0 27.2969 0 30.7031 0
C34.0938 0 39.5 0 42.7031 0
L42.7031 2.5
L40.7969 2.5
C33.7969 2.5 33.5938 3.5 33.5938 7.14062
L33.5938 17
L43.7969 17
L43.7969 19.5938
L33.5938 19.5938
z

M28.0938 57.7656
L28.0938 19.5938
L4 19.5938
z
" id="CMR17-52"/>
       <path d="
M42 31.6406
C42 37.75 41.9062 48.125 37.7031 56.1094
C34 63.1094 28.0938 65.5938 22.9062 65.5938
C18.0938 65.5938 12 63.4062 8.20312 56.2031
C4.20312 48.7188 3.79688 39.4375 3.79688 31.6406
C3.79688 25.9531 3.90625 17.2812 7 9.67188
C11.2969 -0.609375 19 -2 22.9062 -2
C27.5 -2 34.5 -0.109375 38.5938 9.375
C41.5938 16.2812 42 24.3594 42 31.6406
M22.9062 -0.40625
C16.5 -0.40625 12.7031 5.07812 11.2969 12.6875
C10.2031 18.5625 10.2031 27.1562 10.2031 32.75
C10.2031 40.4375 10.2031 46.8281 11.5 52.9219
C13.4062 61.3906 19 64 22.9062 64
C27 64 32.2969 61.2969 34.2031 53.125
C35.5 47.4375 35.5938 40.7344 35.5938 32.75
C35.5938 26.25 35.5938 18.2656 34.4062 12.375
C32.2969 1.48438 26.4062 -0.40625 22.9062 -0.40625" id="CMR17-48"/>
      </defs>
      <g transform="translate(50.6205373161 252.554120534)scale(0.16 -0.16)">
       <use transform="scale(0.996264009963)" xlink:href="#CMSY10-0"/>
       <use transform="translate(77.4874676506 0.0)scale(0.996264009963)" xlink:href="#CMR17-52"/>
       <use transform="translate(123.177944768 0.0)scale(0.996264009963)" xlink:href="#CMR17-48"/>
      </g>
     </g>
    </g>
    <g id="xtick_2">
     <g id="line2d_4">
      <g>
       <use style="stroke:#000000;stroke-width:0.5;" x="131.583522338" xlink:href="#m21d9c6f116" y="237.484532247"/>
      </g>
     </g>
     <g id="line2d_5">
      <g>
       <use style="stroke:#000000;stroke-width:0.5;" x="131.583522338" xlink:href="#m949ece7675" y="14.2845322472"/>
      </g>
     </g>
     <g id="text_2">
      <!-- $-20$ -->
      <defs>
       <path d="
M41.7031 15.4531
L39.9062 15.4531
C38.9062 8.375 38.0938 7.17188 37.7031 6.5625
C37.2031 5.76562 30 5.76562 28.5938 5.76562
L9.40625 5.76562
C13 9.67188 20 16.75 28.5 24.9531
C34.5938 30.7344 41.7031 37.5312 41.7031 47.4219
C41.7031 59.2188 32.2969 66 21.7969 66
C10.7969 66 4.09375 56.3125 4.09375 47.3438
C4.09375 43.4375 7 42.9375 8.20312 42.9375
C9.20312 42.9375 12.2031 43.5469 12.2031 47.0312
C12.2031 50.1094 9.59375 51 8.20312 51
C7.59375 51 7 50.9062 6.59375 50.7031
C8.5 59.2188 14.2969 63.4062 20.4062 63.4062
C29.0938 63.4062 34.7969 56.5156 34.7969 47.4219
C34.7969 38.7344 29.7031 31.25 24 24.75
L4.09375 2.28125
L4.09375 0
L39.2969 0
z
" id="CMR17-50"/>
      </defs>
      <g transform="translate(117.580537316 252.554120534)scale(0.16 -0.16)">
       <use transform="scale(0.996264009963)" xlink:href="#CMSY10-0"/>
       <use transform="translate(77.4874676506 0.0)scale(0.996264009963)" xlink:href="#CMR17-50"/>
       <use transform="translate(123.177944768 0.0)scale(0.996264009963)" xlink:href="#CMR17-48"/>
      </g>
     </g>
    </g>
    <g id="xtick_3">
     <g id="line2d_6">
      <g>
       <use style="stroke:#000000;stroke-width:0.5;" x="198.543522338" xlink:href="#m21d9c6f116" y="237.484532247"/>
      </g>
     </g>
     <g id="line2d_7">
      <g>
       <use style="stroke:#000000;stroke-width:0.5;" x="198.543522338" xlink:href="#m949ece7675" y="14.2845322472"/>
      </g>
     </g>
     <g id="text_3">
      <!-- $0$ -->
      <g transform="translate(194.641528837 252.554120534)scale(0.16 -0.16)">
       <use transform="scale(0.996264009963)" xlink:href="#CMR17-48"/>
      </g>
     </g>
    </g>
    <g id="xtick_4">
     <g id="line2d_8">
      <g>
       <use style="stroke:#000000;stroke-width:0.5;" x="265.503522338" xlink:href="#m21d9c6f116" y="237.484532247"/>
      </g>
     </g>
     <g id="line2d_9">
      <g>
       <use style="stroke:#000000;stroke-width:0.5;" x="265.503522338" xlink:href="#m949ece7675" y="14.2845322472"/>
      </g>
     </g>
     <g id="text_4">
      <!-- $20$ -->
      <g transform="translate(257.699535336 252.554120534)scale(0.16 -0.16)">
       <use transform="scale(0.996264009963)" xlink:href="#CMR17-50"/>
       <use transform="translate(45.6904771171 0.0)scale(0.996264009963)" xlink:href="#CMR17-48"/>
      </g>
     </g>
    </g>
    <g id="xtick_5">
     <g id="line2d_10">
      <g>
       <use style="stroke:#000000;stroke-width:0.5;" x="332.463522338" xlink:href="#m21d9c6f116" y="237.484532247"/>
      </g>
     </g>
     <g id="line2d_11">
      <g>
       <use style="stroke:#000000;stroke-width:0.5;" x="332.463522338" xlink:href="#m949ece7675" y="14.2845322472"/>
      </g>
     </g>
     <g id="text_5">
      <!-- $40$ -->
      <g transform="translate(324.659535336 252.554120534)scale(0.16 -0.16)">
       <use transform="scale(0.996264009963)" xlink:href="#CMR17-52"/>
       <use transform="translate(45.6904771171 0.0)scale(0.996264009963)" xlink:href="#CMR17-48"/>
      </g>
     </g>
    </g>
   </g>
   <g id="matplotlib.axis_2">
    <g id="ytick_1">
     <g id="line2d_12">
      <defs>
       <path d="
M0 0
L4 0" id="m728421d6d4" style="stroke:#000000;stroke-width:0.5;"/>
      </defs>
      <g>
       <use style="stroke:#000000;stroke-width:0.5;" x="31.1435223381" xlink:href="#m728421d6d4" y="237.484532247"/>
      </g>
     </g>
     <g id="line2d_13">
      <defs>
       <path d="
M0 0
L-4 0" id="mcb0005524f" style="stroke:#000000;stroke-width:0.5;"/>
      </defs>
      <g>
       <use style="stroke:#000000;stroke-width:0.5;" x="365.943522338" xlink:href="#mcb0005524f" y="237.484532247"/>
      </g>
     </g>
     <g id="text_6">
      <!-- $0.0$ -->
      <defs>
       <path d="
M18.4062 4.79688
C18.4062 7.6875 16 9.67188 13.5938 9.67188
C10.7031 9.67188 8.70312 7.28125 8.70312 4.89062
C8.70312 2 11.0938 0 13.5 0
C16.4062 0 18.4062 2.39062 18.4062 4.79688" id="CMMI12-58"/>
      </defs>
      <g transform="translate(7.2 241.469588287)scale(0.16 -0.16)">
       <use transform="scale(0.996264009963)" xlink:href="#CMR17-48"/>
       <use transform="translate(45.6904771171 0.0)scale(0.996264009963)" xlink:href="#CMMI12-58"/>
       <use transform="translate(72.7876542069 0.0)scale(0.996264009963)" xlink:href="#CMR17-48"/>
      </g>
     </g>
    </g>
    <g id="ytick_2">
     <g id="line2d_14">
      <g>
       <use style="stroke:#000000;stroke-width:0.5;" x="31.1435223381" xlink:href="#m728421d6d4" y="200.284532247"/>
      </g>
     </g>
     <g id="line2d_15">
      <g>
       <use style="stroke:#000000;stroke-width:0.5;" x="365.943522338" xlink:href="#mcb0005524f" y="200.284532247"/>
      </g>
     </g>
     <g id="text_7">
      <!-- $0.2$ -->
      <g transform="translate(7.2 204.269588287)scale(0.16 -0.16)">
       <use transform="scale(0.996264009963)" xlink:href="#CMR17-48"/>
       <use transform="translate(45.6904771171 0.0)scale(0.996264009963)" xlink:href="#CMMI12-58"/>
       <use transform="translate(72.7876542069 0.0)scale(0.996264009963)" xlink:href="#CMR17-50"/>
      </g>
     </g>
    </g>
    <g id="ytick_3">
     <g id="line2d_16">
      <g>
       <use style="stroke:#000000;stroke-width:0.5;" x="31.1435223381" xlink:href="#m728421d6d4" y="163.084532247"/>
      </g>
     </g>
     <g id="line2d_17">
      <g>
       <use style="stroke:#000000;stroke-width:0.5;" x="365.943522338" xlink:href="#mcb0005524f" y="163.084532247"/>
      </g>
     </g>
     <g id="text_8">
      <!-- $0.4$ -->
      <g transform="translate(7.2 167.069588287)scale(0.16 -0.16)">
       <use transform="scale(0.996264009963)" xlink:href="#CMR17-48"/>
       <use transform="translate(45.6904771171 0.0)scale(0.996264009963)" xlink:href="#CMMI12-58"/>
       <use transform="translate(72.7876542069 0.0)scale(0.996264009963)" xlink:href="#CMR17-52"/>
      </g>
     </g>
    </g>
    <g id="ytick_4">
     <g id="line2d_18">
      <g>
       <use style="stroke:#000000;stroke-width:0.5;" x="31.1435223381" xlink:href="#m728421d6d4" y="125.884532247"/>
      </g>
     </g>
     <g id="line2d_19">
      <g>
       <use style="stroke:#000000;stroke-width:0.5;" x="365.943522338" xlink:href="#mcb0005524f" y="125.884532247"/>
      </g>
     </g>
     <g id="text_9">
      <!-- $0.6$ -->
      <defs>
       <path d="
M10.5938 34
C10.5938 57.6562 21.7969 63 28.2969 63
C30.4062 63 35.5 62.6406 37.5 59
C35.9062 59 32.9062 59 32.9062 55.5156
C32.9062 52.8281 35.0938 51.9219 36.5 51.9219
C37.4062 51.9219 40.0938 52.3125 40.0938 55.625
C40.0938 61.7812 35.0938 65.2969 28.2031 65.2969
C16.2969 65.2969 3.79688 52.9688 3.79688 31
C3.79688 3.95312 15.0938 -2 23.0938 -2
C32.7969 -2 42 6.67188 42 20.0469
C42 32.5156 33.9062 41.5938 23.7031 41.5938
C17.5938 41.5938 13.0938 37.6094 10.5938 30.625
z

M23.0938 0.390625
C10.7969 0.390625 10.7969 18.75 10.7969 22.4375
C10.7969 29.625 14.2031 40 23.5 40
C25.2031 40 30.0938 40 33.4062 33.125
C35.2031 29.2188 35.2031 25.1406 35.2031 20.1406
C35.2031 14.75 35.2031 10.7812 33.0938 6.78125
C30.9062 2.67188 27.7031 0.390625 23.0938 0.390625" id="CMR17-54"/>
      </defs>
      <g transform="translate(7.2 129.869588287)scale(0.16 -0.16)">
       <use transform="scale(0.996264009963)" xlink:href="#CMR17-48"/>
       <use transform="translate(45.6904771171 0.0)scale(0.996264009963)" xlink:href="#CMMI12-58"/>
       <use transform="translate(72.7876542069 0.0)scale(0.996264009963)" xlink:href="#CMR17-54"/>
      </g>
     </g>
    </g>
    <g id="ytick_5">
     <g id="line2d_20">
      <g>
       <use style="stroke:#000000;stroke-width:0.5;" x="31.1435223381" xlink:href="#m728421d6d4" y="88.6845322472"/>
      </g>
     </g>
     <g id="line2d_21">
      <g>
       <use style="stroke:#000000;stroke-width:0.5;" x="365.943522338" xlink:href="#mcb0005524f" y="88.6845322472"/>
      </g>
     </g>
     <g id="text_10">
      <!-- $0.8$ -->
      <defs>
       <path d="
M27.2031 35.375
C33.5 38.5625 39.9062 43.3281 39.9062 50.9844
C39.9062 60.0312 31.0938 65.2969 23 65.2969
C13.9062 65.2969 5.90625 58.7344 5.90625 49.6875
C5.90625 47.2031 6.5 42.9219 10.4062 39.1406
C11.4062 38.1562 15.5938 35.1719 18.2969 33.2812
C13.7969 30.9844 3.29688 25.5312 3.29688 14.5938
C3.29688 4.35938 13.0938 -2 22.7969 -2
C33.5 -2 42.5 5.65625 42.5 15.7969
C42.5 24.8438 36.4062 29.0312 32.4062 31.7031
z

M14.0938 44.125
C13.2969 44.625 9.29688 47.7031 9.29688 52.375
C9.29688 58.4375 15.5938 63 22.7969 63
C30.7031 63 36.5 57.4531 36.5 50.9844
C36.5 41.7344 26.0938 36.4688 25.5938 36.4688
C25.5 36.4688 25.4062 36.4688 24.5938 37.0781
z

M32.5 23.7344
C34 22.6406 38.7969 19.375 38.7969 13.2969
C38.7969 5.95312 31.4062 0.390625 23 0.390625
C13.9062 0.390625 7 6.84375 7 14.6875
C7 22.5469 13.0938 29.0938 20 32.1875
z
" id="CMR17-56"/>
      </defs>
      <g transform="translate(7.2 92.6695882871)scale(0.16 -0.16)">
       <use transform="scale(0.996264009963)" xlink:href="#CMR17-48"/>
       <use transform="translate(45.6904771171 0.0)scale(0.996264009963)" xlink:href="#CMMI12-58"/>
       <use transform="translate(72.7876542069 0.0)scale(0.996264009963)" xlink:href="#CMR17-56"/>
      </g>
     </g>
    </g>
    <g id="ytick_6">
     <g id="line2d_22">
      <g>
       <use style="stroke:#000000;stroke-width:0.5;" x="31.1435223381" xlink:href="#m728421d6d4" y="51.4845322472"/>
      </g>
     </g>
     <g id="line2d_23">
      <g>
       <use style="stroke:#000000;stroke-width:0.5;" x="365.943522338" xlink:href="#mcb0005524f" y="51.4845322472"/>
      </g>
     </g>
     <g id="text_11">
      <!-- $1.0$ -->
      <defs>
       <path d="
M26.5938 63.3125
C26.5938 65.4062 26.5 65.5 25.0938 65.5
C21.2031 61.1875 15.2969 59.7969 9.70312 59.7969
C9.40625 59.7969 8.90625 59.7969 8.79688 59.6094
C8.70312 59.3906 8.70312 59.1719 8.70312 57
C11.7969 57 17 57.5938 21 59.9844
L21 7.20312
C21 3.6875 20.7969 2.5 12.2031 2.5
L9.20312 2.5
L9.20312 0
C14 0 19 0 23.7969 0
C28.5938 0 33.5938 0 38.4062 0
L38.4062 2.5
L35.4062 2.5
C26.7969 2.5 26.5938 3.59375 26.5938 7.15625
z
" id="CMR17-49"/>
      </defs>
      <g transform="translate(7.2 55.4695882871)scale(0.16 -0.16)">
       <use transform="scale(0.996264009963)" xlink:href="#CMR17-49"/>
       <use transform="translate(45.6904771171 0.0)scale(0.996264009963)" xlink:href="#CMMI12-58"/>
       <use transform="translate(72.7876542069 0.0)scale(0.996264009963)" xlink:href="#CMR17-48"/>
      </g>
     </g>
    </g>
    <g id="ytick_7">
     <g id="line2d_24">
      <g>
       <use style="stroke:#000000;stroke-width:0.5;" x="31.1435223381" xlink:href="#m728421d6d4" y="14.2845322472"/>
      </g>
     </g>
     <g id="line2d_25">
      <g>
       <use style="stroke:#000000;stroke-width:0.5;" x="365.943522338" xlink:href="#mcb0005524f" y="14.2845322472"/>
      </g>
     </g>
     <g id="text_12">
      <!-- $1.2$ -->
      <g transform="translate(7.2 18.2695882871)scale(0.16 -0.16)">
       <use transform="scale(0.996264009963)" xlink:href="#CMR17-49"/>
       <use transform="translate(45.6904771171 0.0)scale(0.996264009963)" xlink:href="#CMMI12-58"/>
       <use transform="translate(72.7876542069 0.0)scale(0.996264009963)" xlink:href="#CMR17-50"/>
      </g>
     </g>
    </g>
   </g>
  </g>
 </g>
 <defs>
  <clipPath id="p8db62cf74c">
   <rect height="223.2" width="334.8" x="31.1435223381" y="14.2845322472"/>
  </clipPath>
 </defs>
</svg>
