<?xml version="1.0" encoding="utf-8" standalone="no"?>
<!DOCTYPE svg PUBLIC "-//W3C//DTD SVG 1.1//EN"
  "http://www.w3.org/Graphics/SVG/1.1/DTD/svg11.dtd">
<!-- Created with matplotlib (http://matplotlib.org/) -->
<svg height="272pt" version="1.1" viewBox="0 0 389 272" width="389pt" xmlns="http://www.w3.org/2000/svg" xmlns:xlink="http://www.w3.org/1999/xlink">
 <defs>
  <style type="text/css">
*{stroke-linecap:butt;stroke-linejoin:round;}
  </style>
 </defs>
 <g id="figure_1">
  <g id="patch_1">
   <path d="
M0 272.017
L389.814 272.017
L389.814 0
L0 0
L0 272.017" style="fill:none;"/>
  </g>
  <g id="axes_1">
   <g id="patch_2">
    <path d="
M40.5609 235.239
L375.361 235.239
L375.361 12.0391
L40.5609 12.0391
z
" style="fill:#ffffff;"/>
   </g>
   <g id="line2d_1">
    <path clip-path="url(#p257477c110)" d="
M38.8869 107.978
L43.9089 109.882
L45.5829 110.805
L47.2569 111.907
L53.9529 115.392
L55.6269 116.165
L57.3009 117.122
L58.9749 118.4
L60.6489 119.243
L62.3229 119.619
L63.9969 120.381
L65.6709 121.318
L69.0189 122.782
L70.6929 123.8
L72.3669 125.102
L74.0409 126.192
L75.7149 127.146
L77.3889 128.448
L79.0629 129.925
L80.7369 131.013
L82.4109 131.855
L84.0849 133.024
L87.4329 135.746
L90.7809 138.09
L100.825 143.925
L102.499 145.12
L105.847 147.8
L107.521 148.811
L110.869 150.603
L112.543 151.611
L114.217 152.988
L115.891 154.613
L117.565 155.797
L120.913 157.415
L129.283 164.059
L132.631 166.637
L134.305 168.008
L141.001 172.856
L142.675 174.327
L144.349 176.059
L146.023 178.135
L149.371 182.783
L152.719 188.073
L154.393 191.021
L157.741 197.655
L164.437 211.553
L166.111 214.591
L167.785 217.207
L169.459 219.355
L171.133 221.106
L172.807 222.368
L176.155 223.845
L177.829 224.357
L179.503 224.333
L181.177 224.08
L182.851 223.695
L184.525 222.912
L186.199 221.66
L187.873 219.993
L189.547 217.929
L191.221 215.381
L194.569 209.286
L196.243 206.02
L202.939 192.074
L204.613 188.908
L206.287 185.986
L207.961 183.5
L211.309 179.111
L214.657 175.426
L218.005 171.969
L221.353 169.311
L223.027 167.986
L224.701 166.871
L229.723 164.245
L233.071 162.653
L238.093 159.577
L241.441 157.793
L244.789 156.528
L246.463 155.653
L248.137 154.448
L249.811 152.942
L253.159 149.69
L256.507 146.567
L258.181 144.856
L259.855 143.37
L266.551 138.628
L268.225 137.771
L269.899 136.78
L273.247 134.065
L279.943 129.297
L284.965 126.133
L286.639 124.747
L288.313 123.802
L289.987 123.309
L295.009 121.35
L296.683 121.148
L300.031 121.353
L301.705 121.541
L303.379 121.481
L305.053 120.914
L306.727 119.763
L308.401 117.909
L311.749 113.066
L313.423 111.062
L315.097 109.577
L316.771 108.253
L318.445 107.37
L320.119 106.73
L321.793 105.587
L323.467 104.303
L325.141 103.33
L328.489 102.015
L331.837 100.262
L333.511 99.4948
L336.859 97.7081
L340.207 96.5216
L341.881 95.9811
L343.555 95.5683
L345.229 94.984
L346.903 94.0968
L348.577 93.3439
L350.251 92.7962
L353.599 91.2438
L355.273 90.9586
L356.947 90.3906
L358.621 89.5343
L360.295 89.0269
L363.643 88.7785
L365.317 88.3223
L370.339 85.9649
L373.687 85.0485
L375.361 84.9207
L377.035 84.9566
L377.035 84.9566" style="fill:none;stroke:#0000ff;stroke-linecap:square;"/>
   </g>
   <g id="line2d_2">
    <path clip-path="url(#p257477c110)" d="
M137.183 235.239
L137.183 12.0391" style="fill:none;stroke:#000000;stroke-dasharray:1.000000,3.000000;stroke-dashoffset:0.0;"/>
   </g>
   <g id="line2d_3">
    <path clip-path="url(#p257477c110)" d="
M38.8869 107.834
L45.5829 110.585
L47.2569 111.685
L50.6049 113.43
L57.3009 116.884
L58.9749 118.148
L60.6489 119.115
L62.3229 119.52
L63.9969 120.193
L65.6709 121.132
L70.6929 123.553
L74.0409 125.98
L75.7149 126.921
L77.3889 128.145
L79.0629 129.634
L80.7369 130.813
L82.4109 131.658
L84.0849 132.749
L87.4329 135.471
L90.7809 137.869
L100.825 143.69
L102.499 144.849
L105.847 147.543
L107.521 148.613
L112.543 151.371
L114.217 152.663
L115.891 154.291
L117.565 155.588
L120.913 157.193
L122.587 158.45
L124.261 159.95
L135.979 168.97
L139.327 171.24
L142.675 173.995
L144.349 175.661
L146.023 177.673
L149.371 182.264
L152.719 187.473
L154.393 190.369
L157.741 196.929
L161.089 203.897
L164.437 210.863
L166.111 213.977
L167.785 216.689
L169.459 218.931
L171.133 220.771
L172.807 222.145
L174.481 222.994
L176.155 223.704
L177.829 224.291
L179.503 224.365
L181.177 224.143
L182.851 223.805
L184.525 223.118
L186.199 221.963
L187.873 220.38
L189.547 218.407
L191.221 215.964
L194.569 209.961
L197.917 203.274
L201.265 195.981
L204.613 189.57
L206.287 186.572
L207.961 184.007
L211.309 179.545
L214.657 175.8
L218.005 172.307
L219.679 170.855
L224.701 167.088
L228.049 165.265
L234.745 161.84
L236.419 160.679
L241.441 157.959
L246.463 155.866
L248.137 154.732
L249.811 153.281
L253.159 150.021
L256.507 146.922
L258.181 145.209
L259.855 143.659
L266.551 138.841
L269.899 137.025
L276.595 131.81
L278.269 130.565
L284.965 126.399
L286.639 125.02
L288.313 123.955
L291.661 122.804
L295.009 121.442
L296.683 121.164
L300.031 121.316
L301.705 121.513
L303.379 121.532
L305.053 121.081
L306.727 120.066
L308.401 118.357
L313.423 111.441
L315.097 109.877
L316.771 108.504
L318.445 107.523
L320.119 106.899
L321.793 105.856
L323.467 104.557
L325.141 103.509
L330.163 101.303
L336.859 97.8674
L340.207 96.6427
L341.881 96.084
L345.229 95.1374
L348.577 93.4804
L350.251 92.9309
L353.599 91.3582
L355.273 91.0277
L356.947 90.5456
L358.621 89.6994
L360.295 89.1001
L361.969 88.8989
L363.643 88.8234
L365.317 88.4529
L366.991 87.6997
L368.665 86.8009
L370.339 86.0899
L373.687 85.1141
L375.361 84.9305
L377.035 84.9411
L377.035 84.9411" style="fill:none;stroke:#008000;stroke-linecap:square;"/>
   </g>
   <g id="line2d_4">
    <path clip-path="url(#p257477c110)" d="
M142.657 235.239
L142.657 12.0391" style="fill:none;stroke:#000000;stroke-dasharray:1.000000,3.000000;stroke-dashoffset:0.0;"/>
   </g>
   <g id="line2d_5">
    <path clip-path="url(#p257477c110)" d="
M38.8869 107.599
L45.5829 110.246
L48.9309 112.318
L57.3009 116.543
L60.6489 118.842
L63.9969 119.904
L67.3449 121.657
L69.0189 122.351
L70.6929 123.185
L75.7149 126.596
L77.3889 127.672
L80.7369 130.452
L84.0849 132.323
L90.7809 137.486
L95.8029 140.462
L100.825 143.319
L102.499 144.426
L107.521 148.275
L112.543 151.017
L114.217 152.165
L117.565 155.196
L119.239 156.156
L120.913 156.89
L122.587 157.956
L125.935 160.816
L132.631 165.875
L135.979 168.556
L141.001 172.082
L142.675 173.478
L144.349 175.045
L146.023 176.932
L149.371 181.43
L152.719 186.506
L154.393 189.332
L156.067 192.409
L159.415 199.15
L166.111 212.926
L167.785 215.792
L169.459 218.2
L171.133 220.174
L172.807 221.723
L174.481 222.744
L177.829 224.117
L179.503 224.4
L181.177 224.239
L182.851 223.942
L184.525 223.409
L186.199 222.419
L187.873 220.979
L189.547 219.143
L191.221 216.874
L192.895 214.116
L196.243 207.881
L197.917 204.514
L202.939 193.845
L206.287 187.583
L207.961 184.855
L211.309 180.278
L212.983 178.25
L218.005 172.898
L219.679 171.328
L224.701 167.468
L228.049 165.572
L231.397 163.893
L233.071 163.119
L234.745 162.221
L238.093 160.052
L243.115 157.501
L244.789 156.907
L246.463 156.181
L248.137 155.166
L249.811 153.819
L259.855 144.168
L261.529 142.826
L268.225 138.24
L269.899 137.377
L271.573 136.2
L273.247 134.796
L279.943 129.866
L284.965 126.791
L288.313 124.264
L289.987 123.568
L291.661 123.045
L295.009 121.633
L296.683 121.219
L298.357 121.154
L303.379 121.563
L305.053 121.301
L306.727 120.49
L308.401 119.034
L310.075 116.904
L313.423 112.121
L315.097 110.372
L316.771 108.965
L318.445 107.812
L320.119 107.109
L321.793 106.283
L325.141 103.834
L326.815 103.011
L328.489 102.395
L330.163 101.635
L333.511 99.9347
L338.533 97.4202
L343.555 95.7989
L345.229 95.349
L346.903 94.6106
L348.577 93.7364
L351.925 92.4586
L353.599 91.6098
L355.273 91.1023
L356.947 90.7599
L360.295 89.2597
L361.969 88.9341
L363.643 88.857
L365.317 88.6284
L366.991 87.9981
L370.339 86.3104
L373.687 85.2547
L375.361 84.962
L377.035 84.9225
L377.035 84.9225" style="fill:none;stroke:#ff0000;stroke-linecap:square;"/>
   </g>
   <g id="line2d_6">
    <path clip-path="url(#p257477c110)" d="
M148.141 235.239
L148.141 12.0391" style="fill:none;stroke:#000000;stroke-dasharray:1.000000,3.000000;stroke-dashoffset:0.0;"/>
   </g>
   <g id="line2d_7">
    <path clip-path="url(#p257477c110)" d="
M38.8869 107.24
L40.5609 107.962
L42.2349 108.633
L45.5829 109.865
L47.2569 110.781
L48.9309 111.884
L55.6269 115.374
L57.3009 116.146
L58.9749 117.096
L60.6489 118.375
L62.3229 119.231
L63.9969 119.607
L65.6709 120.361
L67.3449 121.299
L70.6929 122.763
L72.3669 123.773
L74.0409 125.074
L75.7149 126.17
L77.3889 127.121
L79.0629 128.415
L80.7369 129.895
L82.4109 130.992
L84.0849 131.833
L85.7589 132.994
L89.1069 135.717
L92.4549 138.067
L102.499 143.9
L104.173 145.09
L107.521 147.774
L109.195 148.79
L112.543 150.582
L114.217 151.585
L115.891 152.952
L117.565 154.58
L119.239 155.776
L122.587 157.39
L124.261 158.728
L125.935 160.219
L134.305 166.605
L135.979 167.978
L142.675 172.824
L144.349 174.291
L146.023 176.016
L147.697 178.085
L151.045 182.727
L154.393 188.009
L156.067 190.95
L159.415 197.578
L167.785 214.526
L169.459 217.153
L171.133 219.311
L172.807 221.071
L174.481 222.345
L177.829 223.83
L179.503 224.352
L181.177 224.337
L182.851 224.087
L184.525 223.708
L186.199 222.935
L187.873 221.693
L189.547 220.035
L191.221 217.981
L192.895 215.445
L196.243 209.359
L197.917 206.098
L204.613 192.147
L207.961 186.048
L209.635 183.554
L212.983 179.157
L216.331 175.466
L219.679 172.004
L223.027 169.341
L224.701 168.014
L226.375 166.894
L231.397 164.264
L234.745 162.674
L239.767 159.597
L243.115 157.81
L246.463 156.545
L248.137 155.676
L249.811 154.479
L251.485 152.979
L254.833 149.726
L258.181 146.606
L259.855 144.894
L261.529 143.4
L268.225 138.65
L271.573 136.807
L274.921 134.094
L281.617 129.32
L286.639 126.163
L288.313 124.775
L289.987 123.817
L291.661 123.321
L296.683 121.359
L298.357 121.149
L301.705 121.349
L303.379 121.538
L305.053 121.488
L306.727 120.933
L308.401 119.797
L310.075 117.958
L313.423 113.118
L315.097 111.102
L316.771 109.609
L318.445 108.279
L320.119 107.386
L321.793 106.75
L323.467 105.616
L325.141 104.329
L326.815 103.349
L330.163 102.032
L333.511 100.28
L335.185 99.5146
L338.533 97.7247
L341.881 96.5347
L343.555 95.9918
L345.229 95.5788
L346.903 95.0015
L348.577 94.1167
L350.251 93.3579
L351.925 92.8117
L355.273 91.2548
L356.947 90.967
L358.621 90.4082
L360.295 89.5512
L361.969 89.034
L365.317 88.7843
L366.991 88.3373
L372.013 85.978
L375.361 85.0549
L377.035 84.9214
L377.035 84.9214" style="fill:none;stroke:#00bfbf;stroke-linecap:square;"/>
   </g>
   <g id="line2d_8">
    <path clip-path="url(#p257477c110)" d="
M153.633 235.239
L153.633 12.0391" style="fill:none;stroke:#000000;stroke-dasharray:1.000000,3.000000;stroke-dashoffset:0.0;"/>
   </g>
   <g id="line2d_9">
    <path clip-path="url(#p257477c110)" d="
M38.8869 106.654
L40.5609 107.563
L47.2569 110.2
L50.6049 112.273
L58.9749 116.496
L62.3229 118.795
L63.9969 119.4
L65.6709 119.865
L69.0189 121.62
L70.6929 122.316
L72.3669 123.135
L77.3889 126.551
L79.0629 127.606
L82.4109 130.395
L85.7589 132.264
L92.4549 137.428
L95.8029 139.415
L100.825 142.284
L104.173 144.366
L109.195 148.223
L114.217 150.968
L115.891 152.096
L119.239 155.133
L120.913 156.118
L122.587 156.85
L124.261 157.886
L127.609 160.753
L134.305 165.806
L137.653 168.494
L142.675 172.012
L144.349 173.404
L146.023 174.958
L147.697 176.826
L151.045 181.309
L154.393 186.366
L156.067 189.182
L157.741 192.242
L161.089 198.974
L167.785 212.768
L169.459 215.655
L171.133 218.088
L172.807 220.081
L174.481 221.655
L176.155 222.706
L179.503 224.086
L181.177 224.401
L182.851 224.252
L184.525 223.959
L186.199 223.447
L187.873 222.482
L189.547 221.063
L191.221 219.247
L192.895 217.003
L194.569 214.27
L197.917 208.048
L199.591 204.694
L204.613 194.008
L207.961 187.737
L209.635 184.984
L212.983 180.388
L214.657 178.349
L218.005 174.745
L219.679 172.987
L221.353 171.399
L226.375 167.526
L228.049 166.504
L233.071 163.934
L236.419 162.275
L239.767 160.096
L244.789 157.532
L246.463 156.938
L248.137 156.224
L249.811 155.227
L251.485 153.896
L263.203 142.886
L269.899 138.282
L271.573 137.425
L273.247 136.274
L276.595 133.597
L281.617 129.917
L286.639 126.846
L289.987 124.316
L291.661 123.589
L293.335 123.079
L296.683 121.664
L298.357 121.23
L300.031 121.15
L305.053 121.562
L306.727 121.327
L308.401 120.546
L310.075 119.128
L311.749 117.029
L315.097 112.228
L316.771 110.448
L318.445 109.037
L320.119 107.859
L323.467 106.343
L326.815 103.885
L328.489 103.045
L330.163 102.425
L331.837 101.684
L335.185 99.9719
L340.207 97.4515
L345.229 95.8184
L346.903 95.3767
L348.577 94.6588
L350.251 93.7772
L353.599 92.5028
L355.273 91.652
L356.947 91.1125
L358.621 90.7874
L361.969 89.2877
L363.643 88.941
L365.317 88.8593
L366.991 88.6502
L368.665 88.0404
L372.013 86.345
L375.361 85.2781
L377.035 84.9689
L377.035 84.9689" style="fill:none;stroke:#bf00bf;stroke-linecap:square;"/>
   </g>
   <g id="line2d_10">
    <path clip-path="url(#p257477c110)" d="
M159.141 235.239
L159.141 12.0391" style="fill:none;stroke:#000000;stroke-dasharray:1.000000,3.000000;stroke-dashoffset:0.0;"/>
   </g>
   <g id="line2d_11">
    <path clip-path="url(#p257477c110)" d="
M38.8869 105.902
L40.5609 106.974
L42.2349 107.77
L48.9309 110.489
L50.6049 111.581
L52.2789 112.535
L55.6269 114.229
L58.9749 115.92
L60.6489 116.785
L62.3229 118.027
L63.9969 119.048
L65.6709 119.485
L67.3449 120.111
L69.0189 121.044
L74.0409 123.448
L77.3889 125.882
L79.0629 126.827
L80.7369 128.012
L82.4109 129.496
L84.0849 130.718
L85.7589 131.576
L87.4329 132.629
L92.4549 136.612
L94.1289 137.767
L105.847 144.731
L109.195 147.422
L110.869 148.522
L115.891 151.269
L117.565 152.522
L119.239 154.138
L120.913 155.487
L124.261 157.103
L125.935 158.313
L127.609 159.81
L132.631 163.666
L135.979 166.216
L139.327 168.858
L142.675 171.123
L146.023 173.851
L147.697 175.487
L149.371 177.468
L152.719 182.034
L156.067 187.206
L157.741 190.081
L161.089 196.602
L164.437 203.555
L167.785 210.55
L169.459 213.694
L171.133 216.45
L172.807 218.736
L174.481 220.614
L176.155 222.036
L177.829 222.926
L181.177 224.251
L182.851 224.377
L184.525 224.17
L186.199 223.847
L187.873 223.203
L189.547 222.093
L191.221 220.549
L192.895 218.615
L194.569 216.219
L197.917 210.263
L201.265 203.617
L204.613 196.311
L207.961 189.871
L209.635 186.843
L211.309 184.237
L214.657 179.743
L216.331 177.769
L221.353 172.464
L223.027 170.983
L228.049 167.19
L231.397 165.349
L238.093 161.946
L239.767 160.785
L244.789 158.039
L249.811 155.956
L251.485 154.855
L253.159 153.43
L258.181 148.647
L263.203 143.794
L268.225 140.113
L269.899 138.941
L273.247 137.128
L281.617 130.676
L288.313 126.512
L289.987 125.151
L291.661 124.033
L295.009 122.871
L298.357 121.489
L300.031 121.176
L301.705 121.176
L306.727 121.547
L308.401 121.148
L310.075 120.192
L311.749 118.55
L313.423 116.283
L315.097 113.791
L316.771 111.62
L318.445 110.012
L320.119 108.624
L321.793 107.598
L323.467 106.965
L325.141 105.975
L326.815 104.678
L328.489 103.594
L330.163 102.849
L331.837 102.238
L341.881 97.2714
L345.229 96.1335
L348.577 95.2005
L351.925 93.5468
L353.599 92.9852
L356.947 91.4194
L360.295 90.6095
L361.969 89.7806
L363.643 89.1391
L365.317 88.9077
L366.991 88.8375
L368.665 88.5059
L370.339 87.7829
L372.013 86.8835
L373.687 86.1486
L377.035 85.1487
L377.035 85.1487" style="fill:none;stroke:#bfbf00;stroke-linecap:square;"/>
   </g>
   <g id="line2d_12">
    <path clip-path="url(#p257477c110)" d="
M164.625 235.239
L164.625 12.0391" style="fill:none;stroke:#000000;stroke-dasharray:1.000000,3.000000;stroke-dashoffset:0.0;"/>
   </g>
   <g id="line2d_13">
    <path clip-path="url(#p257477c110)" d="
M38.8869 105.136
L42.2349 107.18
L45.5829 108.589
L48.9309 109.817
L50.6049 110.71
L52.2789 111.815
L58.9749 115.318
L60.6489 116.091
L62.3229 117.019
L63.9969 118.296
L65.6709 119.193
L67.3449 119.574
L69.0189 120.3
L70.6929 121.241
L74.0409 122.706
L75.7149 123.693
L77.3889 124.99
L79.0629 126.104
L80.7369 127.048
L82.4109 128.318
L84.0849 129.804
L85.7589 130.93
L87.4329 131.769
L89.1069 132.906
L92.4549 135.63
L95.8029 137.997
L105.847 143.825
L107.521 145.004
L110.869 147.693
L112.543 148.728
L115.891 150.518
L117.565 151.507
L119.239 152.848
L120.913 154.479
L122.587 155.712
L125.935 157.317
L127.609 158.628
L129.283 160.125
L137.653 166.513
L139.327 167.889
L142.675 170.211
L144.349 171.393
L147.697 174.184
L149.371 175.888
L151.045 177.938
L154.393 182.561
L157.741 187.817
L159.415 190.742
L162.763 197.346
L171.133 214.332
L172.807 216.99
L174.481 219.177
L176.155 220.966
L177.829 222.276
L181.177 223.786
L182.851 224.333
L184.525 224.348
L186.199 224.107
L187.873 223.744
L189.547 223.002
L191.221 221.791
L192.895 220.16
L194.569 218.135
L196.243 215.632
L199.591 209.574
L201.265 206.326
L204.613 199.116
L206.287 195.566
L209.635 189.189
L211.309 186.233
L212.983 183.715
L216.331 179.295
L219.679 175.586
L223.027 172.111
L224.701 170.694
L229.723 166.962
L233.071 165.159
L239.767 161.702
L241.441 160.548
L246.463 157.862
L249.811 156.594
L251.485 155.745
L253.159 154.571
L254.833 153.087
L258.181 149.831
L261.529 146.72
L263.203 145.005
L264.877 143.491
L271.573 138.717
L274.921 136.887
L278.269 134.179
L284.965 129.39
L289.987 126.249
L291.661 124.86
L293.335 123.864
L295.009 123.357
L300.031 121.387
L301.705 121.153
L305.053 121.337
L306.727 121.53
L308.401 121.506
L310.075 120.988
L311.749 119.897
L313.423 118.103
L316.771 113.275
L318.445 111.221
L320.119 109.705
L321.793 108.357
L323.467 107.434
L325.141 106.806
L326.815 105.703
L328.489 104.409
L330.163 103.405
L333.511 102.084
L336.859 100.333
L338.533 99.5721
L341.881 97.7747
L345.229 96.5734
L346.903 96.024
L348.577 95.6096
L350.251 95.0519
L353.599 93.4005
L355.273 92.8562
L358.621 91.2891
L360.295 90.9904
L361.969 90.4592
L363.643 89.6025
L365.317 89.056
L368.665 88.8
L370.339 88.3804
L375.361 86.0176
L377.035 85.5001
L377.035 85.5001" style="fill:none;stroke:#000000;stroke-linecap:square;"/>
   </g>
   <g id="line2d_14">
    <path clip-path="url(#p257477c110)" d="
M170.138 235.239
L170.138 12.0391" style="fill:none;stroke:#000000;stroke-dasharray:1.000000,3.000000;stroke-dashoffset:0.0;"/>
   </g>
   <g id="line2d_15">
    <path clip-path="url(#p257477c110)" d="
M38.8869 104.613
L40.5609 105.26
L43.9089 107.31
L48.9309 109.318
L50.6049 109.927
L52.2789 110.868
L53.9529 111.966
L60.6489 115.44
L62.3229 116.214
L63.9969 117.192
L65.6709 118.466
L67.3449 119.273
L69.0189 119.651
L70.6929 120.435
L72.3669 121.367
L75.7149 122.833
L77.3889 123.872
L79.0629 125.174
L82.4109 127.212
L84.0849 128.534
L85.7589 130.001
L87.4329 131.065
L89.1069 131.913
L90.7809 133.102
L94.1289 135.821
L97.4769 138.149
L105.847 142.933
L107.521 143.991
L109.195 145.196
L112.543 147.868
L115.891 149.738
L119.239 151.681
L120.913 153.081
L122.587 154.698
L124.261 155.851
L125.935 156.601
L127.609 157.481
L134.305 162.842
L142.675 169.28
L146.023 171.583
L149.371 174.42
L151.045 176.172
L152.719 178.264
L156.067 182.927
L159.415 188.24
L161.089 191.203
L164.437 197.856
L171.133 211.74
L172.807 214.757
L174.481 217.345
L176.155 219.469
L177.829 221.194
L179.503 222.425
L182.851 223.883
L184.525 224.37
L186.199 224.322
L187.873 224.063
L189.547 223.662
L191.221 222.851
L192.895 221.573
L194.569 219.883
L196.243 217.793
L197.917 215.218
L201.265 209.1
L202.939 205.822
L209.635 191.889
L211.309 188.729
L212.983 185.829
L214.657 183.363
L218.005 178.994
L221.353 175.323
L224.701 171.879
L228.049 169.235
L229.723 167.914
L231.397 166.813
L236.419 164.198
L239.767 162.599
L244.789 159.526
L248.137 157.75
L251.485 156.485
L253.159 155.592
L254.833 154.368
L258.181 151.188
L266.551 143.293
L273.247 138.573
L274.921 137.72
L276.595 136.708
L279.943 133.993
L286.639 129.236
L291.661 126.057
L293.335 124.677
L295.009 123.764
L296.683 123.277
L301.705 121.328
L303.379 121.145
L306.727 121.364
L308.401 121.546
L310.075 121.463
L311.749 120.864
L313.423 119.675
L315.097 117.782
L318.445 112.935
L320.119 110.964
L321.793 109.495
L323.467 108.189
L325.141 107.331
L326.815 106.679
L331.837 103.284
L335.185 101.969
L338.533 100.217
L340.207 99.4444
L343.555 97.667
L348.577 95.9548
L350.251 95.5413
L351.925 94.9391
L353.599 94.0472
L355.273 93.3094
L356.947 92.7563
L358.621 91.9239
L360.295 91.2179
L361.969 90.9368
L363.643 90.3453
L365.317 89.4931
L366.991 89.0103
L370.339 88.7632
L372.013 88.2838
L377.035 85.9322
L377.035 85.9322" style="fill:none;stroke:#0000ff;stroke-linecap:square;"/>
   </g>
   <g id="line2d_16">
    <path clip-path="url(#p257477c110)" d="
M175.63 235.239
L175.63 12.0391" style="fill:none;stroke:#000000;stroke-dasharray:1.000000,3.000000;stroke-dashoffset:0.0;"/>
   </g>
   <g id="line2d_17">
    <path clip-path="url(#p257477c110)" d="
M38.8869 104.153
L40.5609 104.684
L42.2349 105.377
L45.5829 107.416
L50.6049 109.392
L52.2789 110.03
L57.3009 112.947
L63.9969 116.324
L65.6709 117.353
L67.3449 118.604
L69.0189 119.332
L70.6929 119.729
L77.3889 122.949
L79.0629 124.034
L80.7369 125.329
L84.0849 127.362
L87.4329 130.164
L89.1069 131.177
L90.7809 132.047
L92.4549 133.277
L95.8029 135.986
L97.4769 137.202
L100.825 139.223
L109.195 144.138
L110.869 145.367
L114.217 148.014
L117.565 149.854
L119.239 150.781
L120.913 151.84
L124.261 154.878
L125.935 155.964
L127.609 156.698
L129.283 157.634
L134.305 161.736
L141.001 166.897
L142.675 168.249
L147.697 171.751
L151.045 174.63
L152.719 176.426
L156.067 180.845
L159.415 185.831
L161.089 188.611
L162.763 191.611
L166.111 198.299
L172.807 212.151
L174.481 215.119
L176.155 217.646
L177.829 219.716
L179.503 221.383
L181.177 222.543
L184.525 223.965
L186.199 224.391
L187.873 224.297
L189.547 224.023
L191.221 223.582
L192.895 222.711
L194.569 221.376
L196.243 219.636
L197.917 217.487
L199.591 214.848
L202.939 208.685
L204.613 205.379
L209.635 194.642
L212.983 188.333
L214.657 185.488
L218.005 180.815
L219.679 178.736
L223.027 175.094
L226.375 171.684
L231.397 167.757
L233.071 166.688
L238.093 164.093
L241.441 162.475
L244.789 160.273
L249.811 157.659
L253.159 156.385
L254.833 155.452
L256.507 154.185
L263.203 147.882
L268.225 143.128
L274.921 138.453
L276.595 137.605
L278.269 136.543
L281.617 133.834
L286.639 130.122
L291.661 127.052
L293.335 125.881
L295.009 124.527
L296.683 123.688
L298.357 123.202
L301.705 121.79
L303.379 121.284
L305.053 121.144
L308.401 121.39
L310.075 121.556
L311.749 121.416
L313.423 120.745
L315.097 119.468
L316.771 117.491
L320.119 112.649
L321.793 110.752
L323.467 109.313
L325.141 108.052
L328.489 106.555
L331.837 104.093
L333.511 103.186
L336.859 101.861
L340.207 100.118
L341.881 99.3281
L343.555 98.3768
L345.229 97.5782
L350.251 95.8982
L351.925 95.4786
L353.599 94.8335
L355.273 93.9381
L356.947 93.236
L358.621 92.6616
L360.295 91.8154
L361.969 91.1678
L363.643 90.8828
L365.317 90.2388
L366.991 89.406
L368.665 88.9777
L372.013 88.7238
L373.687 88.1926
L377.035 86.4848
L377.035 86.4848" style="fill:none;stroke:#008000;stroke-linecap:square;"/>
   </g>
   <g id="line2d_18">
    <path clip-path="url(#p257477c110)" d="
M181.143 235.239
L181.143 12.0391" style="fill:none;stroke:#000000;stroke-dasharray:1.000000,3.000000;stroke-dashoffset:0.0;"/>
   </g>
   <g id="line2d_19">
    <path clip-path="url(#p257477c110)" d="
M38.8869 103.632
L40.5609 104.192
L42.2349 104.724
L43.9089 105.447
L47.2569 107.472
L53.9529 110.091
L58.9749 113.006
L65.6709 116.387
L67.3449 117.446
L69.0189 118.677
L70.6929 119.36
L72.3669 119.777
L77.3889 122.23
L79.0629 123.016
L80.7369 124.129
L82.4109 125.414
L85.7589 127.45
L89.1069 130.252
L92.4549 132.125
L94.1289 133.378
L97.4769 136.079
L99.1509 137.286
L102.499 139.294
L110.869 144.222
L114.217 146.844
L115.891 148.093
L122.587 151.933
L125.935 154.975
L127.609 156.023
L129.283 156.754
L130.957 157.724
L134.305 160.597
L141.001 165.642
L144.349 168.341
L149.371 171.847
L151.045 173.226
L152.719 174.75
L154.393 176.572
L157.741 181.016
L161.089 186.028
L162.763 188.821
L164.437 191.843
L167.785 198.548
L174.481 212.38
L176.155 215.319
L177.829 217.812
L179.503 219.853
L181.177 221.486
L182.851 222.606
L186.199 224.011
L187.873 224.398
L189.547 224.281
L191.221 223.999
L192.895 223.534
L194.569 222.629
L196.243 221.262
L197.917 219.494
L199.591 217.31
L201.265 214.637
L204.613 208.45
L206.287 205.127
L211.309 194.406
L214.657 188.112
L216.331 185.299
L219.679 180.657
L221.353 178.592
L224.701 174.966
L228.049 171.578
L233.071 167.671
L234.745 166.619
L239.767 164.034
L243.115 162.402
L246.463 160.206
L251.485 157.611
L254.833 156.327
L256.507 155.37
L258.181 154.08
L266.551 146.122
L268.225 144.44
L269.899 143.037
L276.595 138.389
L278.269 137.539
L279.943 136.446
L283.291 133.746
L288.313 130.046
L293.335 126.977
L296.683 124.446
L298.357 123.649
L300.031 123.158
L303.379 121.743
L305.053 121.262
L306.727 121.145
L310.075 121.405
L311.749 121.559
L313.423 121.386
L315.097 120.674
L316.771 119.346
L318.445 117.324
L321.793 112.492
L323.467 110.637
L325.141 109.211
L326.815 107.979
L330.163 106.48
L333.511 104.015
L335.185 103.133
L338.533 101.797
L341.881 100.064
L343.555 99.2606
L345.229 98.3114
L346.903 97.5303
L351.925 95.8679
L353.599 95.442
L355.273 94.7712
L356.947 93.8781
L363.643 91.1445
L365.317 90.8496
L366.991 90.176
L368.665 89.3605
L370.339 88.9624
L373.687 88.6986
L375.361 88.1385
L377.035 87.2772
L377.035 87.2772" style="fill:none;stroke:#ff0000;stroke-linecap:square;"/>
   </g>
   <g id="line2d_20">
    <path clip-path="url(#p257477c110)" d="
M186.648 235.239
L186.648 12.0391" style="fill:none;stroke:#000000;stroke-dasharray:1.000000,3.000000;stroke-dashoffset:0.0;"/>
   </g>
   <g id="line2d_21">
    <path clip-path="url(#p257477c110)" d="
M38.8869 103.312
L40.5609 103.667
L43.9089 104.761
L45.5829 105.513
L47.2569 106.592
L48.9309 107.522
L55.6269 110.148
L58.9749 112.221
L67.3449 116.445
L70.6929 118.741
L72.3669 119.383
L74.0409 119.823
L77.3889 121.578
L80.7369 123.079
L82.4109 124.216
L84.0849 125.49
L87.4329 127.532
L90.7809 130.329
L94.1289 132.199
L97.4769 134.867
L100.825 137.362
L104.173 139.358
L112.543 144.299
L117.565 148.163
L124.261 152.019
L127.609 155.06
L129.283 156.075
L130.957 156.805
L132.631 157.81
L135.979 160.681
L142.675 165.729
L146.023 168.423
L151.045 171.935
L152.719 173.321
L154.393 174.86
L156.067 176.706
L159.415 181.172
L162.763 186.207
L164.437 189.013
L166.111 192.055
L169.459 198.775
L176.155 212.587
L177.829 215.499
L179.503 217.96
L181.177 219.975
L182.851 221.577
L184.525 222.66
L187.873 224.051
L189.547 224.401
L191.221 224.266
L192.895 223.978
L194.569 223.488
L196.243 222.552
L197.917 221.157
L199.591 219.364
L201.265 217.148
L202.939 214.443
L206.287 208.237
L207.961 204.898
L212.983 194.194
L216.331 187.912
L218.005 185.131
L221.353 180.514
L223.027 178.463
L226.375 174.849
L229.723 171.482
L234.745 167.594
L236.419 166.557
L241.441 163.981
L244.789 162.335
L248.137 160.147
L253.159 157.568
L256.507 156.273
L258.181 155.295
L259.855 153.983
L268.225 146.007
L269.899 144.337
L271.573 142.957
L278.269 138.332
L279.943 137.479
L281.617 136.356
L284.965 133.667
L289.987 129.977
L295.009 126.908
L298.357 124.376
L300.031 123.616
L301.705 123.117
L305.053 121.701
L306.727 121.245
L308.401 121.147
L313.423 121.561
L315.097 121.356
L316.771 120.608
L318.445 119.232
L320.119 117.169
L323.467 112.351
L325.141 110.536
L326.815 109.119
L328.489 107.914
L331.837 106.409
L335.185 103.946
L336.859 103.086
L340.207 101.738
L343.555 100.015
L345.229 99.1981
L346.903 98.2527
L348.577 97.4882
L353.599 95.8414
L355.273 95.4079
L356.947 94.7127
L358.621 93.8245
L361.969 92.552
L363.643 91.7005
L365.317 91.1264
L366.991 90.8176
L370.339 89.3212
L372.013 88.9503
L375.361 88.6739
L377.035 88.0875
L377.035 88.0875" style="fill:none;stroke:#00bfbf;stroke-linecap:square;"/>
   </g>
   <g id="line2d_22">
    <path clip-path="url(#p257477c110)" d="
M192.154 235.239
L192.154 12.0391" style="fill:none;stroke:#000000;stroke-dasharray:1.000000,3.000000;stroke-dashoffset:0.0;"/>
   </g>
   <g id="line2d_23">
    <path clip-path="url(#p257477c110)" d="
M38.8869 103.257
L40.5609 103.328
L42.2349 103.712
L45.5829 104.807
L47.2569 105.597
L48.9309 106.68
L50.6049 107.58
L57.3009 110.221
L60.6489 112.294
L69.0189 116.518
L72.3669 118.817
L75.7149 119.883
L79.0629 121.637
L80.7369 122.332
L82.4109 123.158
L87.4329 126.572
L89.1069 127.636
L92.4549 130.421
L95.8029 132.291
L102.499 137.455
L107.521 140.434
L114.217 144.394
L119.239 148.247
L124.261 150.99
L125.935 152.127
L129.283 155.162
L130.957 156.136
L132.631 156.868
L134.305 157.918
L137.653 160.782
L144.349 165.837
L147.697 168.522
L152.719 172.044
L154.393 173.438
L156.067 174.997
L157.741 176.874
L161.089 181.364
L164.437 186.429
L166.111 189.249
L167.785 192.318
L171.133 199.053
L177.829 212.839
L179.503 215.717
L181.177 218.138
L182.851 220.123
L184.525 221.686
L186.199 222.723
L189.547 224.1
L191.221 224.401
L192.895 224.246
L194.569 223.952
L196.243 223.43
L197.917 222.454
L199.591 221.025
L201.265 219.201
L202.939 216.946
L204.613 214.201
L207.961 207.974
L209.635 204.614
L214.657 193.935
L218.005 187.669
L219.679 184.926
L223.027 180.339
L224.701 178.305
L228.049 174.705
L229.723 172.947
L231.397 171.367
L236.419 167.5
L238.093 166.483
L243.115 163.916
L246.463 162.251
L249.811 160.076
L254.833 157.518
L256.507 156.925
L258.181 156.205
L259.855 155.2
L261.529 153.863
L273.247 142.86
L279.943 138.263
L281.617 137.404
L283.291 136.242
L286.639 133.571
L291.661 129.895
L296.683 126.822
L300.031 124.293
L301.705 123.58
L303.379 123.064
L306.727 121.651
L308.401 121.225
L310.075 121.152
L315.097 121.563
L316.771 121.316
L318.445 120.522
L320.119 119.087
L321.793 116.975
L325.141 112.182
L326.815 110.415
L328.489 109.006
L330.163 107.839
L333.511 106.317
L336.859 103.863
L338.533 103.031
L340.207 102.412
L341.881 101.663
L345.229 99.9559
L350.251 97.4379
L355.273 95.8099
L356.947 95.3649
L358.621 94.6383
L360.295 93.7597
L363.643 92.484
L365.317 91.6339
L366.991 91.108
L368.665 90.7758
L372.013 89.2756
L373.687 88.9379
L375.361 88.8583
L377.035 88.641
L377.035 88.641" style="fill:none;stroke:#bf00bf;stroke-linecap:square;"/>
   </g>
   <g id="line2d_24">
    <path clip-path="url(#p257477c110)" d="
M197.655 235.239
L197.655 12.0391" style="fill:none;stroke:#000000;stroke-dasharray:1.000000,3.000000;stroke-dashoffset:0.0;"/>
   </g>
   <g id="line2d_25">
    <path clip-path="url(#p257477c110)" d="
M38.8869 103.298
L40.5609 103.252
L42.2349 103.354
L43.9089 103.781
L47.2569 104.874
L48.9309 105.725
L50.6049 106.807
L52.2789 107.661
L58.9749 110.332
L62.3229 112.396
L65.6709 114.08
L69.0189 115.797
L70.6929 116.626
L74.0409 118.92
L77.3889 119.977
L80.7369 121.721
L82.4109 122.414
L84.0849 123.276
L87.4329 125.71
L89.1069 126.675
L90.7809 127.791
L92.4549 129.25
L94.1289 130.55
L97.4769 132.431
L102.499 136.411
L104.173 137.588
L109.195 140.554
L114.217 143.414
L115.891 144.534
L120.913 148.364
L125.935 151.104
L127.609 152.289
L130.957 155.304
L132.631 156.218
L134.305 156.961
L135.979 158.081
L139.327 160.925
L146.023 165.995
L149.371 168.665
L152.719 170.925
L156.067 173.609
L157.741 175.199
L159.415 177.121
L162.763 181.643
L166.111 186.753
L167.785 189.595
L171.133 196.044
L174.481 202.968
L177.829 210.006
L179.503 213.202
L181.177 216.029
L182.851 218.393
L184.525 220.333
L186.199 221.838
L187.873 222.809
L191.221 224.169
L192.895 224.393
L194.569 224.215
L196.243 223.912
L197.917 223.339
L199.591 222.307
L201.265 220.829
L202.939 218.96
L204.613 216.646
L206.287 213.846
L209.635 207.59
L211.309 204.199
L214.657 196.884
L218.005 190.392
L219.679 187.318
L221.353 184.636
L224.701 180.088
L226.375 178.079
L231.397 172.742
L233.071 171.205
L238.093 167.368
L241.441 165.493
L244.789 163.822
L246.463 163.052
L248.137 162.125
L249.811 160.976
L253.159 159.105
L254.833 158.184
L256.507 157.449
L258.181 156.852
L259.855 156.104
L261.529 155.059
L263.203 153.684
L273.247 144.034
L276.595 141.55
L279.943 139.121
L283.291 137.293
L284.965 136.071
L286.639 134.676
L293.335 129.777
L298.357 126.697
L301.705 124.179
L308.401 121.58
L310.075 121.202
L311.749 121.161
L316.771 121.561
L318.445 121.251
L320.119 120.391
L321.793 118.869
L323.467 116.688
L325.141 114.196
L326.815 111.941
L328.489 110.246
L330.163 108.842
L331.837 107.734
L333.511 107.063
L335.185 106.177
L338.533 103.747
L340.207 102.954
L341.881 102.343
L346.903 99.8711
L351.925 97.3679
L355.273 96.2228
L358.621 95.3
L363.643 93.0692
L365.317 92.381
L366.991 91.5388
L370.339 90.7104
L373.687 89.2147
L375.361 88.9242
L377.035 88.853
L377.035 88.853" style="fill:none;stroke:#bfbf00;stroke-linecap:square;"/>
   </g>
   <g id="line2d_26">
    <path clip-path="url(#p257477c110)" d="
M203.158 235.239
L203.158 12.0391" style="fill:none;stroke:#000000;stroke-dasharray:1.000000,3.000000;stroke-dashoffset:0.0;"/>
   </g>
   <g id="line2d_27">
    <path clip-path="url(#p257477c110)" d="
M38.8869 103.252
L43.9089 103.411
L47.2569 104.437
L48.9309 105.003
L53.9529 107.796
L60.6489 110.527
L62.3229 111.623
L63.9969 112.567
L67.3449 114.264
L70.6929 115.949
L72.3669 116.824
L74.0409 118.076
L75.7149 119.076
L77.3889 119.498
L79.0629 120.144
L80.7369 121.079
L85.7589 123.489
L89.1069 125.922
L90.7809 126.864
L92.4549 128.065
L94.1289 129.551
L95.8029 130.756
L97.4769 131.608
L99.1509 132.676
L104.173 136.658
L105.847 137.807
L117.565 144.778
L120.913 147.47
L122.587 148.559
L127.609 151.309
L129.283 152.577
L130.957 154.199
L132.631 155.528
L135.979 157.138
L137.653 158.367
L139.327 159.866
L151.045 168.902
L154.393 171.169
L157.741 173.907
L159.415 175.555
L161.089 177.548
L164.437 182.124
L167.785 187.311
L169.459 190.193
L172.807 196.73
L176.155 203.689
L179.503 210.673
L181.177 213.805
L182.851 216.544
L184.525 218.813
L186.199 220.676
L187.873 222.079
L189.547 222.952
L192.895 224.268
L194.569 224.373
L196.243 224.16
L197.917 223.831
L199.591 223.171
L201.265 222.042
L202.939 220.483
L204.613 218.535
L206.287 216.121
L209.635 210.146
L212.983 203.484
L216.331 196.182
L219.679 189.754
L221.353 186.737
L223.027 184.148
L226.375 179.666
L228.049 177.699
L233.071 172.403
L234.745 170.933
L239.767 167.15
L243.115 165.317
L249.811 161.905
L251.485 160.744
L256.507 158.008
L261.529 155.922
L263.203 154.808
L264.877 153.373
L269.899 148.591
L274.921 143.742
L279.943 140.068
L281.617 138.902
L284.965 137.09
L293.335 130.633
L300.031 126.47
L301.705 125.101
L303.379 124.003
L306.727 122.846
L310.075 121.471
L311.749 121.171
L313.423 121.18
L318.445 121.542
L320.119 121.123
L321.793 120.145
L323.467 118.477
L325.141 116.193
L326.815 113.703
L328.489 111.552
L330.163 109.961
L331.837 108.578
L333.511 107.569
L335.185 106.941
L336.859 105.93
L338.533 104.632
L340.207 103.561
L341.881 102.826
L343.555 102.214
L351.925 97.9144
L355.273 96.6767
L356.947 96.1146
L360.295 95.1772
L363.643 93.5215
L365.317 92.9652
L368.665 91.3957
L372.013 90.586
L373.687 89.7496
L375.361 89.124
L377.035 88.9043
L377.035 88.9043" style="fill:none;stroke:#000000;stroke-linecap:square;"/>
   </g>
   <g id="line2d_28">
    <path clip-path="url(#p257477c110)" d="
M208.658 235.239
L208.658 12.0391" style="fill:none;stroke:#000000;stroke-dasharray:1.000000,3.000000;stroke-dashoffset:0.0;"/>
   </g>
   <g id="line2d_29">
    <path clip-path="url(#p257477c110)" d="
M38.8869 103.015
L40.5609 103.286
L43.9089 103.264
L45.5829 103.502
L50.6049 105.193
L53.9529 107.242
L57.3009 108.635
L60.6489 109.867
L62.3229 110.784
L63.9969 111.886
L70.6929 115.375
L72.3669 116.148
L74.0409 117.099
L75.7149 118.377
L77.3889 119.232
L79.0629 119.609
L80.7369 120.363
L82.4109 121.3
L85.7589 122.765
L87.4329 123.776
L89.1069 125.077
L90.7809 126.172
L92.4549 127.123
L94.1289 128.418
L95.8029 129.897
L97.4769 130.994
L99.1509 131.835
L100.825 132.996
L104.173 135.719
L107.521 138.069
L117.565 143.902
L119.239 145.093
L122.587 147.776
L124.261 148.792
L127.609 150.583
L129.283 151.587
L130.957 152.955
L132.631 154.582
L134.305 155.778
L137.653 157.392
L139.327 158.73
L141.001 160.221
L149.371 166.608
L151.045 167.98
L157.741 172.827
L159.415 174.293
L161.089 176.018
L162.763 178.089
L166.111 182.73
L169.459 188.013
L171.133 190.955
L174.481 197.582
L182.851 214.53
L184.525 217.156
L186.199 219.313
L187.873 221.073
L189.547 222.346
L192.895 223.831
L194.569 224.352
L196.243 224.336
L197.917 224.087
L199.591 223.707
L201.265 222.934
L202.939 221.691
L204.613 220.033
L206.287 217.979
L207.961 215.442
L211.309 209.356
L212.983 206.094
L219.679 192.143
L223.027 186.045
L224.701 183.552
L228.049 179.155
L231.397 175.465
L234.745 172.003
L238.093 169.34
L239.767 168.014
L241.441 166.893
L246.463 164.263
L249.811 162.673
L254.833 159.596
L258.181 157.81
L261.529 156.545
L263.203 155.676
L264.877 154.478
L266.551 152.978
L269.899 149.725
L273.247 146.605
L274.921 144.893
L276.595 143.399
L283.291 138.65
L286.639 136.807
L289.987 134.093
L296.683 129.32
L301.705 126.163
L303.379 124.775
L305.053 123.817
L306.727 123.321
L311.749 121.359
L313.423 121.149
L316.771 121.349
L318.445 121.538
L320.119 121.488
L321.793 120.933
L323.467 119.797
L325.141 117.958
L328.489 113.118
L330.163 111.102
L331.837 109.609
L333.511 108.279
L335.185 107.386
L336.859 106.75
L338.533 105.616
L340.207 104.33
L341.881 103.349
L345.229 102.033
L348.577 100.28
L350.251 99.5147
L353.599 97.7249
L356.947 96.5348
L358.621 95.9919
L360.295 95.579
L361.969 95.0017
L363.643 94.117
L365.317 93.3582
L366.991 92.812
L370.339 91.2549
L372.013 90.9671
L373.687 90.4086
L375.361 89.5515
L377.035 89.0341
L377.035 89.0341" style="fill:none;stroke:#0000ff;stroke-linecap:square;"/>
   </g>
   <g id="line2d_30">
    <path clip-path="url(#p257477c110)" d="
M214.158 235.239
L214.158 12.0391" style="fill:none;stroke:#000000;stroke-dasharray:1.000000,3.000000;stroke-dashoffset:0.0;"/>
   </g>
   <g id="line2d_31">
    <path clip-path="url(#p257477c110)" d="
M38.8869 102.599
L40.5609 103.154
L42.2349 103.304
L45.5829 103.311
L47.2569 103.664
L50.6049 104.758
L52.2789 105.508
L53.9529 106.586
L55.6269 107.518
L62.3229 110.144
L65.6709 112.216
L74.0409 116.441
L77.3889 118.736
L79.0629 119.381
L80.7369 119.819
L84.0849 121.574
L87.4329 123.074
L89.1069 124.209
L90.7809 125.484
L94.1289 127.526
L97.4769 130.323
L100.825 132.193
L104.173 134.86
L107.521 137.356
L110.869 139.353
L119.239 144.292
L124.261 148.157
L130.957 152.012
L134.305 155.053
L135.979 156.071
L137.653 156.8
L139.327 157.802
L142.675 160.674
L149.371 165.722
L152.719 168.416
L157.741 171.927
L159.415 173.313
L161.089 174.851
L162.763 176.695
L166.111 181.159
L169.459 186.192
L171.133 188.996
L172.807 192.037
L176.155 198.756
L182.851 212.569
L184.525 215.483
L186.199 217.947
L187.873 219.965
L189.547 221.569
L191.221 222.655
L194.569 224.048
L196.243 224.401
L197.917 224.267
L199.591 223.98
L201.265 223.492
L202.939 222.558
L204.613 221.166
L206.287 219.375
L207.961 217.162
L209.635 214.46
L212.983 208.256
L214.657 204.918
L219.679 194.212
L223.027 187.93
L224.701 185.145
L228.049 180.526
L229.723 178.474
L233.071 174.859
L236.419 171.491
L241.441 167.601
L243.115 166.563
L248.137 163.986
L251.485 162.341
L254.833 160.152
L259.855 157.572
L263.203 156.278
L264.877 155.302
L266.551 153.992
L274.921 146.017
L276.595 144.346
L278.269 142.964
L284.965 138.337
L286.639 137.485
L288.313 136.364
L291.661 133.674
L296.683 129.984
L301.705 126.914
L305.053 124.383
L306.727 123.619
L308.401 123.121
L311.749 121.705
L313.423 121.246
L315.097 121.147
L318.445 121.418
L320.119 121.561
L321.793 121.359
L323.467 120.614
L325.141 119.243
L326.815 117.184
L330.163 112.365
L331.837 110.545
L333.511 109.128
L335.185 107.92
L338.533 106.416
L341.881 103.952
L343.555 103.09
L346.903 101.744
L350.251 100.02
L351.925 99.2042
L353.599 98.2584
L355.273 97.4922
L360.295 95.8439
L361.969 95.4113
L363.643 94.7185
L365.317 93.8297
L368.665 92.5573
L370.339 91.7058
L372.013 91.128
L373.687 90.8208
L377.035 89.325
L377.035 89.325" style="fill:none;stroke:#008000;stroke-linecap:square;"/>
   </g>
   <g id="line2d_32">
    <path clip-path="url(#p257477c110)" d="
M219.65 235.239
L219.65 12.0391" style="fill:none;stroke:#000000;stroke-dasharray:1.000000,3.000000;stroke-dashoffset:0.0;"/>
   </g>
   <g id="line2d_33">
    <path clip-path="url(#p257477c110)" d="
M38.8869 102.178
L40.5609 102.906
L42.2349 103.26
L47.2569 103.426
L52.2789 105.036
L57.3009 107.827
L63.9969 110.574
L65.6709 111.674
L69.0189 113.421
L75.7149 116.873
L77.3889 118.135
L79.0629 119.108
L80.7369 119.516
L82.4109 120.183
L84.0849 121.122
L89.1069 123.54
L92.4549 125.969
L94.1289 126.91
L95.8029 128.129
L97.4769 129.618
L99.1509 130.802
L100.825 131.648
L102.499 132.735
L107.521 136.714
L109.195 137.857
L119.239 143.678
L120.913 144.835
L124.261 147.529
L125.935 148.602
L130.957 151.358
L132.631 152.645
L134.305 154.273
L135.979 155.576
L139.327 157.182
L141.001 158.433
L142.675 159.933
L154.393 168.956
L157.741 171.225
L161.089 173.977
L162.763 175.639
L164.437 177.647
L167.785 182.235
L171.133 187.44
L172.807 190.332
L176.155 196.888
L179.503 203.854
L182.851 210.824
L184.525 213.941
L186.199 216.659
L187.873 218.907
L189.547 220.751
L191.221 222.131
L192.895 222.985
L196.243 224.286
L197.917 224.367
L199.591 224.146
L201.265 223.81
L202.939 223.129
L204.613 221.98
L206.287 220.402
L207.961 218.434
L209.635 215.998
L212.983 210.001
L216.331 203.319
L219.679 196.024
L223.027 189.609
L224.701 186.607
L226.375 184.037
L229.723 179.571
L233.071 175.823
L236.419 172.328
L238.093 170.872
L243.115 167.102
L246.463 165.276
L253.159 161.854
L254.833 160.693
L259.855 157.97
L264.877 155.878
L266.551 154.749
L268.225 153.301
L273.247 148.521
L278.269 143.677
L283.291 140.011
L284.965 138.854
L288.313 137.04
L295.009 131.828
L296.683 130.58
L303.379 126.415
L305.053 125.038
L306.727 123.966
L310.075 122.814
L313.423 121.448
L315.097 121.166
L318.445 121.313
L320.119 121.511
L321.793 121.535
L323.467 121.091
L325.141 120.085
L326.815 118.385
L331.837 111.466
L333.511 109.896
L335.185 108.521
L336.859 107.534
L338.533 106.909
L340.207 105.873
L341.881 104.574
L343.555 103.521
L348.577 101.316
L355.273 97.8783
L358.621 96.6507
L360.295 96.0912
L363.643 95.1469
L366.991 93.49
L368.665 92.9391
L372.013 91.3668
L373.687 91.0317
L375.361 90.5554
L377.035 89.7112
L377.035 89.7112" style="fill:none;stroke:#ff0000;stroke-linecap:square;"/>
   </g>
   <g id="line2d_34">
    <path clip-path="url(#p257477c110)" d="
M225.143 235.239
L225.143 12.0391" style="fill:none;stroke:#000000;stroke-dasharray:1.000000,3.000000;stroke-dashoffset:0.0;"/>
   </g>
   <g id="line2d_35">
    <path clip-path="url(#p257477c110)" d="
M38.8869 101.84
L40.5609 102.628
L42.2349 103.166
L43.9089 103.304
L47.2569 103.318
L48.9309 103.686
L52.2789 104.78
L53.9529 105.548
L55.6269 106.629
L57.3009 107.547
L63.9969 110.179
L67.3449 112.252
L75.7149 116.475
L79.0629 118.774
L80.7369 119.393
L82.4109 119.848
L85.7589 121.603
L89.1069 123.112
L94.1289 126.53
L95.8029 127.576
L99.1509 130.368
L102.499 132.237
L109.195 137.401
L112.543 139.391
L120.913 144.338
L125.935 148.198
L132.631 152.064
L135.979 155.103
L137.653 156.101
L139.327 156.831
L141.001 157.854
L144.349 160.723
L151.045 165.774
L154.393 168.464
L159.415 171.98
L161.089 173.369
L162.763 174.917
L164.437 176.775
L167.785 181.251
L171.133 186.299
L172.807 189.111
L174.481 192.163
L177.829 198.89
L184.525 212.692
L186.199 215.589
L187.873 218.034
L189.547 220.037
L191.221 221.623
L192.895 222.687
L196.243 224.072
L197.917 224.401
L199.591 224.258
L201.265 223.967
L202.939 223.464
L204.613 222.512
L206.287 221.103
L207.961 219.297
L209.635 217.065
L211.309 214.344
L214.657 208.129
L216.331 204.781
L221.353 194.087
L224.701 187.812
L226.375 185.046
L229.723 180.442
L231.397 178.398
L234.745 174.79
L236.419 173.031
L238.093 171.435
L243.115 167.555
L244.789 166.527
L249.811 163.954
L253.159 162.301
L256.507 160.117
L261.529 157.548
L264.877 156.245
L266.551 155.257
L268.225 153.934
L279.943 142.917
L286.639 138.303
L288.313 137.449
L289.987 136.31
L293.335 133.628
L298.357 129.944
L303.379 126.873
L306.727 124.342
L308.401 123.601
L310.075 123.096
L313.423 121.68
L315.097 121.236
L316.771 121.149
L321.793 121.562
L323.467 121.34
L325.141 120.573
L326.815 119.174
L328.489 117.091
L331.837 112.282
L333.511 110.486
L335.185 109.073
L336.859 107.883
L340.207 106.372
L343.555 103.912
L345.229 103.063
L348.577 101.708
L351.925 99.991
L356.947 97.4677
L361.969 95.8285
L363.643 95.3907
L365.317 94.683
L366.991 93.7983
L370.339 92.5249
L372.013 91.6736
L373.687 91.1184
L375.361 90.801
L377.035 90.0872
L377.035 90.0872" style="fill:none;stroke:#00bfbf;stroke-linecap:square;"/>
   </g>
   <g id="line2d_36">
    <path clip-path="url(#p257477c110)" d="
M230.628 235.239
L230.628 12.0391" style="fill:none;stroke:#000000;stroke-dasharray:1.000000,3.000000;stroke-dashoffset:0.0;"/>
   </g>
   <g id="line2d_37">
    <path clip-path="url(#p257477c110)" d="
M38.8869 101.593
L40.5609 102.404
L42.2349 103.055
L43.9089 103.294
L47.2569 103.273
L48.9309 103.538
L53.9529 105.266
L57.3009 107.315
L62.3229 109.322
L63.9969 109.932
L65.6709 110.875
L67.3449 111.972
L77.3889 117.2
L79.0629 118.473
L80.7369 119.277
L82.4109 119.655
L84.0849 120.441
L85.7589 121.372
L89.1069 122.838
L90.7809 123.879
L92.4549 125.182
L95.8029 127.219
L100.825 131.071
L102.499 131.92
L104.173 133.11
L107.521 135.829
L110.869 138.155
L119.239 142.939
L120.913 143.998
L122.587 145.204
L125.935 147.875
L129.283 149.743
L132.631 151.688
L134.305 153.09
L135.979 154.706
L137.653 155.856
L139.327 156.605
L141.001 157.487
L147.697 162.849
L156.067 169.287
L159.415 171.59
L162.763 174.429
L164.437 176.183
L166.111 178.276
L169.459 182.941
L172.807 188.256
L174.481 191.22
L177.829 197.874
L184.525 211.757
L186.199 214.772
L187.873 217.358
L189.547 219.479
L191.221 221.202
L192.895 222.43
L196.243 223.886
L197.917 224.372
L199.591 224.321
L201.265 224.061
L202.939 223.658
L204.613 222.846
L206.287 221.565
L207.961 219.873
L209.635 217.781
L211.309 215.203
L214.657 209.083
L216.331 205.804
L223.027 191.872
L224.701 188.713
L226.375 185.816
L228.049 183.351
L231.397 178.984
L234.745 175.314
L238.093 171.872
L241.441 169.228
L243.115 167.908
L244.789 166.808
L249.811 164.194
L253.159 162.594
L258.181 159.522
L261.529 157.747
L264.877 156.481
L266.551 155.587
L268.225 154.361
L271.573 151.18
L279.943 143.287
L286.639 138.568
L288.313 137.716
L289.987 136.703
L293.335 133.987
L300.031 129.232
L305.053 126.051
L306.727 124.671
L308.401 123.761
L310.075 123.274
L315.097 121.326
L316.771 121.145
L320.119 121.365
L321.793 121.547
L323.467 121.462
L325.141 120.86
L326.815 119.668
L328.489 117.772
L331.837 112.926
L333.511 110.957
L335.185 109.489
L336.859 108.184
L338.533 107.329
L340.207 106.675
L345.229 103.281
L348.577 101.965
L351.925 100.214
L353.599 99.4408
L356.947 97.6641
L361.969 95.9529
L363.643 95.5394
L365.317 94.936
L366.991 94.0438
L368.665 93.307
L370.339 92.7535
L372.013 91.9205
L373.687 91.2162
L375.361 90.9352
L377.035 90.3422
L377.035 90.3422" style="fill:none;stroke:#bf00bf;stroke-linecap:square;"/>
   </g>
   <g id="line2d_38">
    <path clip-path="url(#p257477c110)" d="
M236.111 235.239
L236.111 12.0391" style="fill:none;stroke:#000000;stroke-dasharray:1.000000,3.000000;stroke-dashoffset:0.0;"/>
   </g>
   <g id="line2d_39">
    <path clip-path="url(#p257477c110)" d="
M38.8869 101.462
L40.5609 102.281
L42.2349 102.978
L43.9089 103.278
L47.2569 103.258
L48.9309 103.473
L53.9529 105.134
L57.3009 107.177
L60.6489 108.587
L63.9969 109.815
L65.6709 110.707
L67.3449 111.812
L74.0409 115.316
L75.7149 116.089
L77.3889 117.015
L79.0629 118.293
L80.7369 119.191
L82.4109 119.573
L84.0849 120.297
L85.7589 121.238
L89.1069 122.704
L90.7809 123.69
L92.4549 124.986
L94.1289 126.1
L95.8029 127.045
L97.4769 128.313
L99.1509 129.8
L100.825 130.927
L102.499 131.766
L104.173 132.901
L107.521 135.626
L110.869 137.994
L120.913 143.821
L122.587 144.999
L125.935 147.689
L127.609 148.725
L130.957 150.515
L132.631 151.503
L134.305 152.842
L135.979 154.474
L137.653 155.708
L141.001 157.314
L142.675 158.623
L144.349 160.12
L152.719 166.508
L154.393 167.884
L157.741 170.207
L159.415 171.388
L162.763 174.178
L164.437 175.88
L166.111 177.929
L169.459 182.552
L172.807 187.806
L174.481 190.73
L177.829 197.333
L186.199 214.321
L187.873 216.98
L189.547 219.169
L191.221 220.96
L192.895 222.272
L196.243 223.783
L197.917 224.332
L199.591 224.348
L201.265 224.109
L202.939 223.746
L204.613 223.006
L206.287 221.797
L207.961 220.167
L209.635 218.145
L211.309 215.644
L214.657 209.588
L216.331 206.341
L219.679 199.132
L221.353 195.58
L224.701 189.202
L226.375 186.245
L228.049 183.726
L231.397 179.304
L234.745 175.593
L238.093 172.118
L239.767 170.7
L244.789 166.967
L248.137 165.163
L254.833 161.708
L256.507 160.553
L261.529 157.866
L264.877 156.598
L266.551 155.75
L268.225 154.577
L269.899 153.095
L273.247 149.838
L276.595 146.728
L278.269 145.013
L279.943 143.498
L286.639 138.722
L289.987 136.893
L293.335 134.186
L300.031 129.396
L305.053 126.256
L306.727 124.867
L308.401 123.868
L310.075 123.359
L315.097 121.389
L316.771 121.153
L320.119 121.336
L321.793 121.53
L323.467 121.507
L325.141 120.993
L326.815 119.904
L328.489 118.115
L333.511 111.23
L335.185 109.712
L336.859 108.364
L338.533 107.438
L340.207 106.811
L341.881 105.71
L343.555 104.416
L345.229 103.409
L348.577 102.088
L351.925 100.338
L353.599 99.5768
L356.947 97.7789
L360.295 96.5766
L361.969 96.0267
L363.643 95.6121
L365.317 95.056
L368.665 93.4041
L370.339 92.8599
L373.687 91.2922
L375.361 90.9923
L377.035 90.4635
L377.035 90.4635" style="fill:none;stroke:#bfbf00;stroke-linecap:square;"/>
   </g>
   <g id="line2d_40">
    <path clip-path="url(#p257477c110)" d="
M241.587 235.239
L241.587 12.0391" style="fill:none;stroke:#000000;stroke-dasharray:1.000000,3.000000;stroke-dashoffset:0.0;"/>
   </g>
   <g id="patch_3">
    <path d="
M40.5609 12.0391
L375.361 12.0391" style="fill:none;stroke:#000000;stroke-linecap:square;stroke-linejoin:miter;"/>
   </g>
   <g id="patch_4">
    <path d="
M375.361 235.239
L375.361 12.0391" style="fill:none;stroke:#000000;stroke-linecap:square;stroke-linejoin:miter;"/>
   </g>
   <g id="patch_5">
    <path d="
M40.5609 235.239
L375.361 235.239" style="fill:none;stroke:#000000;stroke-linecap:square;stroke-linejoin:miter;"/>
   </g>
   <g id="patch_6">
    <path d="
M40.5609 235.239
L40.5609 12.0391" style="fill:none;stroke:#000000;stroke-linecap:square;stroke-linejoin:miter;"/>
   </g>
   <g id="matplotlib.axis_1">
    <g id="xtick_1">
     <g id="line2d_41">
      <defs>
       <path d="
M0 0
L0 -4" id="m93b0483c22" style="stroke:#000000;stroke-width:0.5;"/>
      </defs>
      <g>
       <use style="stroke:#000000;stroke-width:0.5;" x="40.5609375" xlink:href="#m93b0483c22" y="235.2390625"/>
      </g>
     </g>
     <g id="line2d_42">
      <defs>
       <path d="
M0 0
L0 4" id="m741efc42ff" style="stroke:#000000;stroke-width:0.5;"/>
      </defs>
      <g>
       <use style="stroke:#000000;stroke-width:0.5;" x="40.5609375" xlink:href="#m741efc42ff" y="12.0390625"/>
      </g>
     </g>
     <g id="text_1">
      <!-- 0.0 -->
      <defs>
       <path d="
M31.7812 66.4062
Q24.1719 66.4062 20.3281 58.9062
Q16.5 51.4219 16.5 36.375
Q16.5 21.3906 20.3281 13.8906
Q24.1719 6.39062 31.7812 6.39062
Q39.4531 6.39062 43.2812 13.8906
Q47.125 21.3906 47.125 36.375
Q47.125 51.4219 43.2812 58.9062
Q39.4531 66.4062 31.7812 66.4062
M31.7812 74.2188
Q44.0469 74.2188 50.5156 64.5156
Q56.9844 54.8281 56.9844 36.375
Q56.9844 17.9688 50.5156 8.26562
Q44.0469 -1.42188 31.7812 -1.42188
Q19.5312 -1.42188 13.0625 8.26562
Q6.59375 17.9688 6.59375 36.375
Q6.59375 54.8281 13.0625 64.5156
Q19.5312 74.2188 31.7812 74.2188" id="BitstreamVeraSans-Roman-30"/>
       <path d="
M10.6875 12.4062
L21 12.4062
L21 0
L10.6875 0
z
" id="BitstreamVeraSans-Roman-2e"/>
      </defs>
      <g transform="translate(33.27109375 246.8375)scale(0.1 -0.1)">
       <use xlink:href="#BitstreamVeraSans-Roman-30"/>
       <use x="63.623046875" xlink:href="#BitstreamVeraSans-Roman-2e"/>
       <use x="95.41015625" xlink:href="#BitstreamVeraSans-Roman-30"/>
      </g>
     </g>
    </g>
    <g id="xtick_2">
     <g id="line2d_43">
      <g>
       <use style="stroke:#000000;stroke-width:0.5;" x="124.2609375" xlink:href="#m93b0483c22" y="235.2390625"/>
      </g>
     </g>
     <g id="line2d_44">
      <g>
       <use style="stroke:#000000;stroke-width:0.5;" x="124.2609375" xlink:href="#m741efc42ff" y="12.0390625"/>
      </g>
     </g>
     <g id="text_2">
      <!-- 0.5 -->
      <defs>
       <path d="
M10.7969 72.9062
L49.5156 72.9062
L49.5156 64.5938
L19.8281 64.5938
L19.8281 46.7344
Q21.9688 47.4688 24.1094 47.8281
Q26.2656 48.1875 28.4219 48.1875
Q40.625 48.1875 47.75 41.5
Q54.8906 34.8125 54.8906 23.3906
Q54.8906 11.625 47.5625 5.09375
Q40.2344 -1.42188 26.9062 -1.42188
Q22.3125 -1.42188 17.5469 -0.640625
Q12.7969 0.140625 7.71875 1.70312
L7.71875 11.625
Q12.1094 9.23438 16.7969 8.0625
Q21.4844 6.89062 26.7031 6.89062
Q35.1562 6.89062 40.0781 11.3281
Q45.0156 15.7656 45.0156 23.3906
Q45.0156 31 40.0781 35.4375
Q35.1562 39.8906 26.7031 39.8906
Q22.75 39.8906 18.8125 39.0156
Q14.8906 38.1406 10.7969 36.2812
z
" id="BitstreamVeraSans-Roman-35"/>
      </defs>
      <g transform="translate(117.07578125 246.8375)scale(0.1 -0.1)">
       <use xlink:href="#BitstreamVeraSans-Roman-30"/>
       <use x="63.623046875" xlink:href="#BitstreamVeraSans-Roman-2e"/>
       <use x="95.41015625" xlink:href="#BitstreamVeraSans-Roman-35"/>
      </g>
     </g>
    </g>
    <g id="xtick_3">
     <g id="line2d_45">
      <g>
       <use style="stroke:#000000;stroke-width:0.5;" x="207.9609375" xlink:href="#m93b0483c22" y="235.2390625"/>
      </g>
     </g>
     <g id="line2d_46">
      <g>
       <use style="stroke:#000000;stroke-width:0.5;" x="207.9609375" xlink:href="#m741efc42ff" y="12.0390625"/>
      </g>
     </g>
     <g id="text_3">
      <!-- 1.0 -->
      <defs>
       <path d="
M12.4062 8.29688
L28.5156 8.29688
L28.5156 63.9219
L10.9844 60.4062
L10.9844 69.3906
L28.4219 72.9062
L38.2812 72.9062
L38.2812 8.29688
L54.3906 8.29688
L54.3906 0
L12.4062 0
z
" id="BitstreamVeraSans-Roman-31"/>
      </defs>
      <g transform="translate(200.890625 246.8375)scale(0.1 -0.1)">
       <use xlink:href="#BitstreamVeraSans-Roman-31"/>
       <use x="63.623046875" xlink:href="#BitstreamVeraSans-Roman-2e"/>
       <use x="95.41015625" xlink:href="#BitstreamVeraSans-Roman-30"/>
      </g>
     </g>
    </g>
    <g id="xtick_4">
     <g id="line2d_47">
      <g>
       <use style="stroke:#000000;stroke-width:0.5;" x="291.6609375" xlink:href="#m93b0483c22" y="235.2390625"/>
      </g>
     </g>
     <g id="line2d_48">
      <g>
       <use style="stroke:#000000;stroke-width:0.5;" x="291.6609375" xlink:href="#m741efc42ff" y="12.0390625"/>
      </g>
     </g>
     <g id="text_4">
      <!-- 1.5 -->
      <g transform="translate(284.6953125 246.8375)scale(0.1 -0.1)">
       <use xlink:href="#BitstreamVeraSans-Roman-31"/>
       <use x="63.623046875" xlink:href="#BitstreamVeraSans-Roman-2e"/>
       <use x="95.41015625" xlink:href="#BitstreamVeraSans-Roman-35"/>
      </g>
     </g>
    </g>
    <g id="xtick_5">
     <g id="line2d_49">
      <g>
       <use style="stroke:#000000;stroke-width:0.5;" x="375.3609375" xlink:href="#m93b0483c22" y="235.2390625"/>
      </g>
     </g>
     <g id="line2d_50">
      <g>
       <use style="stroke:#000000;stroke-width:0.5;" x="375.3609375" xlink:href="#m741efc42ff" y="12.0390625"/>
      </g>
     </g>
     <g id="text_5">
      <!-- 2.0 -->
      <defs>
       <path d="
M19.1875 8.29688
L53.6094 8.29688
L53.6094 0
L7.32812 0
L7.32812 8.29688
Q12.9375 14.1094 22.625 23.8906
Q32.3281 33.6875 34.8125 36.5312
Q39.5469 41.8438 41.4219 45.5312
Q43.3125 49.2188 43.3125 52.7812
Q43.3125 58.5938 39.2344 62.25
Q35.1562 65.9219 28.6094 65.9219
Q23.9688 65.9219 18.8125 64.3125
Q13.6719 62.7031 7.8125 59.4219
L7.8125 69.3906
Q13.7656 71.7812 18.9375 73
Q24.125 74.2188 28.4219 74.2188
Q39.75 74.2188 46.4844 68.5469
Q53.2188 62.8906 53.2188 53.4219
Q53.2188 48.9219 51.5312 44.8906
Q49.8594 40.875 45.4062 35.4062
Q44.1875 33.9844 37.6406 27.2188
Q31.1094 20.4531 19.1875 8.29688" id="BitstreamVeraSans-Roman-32"/>
      </defs>
      <g transform="translate(368.1078125 246.8375)scale(0.1 -0.1)">
       <use xlink:href="#BitstreamVeraSans-Roman-32"/>
       <use x="63.623046875" xlink:href="#BitstreamVeraSans-Roman-2e"/>
       <use x="95.41015625" xlink:href="#BitstreamVeraSans-Roman-30"/>
      </g>
     </g>
    </g>
    <g id="text_6">
     <!-- Wavelength ($\AA$) -->
     <defs>
      <path id="BitstreamVeraSans-Roman-20"/>
      <path d="
M14.0938 18.5938
L34.5938 67.2969
Q30.9062 67.7031 28.4531 70.5
Q26 73.2969 26 77.2031
Q26 81.2969 28.9531 84.1875
Q31.9062 87.0938 36.0938 87.0938
Q40.0938 87.0938 43 84.1406
Q45.9062 81.2031 45.9062 77.0938
Q45.9062 73.2031 43.2969 70.3906
Q40.7031 67.5938 36.7969 67.2031
L61.2969 11.0938
Q63.5 5.90625 65.25 4.09375
Q67 2.29688 70.7031 1.90625
L70.7031 0
L45.2031 0
L45.2031 1.90625
Q49.2031 1.90625 50.7031 2.79688
Q52.0938 3.5 52.0938 5.20312
Q52.0938 7.79688 50.2031 12.2031
L46.0938 21.5938
L19.9062 21.5938
L15.2969 10.2031
Q14.4062 7.90625 14.4062 6
Q14.4062 3.70312 16.0469 2.79688
Q17.7031 1.90625 21.4062 1.90625
L21.4062 0
L1.5 0
L1.5 1.90625
Q5.70312 2.29688 7.59375 4.9375
Q9.5 7.59375 14.0938 18.5938
M42.5 77.2031
Q42.5 79.9062 40.5469 81.7969
Q38.5938 83.7031 35.7969 83.7031
Q33.2031 83.7031 31.2969 81.75
Q29.4062 79.7969 29.4062 77.2031
Q29.4062 74.4062 31.2969 72.5
Q33.2031 70.5938 35.7969 70.5938
Q38.5938 70.5938 40.5469 72.5
Q42.5 74.4062 42.5 77.2031
M44.7031 25.7031
L33.0938 53.2031
L21.5938 25.7031
z
" id="STIXGeneral-Regular-212b"/>
      <path d="
M54.8906 33.0156
L54.8906 0
L45.9062 0
L45.9062 32.7188
Q45.9062 40.4844 42.875 44.3281
Q39.8438 48.1875 33.7969 48.1875
Q26.5156 48.1875 22.3125 43.5469
Q18.1094 38.9219 18.1094 30.9062
L18.1094 0
L9.07812 0
L9.07812 54.6875
L18.1094 54.6875
L18.1094 46.1875
Q21.3438 51.125 25.7031 53.5625
Q30.0781 56 35.7969 56
Q45.2188 56 50.0469 50.1719
Q54.8906 44.3438 54.8906 33.0156" id="BitstreamVeraSans-Roman-6e"/>
      <path d="
M31 75.875
Q24.4688 64.6562 21.2812 53.6562
Q18.1094 42.6719 18.1094 31.3906
Q18.1094 20.125 21.3125 9.0625
Q24.5156 -2 31 -13.1875
L23.1875 -13.1875
Q15.875 -1.70312 12.2344 9.375
Q8.59375 20.4531 8.59375 31.3906
Q8.59375 42.2812 12.2031 53.3125
Q15.8281 64.3594 23.1875 75.875
z
" id="BitstreamVeraSans-Roman-28"/>
      <path d="
M9.42188 75.9844
L18.4062 75.9844
L18.4062 0
L9.42188 0
z
" id="BitstreamVeraSans-Roman-6c"/>
      <path d="
M56.2031 29.5938
L56.2031 25.2031
L14.8906 25.2031
Q15.4844 15.9219 20.4844 11.0625
Q25.4844 6.20312 34.4219 6.20312
Q39.5938 6.20312 44.4531 7.46875
Q49.3125 8.73438 54.1094 11.2812
L54.1094 2.78125
Q49.2656 0.734375 44.1875 -0.34375
Q39.1094 -1.42188 33.8906 -1.42188
Q20.7969 -1.42188 13.1562 6.1875
Q5.51562 13.8125 5.51562 26.8125
Q5.51562 40.2344 12.7656 48.1094
Q20.0156 56 32.3281 56
Q43.3594 56 49.7812 48.8906
Q56.2031 41.7969 56.2031 29.5938
M47.2188 32.2344
Q47.125 39.5938 43.0938 43.9844
Q39.0625 48.3906 32.4219 48.3906
Q24.9062 48.3906 20.3906 44.1406
Q15.875 39.8906 15.1875 32.1719
z
" id="BitstreamVeraSans-Roman-65"/>
      <path d="
M54.8906 33.0156
L54.8906 0
L45.9062 0
L45.9062 32.7188
Q45.9062 40.4844 42.875 44.3281
Q39.8438 48.1875 33.7969 48.1875
Q26.5156 48.1875 22.3125 43.5469
Q18.1094 38.9219 18.1094 30.9062
L18.1094 0
L9.07812 0
L9.07812 75.9844
L18.1094 75.9844
L18.1094 46.1875
Q21.3438 51.125 25.7031 53.5625
Q30.0781 56 35.7969 56
Q45.2188 56 50.0469 50.1719
Q54.8906 44.3438 54.8906 33.0156" id="BitstreamVeraSans-Roman-68"/>
      <path d="
M3.32812 72.9062
L13.2812 72.9062
L28.6094 11.2812
L43.8906 72.9062
L54.9844 72.9062
L70.3125 11.2812
L85.5938 72.9062
L95.6094 72.9062
L77.2969 0
L64.8906 0
L49.5156 63.2812
L33.9844 0
L21.5781 0
z
" id="BitstreamVeraSans-Roman-57"/>
      <path d="
M2.98438 54.6875
L12.5 54.6875
L29.5938 8.79688
L46.6875 54.6875
L56.2031 54.6875
L35.6875 0
L23.4844 0
z
" id="BitstreamVeraSans-Roman-76"/>
      <path d="
M45.4062 27.9844
Q45.4062 37.75 41.375 43.1094
Q37.3594 48.4844 30.0781 48.4844
Q22.8594 48.4844 18.8281 43.1094
Q14.7969 37.75 14.7969 27.9844
Q14.7969 18.2656 18.8281 12.8906
Q22.8594 7.51562 30.0781 7.51562
Q37.3594 7.51562 41.375 12.8906
Q45.4062 18.2656 45.4062 27.9844
M54.3906 6.78125
Q54.3906 -7.17188 48.1875 -13.9844
Q42 -20.7969 29.2031 -20.7969
Q24.4688 -20.7969 20.2656 -20.0938
Q16.0625 -19.3906 12.1094 -17.9219
L12.1094 -9.1875
Q16.0625 -11.3281 19.9219 -12.3438
Q23.7812 -13.375 27.7812 -13.375
Q36.625 -13.375 41.0156 -8.76562
Q45.4062 -4.15625 45.4062 5.17188
L45.4062 9.625
Q42.625 4.78125 38.2812 2.39062
Q33.9375 0 27.875 0
Q17.8281 0 11.6719 7.65625
Q5.51562 15.3281 5.51562 27.9844
Q5.51562 40.6719 11.6719 48.3281
Q17.8281 56 27.875 56
Q33.9375 56 38.2812 53.6094
Q42.625 51.2188 45.4062 46.3906
L45.4062 54.6875
L54.3906 54.6875
z
" id="BitstreamVeraSans-Roman-67"/>
      <path d="
M34.2812 27.4844
Q23.3906 27.4844 19.1875 25
Q14.9844 22.5156 14.9844 16.5
Q14.9844 11.7188 18.1406 8.90625
Q21.2969 6.10938 26.7031 6.10938
Q34.1875 6.10938 38.7031 11.4062
Q43.2188 16.7031 43.2188 25.4844
L43.2188 27.4844
z

M52.2031 31.2031
L52.2031 0
L43.2188 0
L43.2188 8.29688
Q40.1406 3.32812 35.5469 0.953125
Q30.9531 -1.42188 24.3125 -1.42188
Q15.9219 -1.42188 10.9531 3.29688
Q6 8.01562 6 15.9219
Q6 25.1406 12.1719 29.8281
Q18.3594 34.5156 30.6094 34.5156
L43.2188 34.5156
L43.2188 35.4062
Q43.2188 41.6094 39.1406 45
Q35.0625 48.3906 27.6875 48.3906
Q23 48.3906 18.5469 47.2656
Q14.1094 46.1406 10.0156 43.8906
L10.0156 52.2031
Q14.9375 54.1094 19.5781 55.0469
Q24.2188 56 28.6094 56
Q40.4844 56 46.3438 49.8438
Q52.2031 43.7031 52.2031 31.2031" id="BitstreamVeraSans-Roman-61"/>
      <path d="
M18.3125 70.2188
L18.3125 54.6875
L36.8125 54.6875
L36.8125 47.7031
L18.3125 47.7031
L18.3125 18.0156
Q18.3125 11.3281 20.1406 9.42188
Q21.9688 7.51562 27.5938 7.51562
L36.8125 7.51562
L36.8125 0
L27.5938 0
Q17.1875 0 13.2344 3.875
Q9.28125 7.76562 9.28125 18.0156
L9.28125 47.7031
L2.6875 47.7031
L2.6875 54.6875
L9.28125 54.6875
L9.28125 70.2188
z
" id="BitstreamVeraSans-Roman-74"/>
      <path d="
M8.01562 75.875
L15.8281 75.875
Q23.1406 64.3594 26.7812 53.3125
Q30.4219 42.2812 30.4219 31.3906
Q30.4219 20.4531 26.7812 9.375
Q23.1406 -1.70312 15.8281 -13.1875
L8.01562 -13.1875
Q14.5 -2 17.7031 9.0625
Q20.9062 20.125 20.9062 31.3906
Q20.9062 42.6719 17.7031 53.6562
Q14.5 64.6562 8.01562 75.875" id="BitstreamVeraSans-Roman-29"/>
     </defs>
     <g transform="translate(168.8609375 262.7171875)scale(0.1 -0.1)">
      <use transform="translate(0.0 0.90625)" xlink:href="#BitstreamVeraSans-Roman-57"/>
      <use transform="translate(98.876953125 0.90625)" xlink:href="#BitstreamVeraSans-Roman-61"/>
      <use transform="translate(160.15625 0.90625)" xlink:href="#BitstreamVeraSans-Roman-76"/>
      <use transform="translate(219.3359375 0.90625)" xlink:href="#BitstreamVeraSans-Roman-65"/>
      <use transform="translate(280.859375 0.90625)" xlink:href="#BitstreamVeraSans-Roman-6c"/>
      <use transform="translate(308.642578125 0.90625)" xlink:href="#BitstreamVeraSans-Roman-65"/>
      <use transform="translate(370.166015625 0.90625)" xlink:href="#BitstreamVeraSans-Roman-6e"/>
      <use transform="translate(433.544921875 0.90625)" xlink:href="#BitstreamVeraSans-Roman-67"/>
      <use transform="translate(497.021484375 0.90625)" xlink:href="#BitstreamVeraSans-Roman-74"/>
      <use transform="translate(536.23046875 0.90625)" xlink:href="#BitstreamVeraSans-Roman-68"/>
      <use transform="translate(599.609375 0.90625)" xlink:href="#BitstreamVeraSans-Roman-20"/>
      <use transform="translate(631.396484375 0.90625)" xlink:href="#BitstreamVeraSans-Roman-28"/>
      <use transform="translate(670.41015625 0.90625)" xlink:href="#STIXGeneral-Regular-212b"/>
      <use transform="translate(742.610137939 0.90625)" xlink:href="#BitstreamVeraSans-Roman-29"/>
     </g>
    </g>
    <g id="text_7">
     <!-- +5.895e3 -->
     <defs>
      <path d="
M40.5781 39.3125
Q47.6562 37.7969 51.625 33
Q55.6094 28.2188 55.6094 21.1875
Q55.6094 10.4062 48.1875 4.48438
Q40.7656 -1.42188 27.0938 -1.42188
Q22.5156 -1.42188 17.6562 -0.515625
Q12.7969 0.390625 7.625 2.20312
L7.625 11.7188
Q11.7188 9.32812 16.5938 8.10938
Q21.4844 6.89062 26.8125 6.89062
Q36.0781 6.89062 40.9375 10.5469
Q45.7969 14.2031 45.7969 21.1875
Q45.7969 27.6406 41.2812 31.2656
Q36.7656 34.9062 28.7188 34.9062
L20.2188 34.9062
L20.2188 43.0156
L29.1094 43.0156
Q36.375 43.0156 40.2344 45.9219
Q44.0938 48.8281 44.0938 54.2969
Q44.0938 59.9062 40.1094 62.9062
Q36.1406 65.9219 28.7188 65.9219
Q24.6562 65.9219 20.0156 65.0312
Q15.375 64.1562 9.8125 62.3125
L9.8125 71.0938
Q15.4375 72.6562 20.3438 73.4375
Q25.25 74.2188 29.5938 74.2188
Q40.8281 74.2188 47.3594 69.1094
Q53.9062 64.0156 53.9062 55.3281
Q53.9062 49.2656 50.4375 45.0938
Q46.9688 40.9219 40.5781 39.3125" id="BitstreamVeraSans-Roman-33"/>
      <path d="
M31.7812 34.625
Q24.75 34.625 20.7188 30.8594
Q16.7031 27.0938 16.7031 20.5156
Q16.7031 13.9219 20.7188 10.1562
Q24.75 6.39062 31.7812 6.39062
Q38.8125 6.39062 42.8594 10.1719
Q46.9219 13.9688 46.9219 20.5156
Q46.9219 27.0938 42.8906 30.8594
Q38.875 34.625 31.7812 34.625
M21.9219 38.8125
Q15.5781 40.375 12.0312 44.7188
Q8.5 49.0781 8.5 55.3281
Q8.5 64.0625 14.7188 69.1406
Q20.9531 74.2188 31.7812 74.2188
Q42.6719 74.2188 48.875 69.1406
Q55.0781 64.0625 55.0781 55.3281
Q55.0781 49.0781 51.5312 44.7188
Q48 40.375 41.7031 38.8125
Q48.8281 37.1562 52.7969 32.3125
Q56.7812 27.4844 56.7812 20.5156
Q56.7812 9.90625 50.3125 4.23438
Q43.8438 -1.42188 31.7812 -1.42188
Q19.7344 -1.42188 13.25 4.23438
Q6.78125 9.90625 6.78125 20.5156
Q6.78125 27.4844 10.7812 32.3125
Q14.7969 37.1562 21.9219 38.8125
M18.3125 54.3906
Q18.3125 48.7344 21.8438 45.5625
Q25.3906 42.3906 31.7812 42.3906
Q38.1406 42.3906 41.7188 45.5625
Q45.3125 48.7344 45.3125 54.3906
Q45.3125 60.0625 41.7188 63.2344
Q38.1406 66.4062 31.7812 66.4062
Q25.3906 66.4062 21.8438 63.2344
Q18.3125 60.0625 18.3125 54.3906" id="BitstreamVeraSans-Roman-38"/>
      <path d="
M46 62.7031
L46 35.5
L73.1875 35.5
L73.1875 27.2031
L46 27.2031
L46 0
L37.7969 0
L37.7969 27.2031
L10.5938 27.2031
L10.5938 35.5
L37.7969 35.5
L37.7969 62.7031
z
" id="BitstreamVeraSans-Roman-2b"/>
      <path d="
M10.9844 1.51562
L10.9844 10.5
Q14.7031 8.73438 18.5 7.8125
Q22.3125 6.89062 25.9844 6.89062
Q35.75 6.89062 40.8906 13.4531
Q46.0469 20.0156 46.7812 33.4062
Q43.9531 29.2031 39.5938 26.9531
Q35.25 24.7031 29.9844 24.7031
Q19.0469 24.7031 12.6719 31.3125
Q6.29688 37.9375 6.29688 49.4219
Q6.29688 60.6406 12.9375 67.4219
Q19.5781 74.2188 30.6094 74.2188
Q43.2656 74.2188 49.9219 64.5156
Q56.5938 54.8281 56.5938 36.375
Q56.5938 19.1406 48.4062 8.85938
Q40.2344 -1.42188 26.4219 -1.42188
Q22.7031 -1.42188 18.8906 -0.6875
Q15.0938 0.046875 10.9844 1.51562
M30.6094 32.4219
Q37.25 32.4219 41.125 36.9531
Q45.0156 41.5 45.0156 49.4219
Q45.0156 57.2812 41.125 61.8438
Q37.25 66.4062 30.6094 66.4062
Q23.9688 66.4062 20.0938 61.8438
Q16.2188 57.2812 16.2188 49.4219
Q16.2188 41.5 20.0938 36.9531
Q23.9688 32.4219 30.6094 32.4219" id="BitstreamVeraSans-Roman-39"/>
     </defs>
     <g transform="translate(327.6984375 259.515625)scale(0.1 -0.1)">
      <use xlink:href="#BitstreamVeraSans-Roman-2b"/>
      <use x="83.7890625" xlink:href="#BitstreamVeraSans-Roman-35"/>
      <use x="147.412109375" xlink:href="#BitstreamVeraSans-Roman-2e"/>
      <use x="179.19921875" xlink:href="#BitstreamVeraSans-Roman-38"/>
      <use x="242.822265625" xlink:href="#BitstreamVeraSans-Roman-39"/>
      <use x="306.4453125" xlink:href="#BitstreamVeraSans-Roman-35"/>
      <use x="370.068359375" xlink:href="#BitstreamVeraSans-Roman-65"/>
      <use x="431.591796875" xlink:href="#BitstreamVeraSans-Roman-33"/>
     </g>
    </g>
   </g>
   <g id="matplotlib.axis_2">
    <g id="ytick_1">
     <g id="line2d_51">
      <defs>
       <path d="
M0 0
L4 0" id="m728421d6d4" style="stroke:#000000;stroke-width:0.5;"/>
      </defs>
      <g>
       <use style="stroke:#000000;stroke-width:0.5;" x="40.5609375" xlink:href="#m728421d6d4" y="235.2390625"/>
      </g>
     </g>
     <g id="line2d_52">
      <defs>
       <path d="
M0 0
L-4 0" id="mcb0005524f" style="stroke:#000000;stroke-width:0.5;"/>
      </defs>
      <g>
       <use style="stroke:#000000;stroke-width:0.5;" x="375.3609375" xlink:href="#mcb0005524f" y="235.2390625"/>
      </g>
     </g>
     <g id="text_8">
      <!-- 0.0 -->
      <g transform="translate(21.98125 237.9984375)scale(0.1 -0.1)">
       <use xlink:href="#BitstreamVeraSans-Roman-30"/>
       <use x="63.623046875" xlink:href="#BitstreamVeraSans-Roman-2e"/>
       <use x="95.41015625" xlink:href="#BitstreamVeraSans-Roman-30"/>
      </g>
     </g>
    </g>
    <g id="ytick_2">
     <g id="line2d_53">
      <g>
       <use style="stroke:#000000;stroke-width:0.5;" x="40.5609375" xlink:href="#m728421d6d4" y="198.0390625"/>
      </g>
     </g>
     <g id="line2d_54">
      <g>
       <use style="stroke:#000000;stroke-width:0.5;" x="375.3609375" xlink:href="#mcb0005524f" y="198.0390625"/>
      </g>
     </g>
     <g id="text_9">
      <!-- 0.2 -->
      <g transform="translate(22.31875 200.7984375)scale(0.1 -0.1)">
       <use xlink:href="#BitstreamVeraSans-Roman-30"/>
       <use x="63.623046875" xlink:href="#BitstreamVeraSans-Roman-2e"/>
       <use x="95.41015625" xlink:href="#BitstreamVeraSans-Roman-32"/>
      </g>
     </g>
    </g>
    <g id="ytick_3">
     <g id="line2d_55">
      <g>
       <use style="stroke:#000000;stroke-width:0.5;" x="40.5609375" xlink:href="#m728421d6d4" y="160.8390625"/>
      </g>
     </g>
     <g id="line2d_56">
      <g>
       <use style="stroke:#000000;stroke-width:0.5;" x="375.3609375" xlink:href="#mcb0005524f" y="160.8390625"/>
      </g>
     </g>
     <g id="text_10">
      <!-- 0.4 -->
      <defs>
       <path d="
M37.7969 64.3125
L12.8906 25.3906
L37.7969 25.3906
z

M35.2031 72.9062
L47.6094 72.9062
L47.6094 25.3906
L58.0156 25.3906
L58.0156 17.1875
L47.6094 17.1875
L47.6094 0
L37.7969 0
L37.7969 17.1875
L4.89062 17.1875
L4.89062 26.7031
z
" id="BitstreamVeraSans-Roman-34"/>
      </defs>
      <g transform="translate(21.878125 163.5984375)scale(0.1 -0.1)">
       <use xlink:href="#BitstreamVeraSans-Roman-30"/>
       <use x="63.623046875" xlink:href="#BitstreamVeraSans-Roman-2e"/>
       <use x="95.41015625" xlink:href="#BitstreamVeraSans-Roman-34"/>
      </g>
     </g>
    </g>
    <g id="ytick_4">
     <g id="line2d_57">
      <g>
       <use style="stroke:#000000;stroke-width:0.5;" x="40.5609375" xlink:href="#m728421d6d4" y="123.6390625"/>
      </g>
     </g>
     <g id="line2d_58">
      <g>
       <use style="stroke:#000000;stroke-width:0.5;" x="375.3609375" xlink:href="#mcb0005524f" y="123.6390625"/>
      </g>
     </g>
     <g id="text_11">
      <!-- 0.6 -->
      <defs>
       <path d="
M33.0156 40.375
Q26.375 40.375 22.4844 35.8281
Q18.6094 31.2969 18.6094 23.3906
Q18.6094 15.5312 22.4844 10.9531
Q26.375 6.39062 33.0156 6.39062
Q39.6562 6.39062 43.5312 10.9531
Q47.4062 15.5312 47.4062 23.3906
Q47.4062 31.2969 43.5312 35.8281
Q39.6562 40.375 33.0156 40.375
M52.5938 71.2969
L52.5938 62.3125
Q48.875 64.0625 45.0938 64.9844
Q41.3125 65.9219 37.5938 65.9219
Q27.8281 65.9219 22.6719 59.3281
Q17.5312 52.7344 16.7969 39.4062
Q19.6719 43.6562 24.0156 45.9219
Q28.375 48.1875 33.5938 48.1875
Q44.5781 48.1875 50.9531 41.5156
Q57.3281 34.8594 57.3281 23.3906
Q57.3281 12.1562 50.6875 5.35938
Q44.0469 -1.42188 33.0156 -1.42188
Q20.3594 -1.42188 13.6719 8.26562
Q6.98438 17.9688 6.98438 36.375
Q6.98438 53.6562 15.1875 63.9375
Q23.3906 74.2188 37.2031 74.2188
Q40.9219 74.2188 44.7031 73.4844
Q48.4844 72.75 52.5938 71.2969" id="BitstreamVeraSans-Roman-36"/>
      </defs>
      <g transform="translate(21.946875 126.3984375)scale(0.1 -0.1)">
       <use xlink:href="#BitstreamVeraSans-Roman-30"/>
       <use x="63.623046875" xlink:href="#BitstreamVeraSans-Roman-2e"/>
       <use x="95.41015625" xlink:href="#BitstreamVeraSans-Roman-36"/>
      </g>
     </g>
    </g>
    <g id="ytick_5">
     <g id="line2d_59">
      <g>
       <use style="stroke:#000000;stroke-width:0.5;" x="40.5609375" xlink:href="#m728421d6d4" y="86.4390625"/>
      </g>
     </g>
     <g id="line2d_60">
      <g>
       <use style="stroke:#000000;stroke-width:0.5;" x="375.3609375" xlink:href="#mcb0005524f" y="86.4390625"/>
      </g>
     </g>
     <g id="text_12">
      <!-- 0.8 -->
      <g transform="translate(22.0015625 89.1984375)scale(0.1 -0.1)">
       <use xlink:href="#BitstreamVeraSans-Roman-30"/>
       <use x="63.623046875" xlink:href="#BitstreamVeraSans-Roman-2e"/>
       <use x="95.41015625" xlink:href="#BitstreamVeraSans-Roman-38"/>
      </g>
     </g>
    </g>
    <g id="ytick_6">
     <g id="line2d_61">
      <g>
       <use style="stroke:#000000;stroke-width:0.5;" x="40.5609375" xlink:href="#m728421d6d4" y="49.2390625"/>
      </g>
     </g>
     <g id="line2d_62">
      <g>
       <use style="stroke:#000000;stroke-width:0.5;" x="375.3609375" xlink:href="#mcb0005524f" y="49.2390625"/>
      </g>
     </g>
     <g id="text_13">
      <!-- 1.0 -->
      <g transform="translate(22.4203125 51.9984375)scale(0.1 -0.1)">
       <use xlink:href="#BitstreamVeraSans-Roman-31"/>
       <use x="63.623046875" xlink:href="#BitstreamVeraSans-Roman-2e"/>
       <use x="95.41015625" xlink:href="#BitstreamVeraSans-Roman-30"/>
      </g>
     </g>
    </g>
    <g id="ytick_7">
     <g id="line2d_63">
      <g>
       <use style="stroke:#000000;stroke-width:0.5;" x="40.5609375" xlink:href="#m728421d6d4" y="12.0390625"/>
      </g>
     </g>
     <g id="line2d_64">
      <g>
       <use style="stroke:#000000;stroke-width:0.5;" x="375.3609375" xlink:href="#mcb0005524f" y="12.0390625"/>
      </g>
     </g>
     <g id="text_14">
      <!-- 1.2 -->
      <g transform="translate(22.7578125 14.7984375)scale(0.1 -0.1)">
       <use xlink:href="#BitstreamVeraSans-Roman-31"/>
       <use x="63.623046875" xlink:href="#BitstreamVeraSans-Roman-2e"/>
       <use x="95.41015625" xlink:href="#BitstreamVeraSans-Roman-32"/>
      </g>
     </g>
    </g>
    <g id="text_15">
     <!-- Relative flux -->
     <defs>
      <path d="
M8.5 21.5781
L8.5 54.6875
L17.4844 54.6875
L17.4844 21.9219
Q17.4844 14.1562 20.5 10.2656
Q23.5312 6.39062 29.5938 6.39062
Q36.8594 6.39062 41.0781 11.0312
Q45.3125 15.6719 45.3125 23.6875
L45.3125 54.6875
L54.2969 54.6875
L54.2969 0
L45.3125 0
L45.3125 8.40625
Q42.0469 3.42188 37.7188 1
Q33.4062 -1.42188 27.6875 -1.42188
Q18.2656 -1.42188 13.375 4.4375
Q8.5 10.2969 8.5 21.5781" id="BitstreamVeraSans-Roman-75"/>
      <path d="
M44.3906 34.1875
Q47.5625 33.1094 50.5625 29.5938
Q53.5625 26.0781 56.5938 19.9219
L66.6094 0
L56 0
L46.6875 18.7031
Q43.0625 26.0312 39.6719 28.4219
Q36.2812 30.8125 30.4219 30.8125
L19.6719 30.8125
L19.6719 0
L9.8125 0
L9.8125 72.9062
L32.0781 72.9062
Q44.5781 72.9062 50.7344 67.6719
Q56.8906 62.4531 56.8906 51.9062
Q56.8906 45.0156 53.6875 40.4688
Q50.4844 35.9375 44.3906 34.1875
M19.6719 64.7969
L19.6719 38.9219
L32.0781 38.9219
Q39.2031 38.9219 42.8438 42.2188
Q46.4844 45.5156 46.4844 51.9062
Q46.4844 58.2969 42.8438 61.5469
Q39.2031 64.7969 32.0781 64.7969
z
" id="BitstreamVeraSans-Roman-52"/>
      <path d="
M37.1094 75.9844
L37.1094 68.5
L28.5156 68.5
Q23.6875 68.5 21.7969 66.5469
Q19.9219 64.5938 19.9219 59.5156
L19.9219 54.6875
L34.7188 54.6875
L34.7188 47.7031
L19.9219 47.7031
L19.9219 0
L10.8906 0
L10.8906 47.7031
L2.29688 47.7031
L2.29688 54.6875
L10.8906 54.6875
L10.8906 58.5
Q10.8906 67.625 15.1406 71.7969
Q19.3906 75.9844 28.6094 75.9844
z
" id="BitstreamVeraSans-Roman-66"/>
      <path d="
M9.42188 54.6875
L18.4062 54.6875
L18.4062 0
L9.42188 0
z

M9.42188 75.9844
L18.4062 75.9844
L18.4062 64.5938
L9.42188 64.5938
z
" id="BitstreamVeraSans-Roman-69"/>
      <path d="
M54.8906 54.6875
L35.1094 28.0781
L55.9062 0
L45.3125 0
L29.3906 21.4844
L13.4844 0
L2.875 0
L24.125 28.6094
L4.6875 54.6875
L15.2812 54.6875
L29.7812 35.2031
L44.2812 54.6875
z
" id="BitstreamVeraSans-Roman-78"/>
     </defs>
     <g transform="translate(14.7984375 154.50546875)rotate(-90.0)scale(0.1 -0.1)">
      <use xlink:href="#BitstreamVeraSans-Roman-52"/>
      <use x="64.982421875" xlink:href="#BitstreamVeraSans-Roman-65"/>
      <use x="126.505859375" xlink:href="#BitstreamVeraSans-Roman-6c"/>
      <use x="154.2890625" xlink:href="#BitstreamVeraSans-Roman-61"/>
      <use x="215.568359375" xlink:href="#BitstreamVeraSans-Roman-74"/>
      <use x="254.77734375" xlink:href="#BitstreamVeraSans-Roman-69"/>
      <use x="282.560546875" xlink:href="#BitstreamVeraSans-Roman-76"/>
      <use x="341.740234375" xlink:href="#BitstreamVeraSans-Roman-65"/>
      <use x="403.263671875" xlink:href="#BitstreamVeraSans-Roman-20"/>
      <use x="435.05078125" xlink:href="#BitstreamVeraSans-Roman-66"/>
      <use x="470.255859375" xlink:href="#BitstreamVeraSans-Roman-6c"/>
      <use x="498.0390625" xlink:href="#BitstreamVeraSans-Roman-75"/>
      <use x="561.41796875" xlink:href="#BitstreamVeraSans-Roman-78"/>
     </g>
    </g>
   </g>
  </g>
 </g>
 <defs>
  <clipPath id="p257477c110">
   <rect height="223.2" width="334.8" x="40.5609375" y="12.0390625"/>
  </clipPath>
 </defs>
</svg>
